<svg width="128" height="128" viewBox="0 0 1024 1024" xmlns="http://www.w3.org/2000/svg"><path d="M224 352h64a32 32 0 0 0 0-64H224a32 32 0 0 0 0 64M224 544h64a32 32 0 0 0 0-64H224a32 32 0 0 0 0 64M384 352h64a32 32 0 0 0 0-64h-64a32 32 0 0 0 0 64M384 544h64a32 32 0 0 0 0-64h-64a32 32 0 0 0 0 64M544 352h64a32 32 0 0 0 0-64h-64a32 32 0 0 0 0 64M704 352h64a32 32 0 0 0 0-64h-64a32 32 0 0 0 0 64M544 544h64a32 32 0 0 0 0-64h-64a32 32 0 0 0 0 64M704 544h64a32 32 0 0 0 0-64h-64a32 32 0 0 0 0 64M779.776 672H224a32 32 0 0 0 0 64h555.776a32 32 0 0 0 0-64"></path></svg>