<svg width="128" height="128" viewBox="0 0 1024 1024" xmlns="http://www.w3.org/2000/svg"><path d="M522.666667 128l45.248 45.248a212.949333 212.949333 0 0 1 61.12 175.082667A212.352 212.352 0 0 1 704 334.762667h64v64c0 51.029333-17.92 97.877333-47.786667 134.613333L768 533.333333v64c0 117.824-95.509333 213.333333-213.333333 213.333334v64h-64v-64c-117.824 0-213.333333-95.509333-213.333334-213.333334v-64l47.786667 0.021334A212.458667 212.458667 0 0 1 277.333333 398.762667v-64h64c26.389333 0 51.669333 4.8 75.008 13.568a212.8 212.8 0 0 1 61.077334-175.082667L522.666667 128zM704 597.333333a149.333333 149.333333 0 0 0-149.333333 149.333334 149.333333 149.333333 0 0 0 149.333333-149.333334z m-362.666667 0a149.333333 149.333333 0 0 0 149.333334 149.333334 149.333333 149.333333 0 0 0-149.333334-149.333334z m362.666667-198.570666a149.333333 149.333333 0 0 0-149.333333 149.333333 149.333333 149.333333 0 0 0 149.333333-149.333333z m-362.666667 0a149.333333 149.333333 0 0 0 149.333334 149.333333 149.333333 149.333333 0 0 0-149.333334-149.333333z m181.333334-180.266667a149.333333 149.333333 0 0 0 0 211.2 149.333333 149.333333 0 0 0 0-211.2z"></path></svg>