<svg width="128" height="128" viewBox="0 0 1024 1024" xmlns="http://www.w3.org/2000/svg"><path d="M857.38719 501.122873l32.092376 55.372292-462.704913 268.054249-32.092376-55.372292 462.704913-268.054249zM214.687739 272.628103a74.666667 74.666667 0 0 1 56.108377-10.59344l349.700121 72.962378 25.42413-16.550783a256 256 0 0 1 200.607216-34.234109l7.340895 1.920136 33.304979 9.173915a62.784 62.784 0 0 1 17.808365 112.93566l-3.142878 1.93771-565.500618 326.294865a64 64 0 0 1-62.81291 0.644848l-3.608286-2.153736-116.500307-74.381783a51.178667 51.178667 0 0 1-5.80794-81.95298l2.726317-2.189881 40.021527-29.880682a64 64 0 0 1 38.67169-12.720002l4.636771 0.180458L306.447943 539.764106l63.58375-41.464382-183.853702-86.16662a66.282667 66.282667 0 0 1-33.502513-84.438721l1.602898-3.709032a66.282667 66.282667 0 0 1 23.743377-27.355265zM228.654476 597.832534l-25.165422 18.790878 100.878414 64.433205 562.921897-324.830673-30.46755-8.398012a192 192 0 0 0-155.943322 24.212909L323.148023 605.254826l-94.493547-7.422292zM249.719766 326.18002l-36.695129 23.994174a2.282667 2.282667 0 0 0 0.277033 3.978501l219.777991 102.991981 111.431983-72.636812-286.786137-59.821493a10.666667 10.666667 0 0 0-6.543342 0.698599L249.719766 326.18002z"></path></svg>