<svg width="128" height="128" viewBox="0 0 1024 1024" xmlns="http://www.w3.org/2000/svg"><path d="M512 149.333333c153.173333 0 277.333333 124.16 277.333333 277.333334 0 112.32-66.773333 209.066667-162.794666 252.650666L648.533333 789.333333H725.333333v64H298.666667v-64h76.8l22.016-109.994666C301.461333 635.733333 234.666667 539.008 234.666667 426.666667c0-153.173333 124.16-277.333333 277.333333-277.333334z m0 128a149.333333 149.333333 0 1 0 0 298.666667 149.333333 149.333333 0 0 0 0-298.666667z m0 64a85.333333 85.333333 0 1 1 0 170.666667 85.333333 85.333333 0 0 1 0-170.666667z"></path></svg>