<svg width="128" height="128" viewBox="0 0 1024 1024" xmlns="http://www.w3.org/2000/svg"><path d="M298.666667 853.333333v-64h76.8l22.016-109.994666C301.461333 635.733333 234.666667 539.008 234.666667 426.666667c0-153.173333 124.16-277.333333 277.333333-277.333334s277.333333 124.16 277.333333 277.333334c0 112.32-66.773333 209.066667-162.794666 252.650666L648.533333 789.333333H725.333333v64H298.666667z m267.52-149.333333h-108.373334l-17.066666 85.333333h142.506666l-17.066666-85.333333zM512 213.333333c-117.824 0-213.333333 95.509333-213.333333 213.333334s95.509333 213.333333 213.333333 213.333333 213.333333-95.509333 213.333333-213.333333-95.509333-213.333333-213.333333-213.333334z m0 64a149.333333 149.333333 0 1 1 0 298.666667 149.333333 149.333333 0 0 1 0-298.666667z m0 64a85.333333 85.333333 0 1 0 0 170.666667 85.333333 85.333333 0 0 0 0-170.666667z"></path></svg>