<svg width="128" height="128" viewBox="0 0 1024 1024" xmlns="http://www.w3.org/2000/svg"><path d="M576 384a64 64 0 0 1 64 64v341.333333a64 64 0 0 1-64 64H234.666667a64 64 0 0 1-64-64V448a64 64 0 0 1 64-64h341.333333z m0 64H234.666667v341.333333h341.333333V448z m-64 192v64H298.666667v-64h213.333333zM789.333333 170.666667a64 64 0 0 1 64 64v341.333333a64 64 0 0 1-64 64h-106.666666v-64h106.666666V234.666667H448v106.666666h-64v-106.666666a64 64 0 0 1 64-64h341.333333zM512 533.333333v64H298.666667v-64h213.333333z"></path></svg>