<svg width="128" height="128" viewBox="0 0 1024 1024" xmlns="http://www.w3.org/2000/svg"><path d="M628.437333 170.666667L789.333333 331.434667V437.333333h53.333334v320H789.333333V789.333333a64 64 0 0 1-64 64H298.666667a64 64 0 0 1-64-64v-32H181.333333v-320H234.666667V234.666667a64 64 0 0 1 64-64h329.770666zM725.333333 757.333333H298.666667V789.333333h426.666666v-32zM422.357333 515.989333a107.136 107.136 0 0 0-25.536 3.84c-10.24 3.456-19.264 8.768-27.072 15.936a75.733333 75.733333 0 0 0-17.472 26.304 94.144 94.144 0 0 0-4.608 16.32 107.370667 107.370667 0 0 0 2.112 45.888c1.664 5.376 3.84 10.56 6.528 15.552 2.56 4.48 5.568 8.768 9.024 12.864 7.04 7.552 15.36 13.376 24.96 17.472 10.112 3.968 20.608 6.016 31.488 6.144a113.194667 113.194667 0 0 0 27.84-3.84 73.877333 73.877333 0 0 0 25.344-11.712v-76.608h-51.84v28.992h14.016v31.296a53.12 53.12 0 0 1-12.672 1.152 37.546667 37.546667 0 0 1-29.376-13.632 49.216 49.216 0 0 1-8.448-17.472 77.333333 77.333333 0 0 1 0-35.712c1.92-6.528 4.992-12.416 9.216-17.664 4.096-4.608 8.896-8.192 14.4-10.752 5.632-2.304 11.52-3.52 17.664-3.648a102.976 102.976 0 0 1 37.824 6.72l0.96-29.952a120.874667 120.874667 0 0 0-21.312-5.376 155.733333 155.733333 0 0 0-23.04-2.112z m108.288 3.84h-38.4v152.64h38.4v-152.64z m119.424 0h-102.144v152.64h38.4v-57.6h55.488v-29.76h-55.488v-34.56h63.744v-30.72zM572.736 234.666667H298.666667v202.666666h426.666666v-54.378666h-152.576L572.736 234.666667z m64 34.773333v49.514667h49.557333l-49.557333-49.514667z"></path></svg>