<svg width="128" height="128" viewBox="0 0 1024 1024" xmlns="http://www.w3.org/2000/svg"><path d="M722.858667 234.666667a64 64 0 0 1 56.533333 33.984L874.666667 448v256a64 64 0 0 1-64 64H213.333333a64 64 0 0 1-64-64V448l95.274667-179.349333A64 64 0 0 1 301.141333 234.666667h421.717334zM810.666667 501.333333H213.333333V704h597.333334v-202.666667zM618.666667 576v64H384v-64h234.666667z m128 0v64h-64v-64h64z m-23.808-277.333333H301.141333l-73.685333 138.666666h569.066667L722.858667 298.666667z"></path></svg>