<svg width="128" height="128" viewBox="0 0 1024 1024" xmlns="http://www.w3.org/2000/svg"><path d="M512 149.333333c200.298667 0 362.666667 162.368 362.666667 362.666667s-162.368 362.666667-362.666667 362.666667S149.333333 712.298667 149.333333 512 311.701333 149.333333 512 149.333333z m0 64c-164.949333 0-298.666667 133.717333-298.666667 298.666667s133.717333 298.666667 298.666667 298.666667 298.666667-133.717333 298.666667-298.666667-133.717333-298.666667-298.666667-298.666667z m113.130667 140.266667l45.269333 45.269333L557.226667 512l113.152 113.130667-45.269334 45.269333L512 557.226667l-113.130667 113.152-45.269333-45.269334L466.773333 512l-113.152-113.109333 45.269334-45.269334L512 466.730667l113.109333-113.130667z"></path></svg>