<svg width="128" height="128" viewBox="0 0 1024 1024" xmlns="http://www.w3.org/2000/svg"><path d="M353.813333 332.032l-45.248 45.248L146.752 215.466667l154.026667-154.048L346.069333 106.666667 268.16 184.533333l253.546667 0.042667c185.344 0 336.042667 148.437333 339.626666 332.949333l0.085334 6.762667c0 187.605333-152.106667 339.712-339.712 339.712-187.626667 0-339.733333-152.106667-339.733334-339.712h64c0 152.277333 123.456 275.712 275.733334 275.712 152.256 0 275.712-123.434667 275.712-275.712s-123.456-275.712-275.712-275.712l-251.370667-0.021333 83.477333 83.477333z m189.866667 5.418667v153.856h153.856v65.941333H477.738667V337.450667h65.92z"></path></svg>