<svg width="128" height="128" viewBox="0 0 1024 1024" xmlns="http://www.w3.org/2000/svg"><path d="M512 149.333333c74.88 0 144.448 22.698667 202.24 61.568l-46.378667 46.293334A297.28 297.28 0 0 0 512 213.333333c-164.949333 0-298.666667 133.717333-298.666667 298.666667s133.717333 298.666667 298.666667 298.666667 298.666667-133.717333 298.666667-298.666667c0-45.674667-10.24-88.96-28.586667-127.68l47.573333-47.466667A361.024 361.024 0 0 1 874.666667 512c0 200.298667-162.368 362.666667-362.666667 362.666667S149.333333 712.298667 149.333333 512 311.701333 149.333333 512 149.333333z m0 128c39.296 0 76.330667 9.664 108.864 26.730667l-48.362667 48.298667a170.666667 170.666667 0 1 0 108.16 133.205333l52.437334-52.373333C741.888 457.834667 746.666667 484.352 746.666667 512c0 129.6-105.066667 234.666667-234.666667 234.666667s-234.666667-105.066667-234.666667-234.666667 105.066667-234.666667 234.666667-234.666667z m318.762667-107.989333l45.226666 45.312-312.469333 311.936 0.085333 0.085333-47.68 2.368 2.346667-47.68L830.741333 169.322667z"></path></svg>