<svg width="128" height="128" viewBox="0 0 1024 1024" xmlns="http://www.w3.org/2000/svg"><path d="M512 149.333333c200.298667 0 362.666667 162.368 362.666667 362.666667s-162.368 362.666667-362.666667 362.666667S149.333333 712.298667 149.333333 512 311.701333 149.333333 512 149.333333z m161.877333 394.517334c-60.416 168.192-279.445333 168.192-322.922666 2.688l-61.909334 16.256c59.989333 228.266667 364.032 228.266667 445.077334 2.688l-60.245334-21.632zM426.666667 362.666667a42.666667 42.666667 0 0 0-42.666667 42.666666v64a42.666667 42.666667 0 1 0 85.333333 0v-64a42.666667 42.666667 0 0 0-42.666666-42.666666z m170.666666 0a42.666667 42.666667 0 0 0-42.666666 42.666666v64a42.666667 42.666667 0 1 0 85.333333 0v-64a42.666667 42.666667 0 0 0-42.666667-42.666666z"></path></svg>