<svg width="128" height="128" viewBox="0 0 1024 1024" xmlns="http://www.w3.org/2000/svg"><path d="M830.784 489.301333l45.098667 45.397334-322.282667 320-14.656-14.762667 14.741333 14.890667h-45.013333v-45.376l-0.149333-0.149334 322.261333-320zM746.666667 170.666667a64 64 0 0 1 64 64v192l-64 64V234.666667H394.666667v554.666666H448l-64 64h-106.666667a64 64 0 0 1-64-64V234.666667a64 64 0 0 1 64-64h469.333334z m-416 64H277.333333v554.666666h53.333334V234.666667zM618.666667 426.666667v64h-170.666667v-64h170.666667z m64-128v64H448v-64h234.666667z"></path></svg>