<svg class="icon" viewBox="0 0 1560 1024" xmlns="http://www.w3.org/2000/svg" width="304.688" height="200"><defs><style/></defs><path d="M141.4 0h1275.04c80.451 0 143.837 63.386 143.837 138.962V884.97c0 78.014-63.386 138.962-141.4 138.962H141.4C63.386 1023.932 0 960.546 0 884.97V138.962C0 63.386 63.386 0 141.4 0z"/><path d="M1560.277 129.21v755.76-755.76z"/><path d="M1418.877 1023.932h-229.166V0h229.166c78.014 0 141.4 63.386 141.4 138.962v748.446c0 75.576-63.386 138.962-141.4 136.524zM0 887.408V138.962C0 63.386 63.386 0 141.4 0h229.166v1023.932H141.4C63.386 1026.37 0 962.984 0 887.408zm780.139-726.504l-56.073 107.269c-7.314 12.19-17.065 9.751-29.255 4.876l-41.445-21.942L685.06 414.45c7.314 29.255-14.627 29.255-24.38 17.065l-70.7-80.452-14.627 39.007c-2.438 4.876-7.314 9.752-17.065 9.752l-90.204-19.503 24.38 85.327c4.875 19.504 9.751 26.818-4.876 31.693l-31.693 14.628L611.92 638.739c7.314 4.875 9.752 12.19 7.314 21.94l-14.628 46.322c53.635-7.314 102.394-14.628 156.028-21.942 4.876 0 12.19 7.314 12.19 12.19L765.51 860.59h26.817l-4.876-163.341c0-4.876 7.314-14.628 12.19-12.19 53.635 4.876 102.393 14.628 156.028 21.942l-14.628-43.883c-2.438-7.314 0-17.066 7.314-21.942l156.028-126.772-31.693-14.628c-14.628-4.876-9.752-12.19-4.876-31.693l24.38-85.327-92.642 17.065c-9.752 2.438-14.628-4.876-17.066-9.752l-12.19-41.445-68.262 80.452c-9.751 12.19-31.693 12.19-24.379-17.065l31.693-163.342-41.445 21.942c-12.19 7.313-21.941 7.313-29.255-4.876"/></svg>