<svg class="icon" viewBox="0 0 1024 1024" xmlns="http://www.w3.org/2000/svg" width="200" height="200"><defs><style/></defs><path d="M990.2 1024H33.8C15.2 1024 0 1008.8 0 990.2V33.8C0 15.2 15.2 0 33.8 0c18.7 0 33.8 15.2 33.8 33.8v888.6c0 18.7 15.2 33.8 33.8 33.8H990c18.7 0 33.8 15.2 33.8 33.8.2 18.8-15 34-33.6 34z"/><path d="M189 883.9c-24.3 0-44-19.7-44-44s19.7-44 44-44 44 19.7 44 44-19.7 44-44 44zm80-138c-28.7 0-52-23.3-52-52s23.3-52 52-52 52 23.3 52 52-23.3 52-52 52zm52-151.7c-36.6 0-66.3-29.7-66.3-66.3 0-36.6 29.7-66.3 66.3-66.3 36.6 0 66.3 29.7 66.3 66.3 0 36.6-29.7 66.3-66.3 66.3zm120 273.7c-26.5 0-48-21.5-48-48s21.5-48 48-48 48 21.5 48 48-21.5 48-48 48zm76-176c-22.1 0-40-17.9-40-40s17.9-40 40-40 40 17.9 40 40-17.9 40-40 40zm72-172c-28.7 0-52-23.3-52-52s23.3-52 52-52 52 23.3 52 52-23.3 52-52 52zm100-213.7c-36.6 0-66.3-29.7-66.3-66.3 0-36.6 29.7-66.3 66.3-66.3 36.6 0 66.3 29.7 66.3 66.3 0 36.6-29.7 66.3-66.3 66.3zm72 405.7c-22.1 0-40-17.9-40-40s17.9-40 40-40 40 17.9 40 40-17.9 40-40 40zm-96 152c-15.5 0-28-12.5-28-28s12.5-28 28-28 28 12.5 28 28-12.5 28-28 28zm176-322c-26.5 0-48-21.5-48-48s21.5-48 48-48 48 21.5 48 48-21.5 48-48 48zm82-203.1c-18.2 0-32.9-14.7-32.9-32.9 0-18.1 14.7-32.9 32.9-32.9 18.1 0 32.9 14.7 32.9 32.9 0 18.1-14.7 32.9-32.9 32.9z"/></svg>