<svg class="icon" viewBox="0 0 1024 1024" xmlns="http://www.w3.org/2000/svg" width="200" height="200"><defs><style/></defs><path d="M773.333 517.792l-260.448-65.12V277.333a85.333 85.333 0 00-170.666 0v284.651l-12.502-12.501a105.92 105.92 0 00-75.413-31.254h-1.11a105.888 105.888 0 00-75.871 32.843c-22.475 23.413-22.603 57.45-.832 86.037L363.2 903.99a106.763 106.763 0 0093.995 56h247.68a149.515 149.515 0 00149.333-149.333v-189.28a106.613 106.613 0 00-80.875-103.584zM427.552 149.344a21.323 21.323 0 0021.333-21.333V85.344a21.333 21.333 0 10-42.666 0v42.667a21.323 21.323 0 0021.333 21.333zm-191.99 127.99h42.667a21.333 21.333 0 100-42.667h-42.666a21.333 21.333 0 100 42.666zM555.553 256a21.323 21.323 0 0021.333 21.333h42.667a21.333 21.333 0 000-42.666h-42.667A21.323 21.323 0 00555.552 256zm-26.816-69.152a21.259 21.259 0 0015.083-6.25l30.165-30.166a21.333 21.333 0 10-30.165-30.165l-30.166 30.165a21.333 21.333 0 0015.083 36.416zm-217.45-6.261a21.333 21.333 0 0030.165-30.166l-30.166-30.165a21.333 21.333 0 00-30.165 30.176z"/></svg>