<svg class="icon" viewBox="0 0 1024 1024" xmlns="http://www.w3.org/2000/svg" width="200" height="200"><defs><style/></defs><path d="M772.672 517.792l-260.459-65.12V277.333a85.333 85.333 0 00-170.666 0v284.672l-12.502-12.501a105.92 105.92 0 00-75.413-31.253h-1.099a105.888 105.888 0 00-75.882 32.832c-22.475 23.413-22.603 57.461-.832 86.037L362.528 904a106.763 106.763 0 0094.005 56h247.68a149.515 149.515 0 00149.334-149.333V621.376a106.624 106.624 0 00-80.875-103.584zm38.208 292.875a106.773 106.773 0 01-106.667 106.666h-247.68a65.525 65.525 0 01-57.749-35.712L210.283 612c-5.44-7.168-13.067-20.747-2.838-31.37a63.435 63.435 0 0145.526-19.713h.661a63.467 63.467 0 0145.248 18.752l48.917 48.918a21.333 21.333 0 0036.416-15.083v-336.17a42.667 42.667 0 0185.334 0v192a21.344 21.344 0 0016.17 20.703l276.619 69.174a63.968 63.968 0 0148.544 62.165zm-384-661.334A21.323 21.323 0 00448.213 128V85.333a21.333 21.333 0 00-42.666 0V128a21.323 21.323 0 0021.333 21.333zm-192 128h42.667a21.333 21.333 0 100-42.666H234.88a21.333 21.333 0 000 42.666zm320-21.333a21.323 21.323 0 0021.333 21.333h42.667a21.333 21.333 0 000-42.666h-42.667A21.323 21.323 0 00554.88 256zm-26.805-69.163a21.27 21.27 0 0015.082-6.25l30.166-30.166a21.333 21.333 0 00-30.166-30.176l-30.165 30.176a21.333 21.333 0 0015.072 36.416zm-217.462-6.25a21.333 21.333 0 1030.166-30.166l-30.166-30.176a21.333 21.333 0 00-30.165 30.176z"/></svg>