<?xml version="1.0" standalone="no"?><!DOCTYPE svg PUBLIC "-//W3C//DTD SVG 1.1//EN" "http://www.w3.org/Graphics/SVG/1.1/DTD/svg11.dtd"><svg t="1594173902252" class="icon" viewBox="0 0 1024 1024" version="1.1" xmlns="http://www.w3.org/2000/svg" p-id="1303" xmlns:xlink="http://www.w3.org/1999/xlink" width="200" height="200"><defs><style type="text/css"></style></defs><path d="M773.333333 517.792l-260.448-65.12V277.333333a85.333333 85.333333 0 0 0-170.666666 0v284.650667l-12.501334-12.501333a105.92 105.92 0 0 0-75.413333-31.253334h-1.109333a105.888 105.888 0 0 0-75.872 32.842667c-22.474667 23.413333-22.602667 57.450667-0.832 86.037333L363.2 903.989333a106.762667 106.762667 0 0 0 93.994667 56h247.68a149.514667 149.514667 0 0 0 149.333333-149.333333V621.376a106.613333 106.613333 0 0 0-80.874667-103.584zM427.552 149.344a21.322667 21.322667 0 0 0 21.333333-21.333333v-42.666667a21.333333 21.333333 0 1 0-42.666666 0v42.666667a21.322667 21.322667 0 0 0 21.333333 21.333333zM235.562667 277.333333h42.666666a21.333333 21.333333 0 1 0 0-42.666666h-42.666666a21.333333 21.333333 0 1 0 0 42.666666zM555.552 256a21.322667 21.322667 0 0 0 21.333333 21.333333h42.666667a21.333333 21.333333 0 0 0 0-42.666666h-42.666667a21.322667 21.322667 0 0 0-21.333333 21.333333zM528.736 186.848a21.258667 21.258667 0 0 0 15.082667-6.250667l30.165333-30.165333a21.333333 21.333333 0 1 0-30.165333-30.165333l-30.165334 30.165333a21.333333 21.333333 0 0 0 15.082667 36.416zM311.285333 180.586667a21.333333 21.333333 0 0 0 30.165334-30.165334l-30.165334-30.165333a21.333333 21.333333 0 0 0-30.165333 30.176z" p-id="1304"></path></svg>