<svg class="icon" viewBox="0 0 1024 1024" xmlns="http://www.w3.org/2000/svg" width="200" height="200"><defs><style/></defs><path d="M0 512a512 512 0 101024 0A512 512 0 100 512z"/><path d="M512 504.686c-36.571-36.572-36.571-102.4 0-138.972s102.4-43.885 138.971 0c36.572 36.572 43.886 102.4 0 138.972s-95.085 36.571-138.971 0zm117.029-29.257c29.257-29.258 21.942-73.143 0-95.086-29.258-29.257-73.143-21.943-95.086 0-29.257 29.257-21.943 73.143 0 95.086 29.257 29.257 73.143 29.257 95.086 0zm-138.972 153.6l-73.143 73.142c14.629 14.629 21.943 43.886 0 65.829-14.628 14.629-43.885 21.943-65.828 0l-36.572 36.571s-43.885 7.315-65.828-14.628c-21.943-21.943-29.257-80.457-29.257-80.457l168.228-175.543c-43.886-80.457-29.257-182.857 36.572-256 21.942-21.943 51.2-43.886 87.771-51.2V256c-21.943 14.629-51.2 29.257-65.829 43.886C387.657 358.4 380.343 446.17 409.6 512l14.629 29.257L256 716.8s0 36.571 14.629 43.886C277.943 768 314.514 768 314.514 768l43.886-43.886 21.943 21.943c7.314 7.314 14.628 7.314 21.943 0 7.314-7.314 7.314-14.628 0-21.943l-29.257-21.943 109.714-109.714L512 607.086c73.143 29.257 153.6 14.628 204.8-43.886 73.143-73.143 65.829-197.486-7.314-263.314-21.943-29.257-51.2-43.886-80.457-51.2v-29.257c36.571 7.314 73.142 29.257 102.4 51.2 87.771 80.457 87.771 219.428 7.314 307.2-65.829 73.142-168.229 87.771-248.686 51.2z"/></svg>