<svg class="icon" viewBox="0 0 1024 1024" xmlns="http://www.w3.org/2000/svg" width="200" height="200"><defs><style/></defs><path d="M512 78.77c-261.908 0-470.646 192.984-470.646 431.26 0 74.832 21.661 145.724 57.108 208.74 5.907 9.845 7.876 21.66 3.938 33.476L41.354 919.631c-5.908 15.754 9.846 29.538 25.6 25.6l169.354-64.985c9.846-3.938 21.661-1.97 33.477 3.939 70.892 39.384 155.569 63.015 246.153 63.015 257.97-1.97 468.677-194.954 468.677-433.23C982.646 271.753 771.938 78.77 512 78.77zM322.954 582.891c-5.908 9.846-11.816 19.693-19.692 25.6s-17.724 11.816-29.539 15.754c-9.846 3.939-21.661 3.939-33.477 3.939-15.754 0-29.538-1.97-43.323-7.877-13.785-5.908-27.57-13.785-37.415-25.6l-3.939-3.939c-1.969-1.969 0-5.907 3.939-9.846l31.507-29.538c3.939-3.939 7.877-3.939 9.847-1.97s3.938 5.908 3.938 5.908c3.938 5.908 9.846 9.846 15.754 13.785 9.846 5.907 19.692 5.907 31.508 3.938 3.938 0 5.907-1.97 9.846-3.938l5.907-5.908c1.97-1.97 1.97-5.908 1.97-7.877 0-7.877-1.97-9.846-3.939-11.815-3.938-3.939-9.846-7.877-17.723-9.846s-15.754-5.908-25.6-7.877c-9.846-3.939-19.692-7.877-27.57-11.816-9.845-5.907-15.753-13.784-21.66-21.661-5.908-9.846-9.847-21.662-9.847-37.416 0-13.784 1.97-25.6 7.877-35.446 5.908-9.846 11.815-17.723 21.662-23.63 7.877-5.908 17.723-11.816 29.538-13.785 23.63-5.908 47.262-5.908 70.892 1.969 11.816 3.938 23.631 11.815 29.539 15.754l5.908 3.938c3.938 1.97 1.969 7.877-1.97 11.816l-29.538 29.538c-3.939 3.939-9.846 3.939-13.785 0-3.938-1.97-5.907-5.908-7.877-5.908-9.846-5.907-23.63-7.876-35.446-5.907-3.938 0-5.908 1.969-7.877 3.938l-5.907 5.908c-1.97 1.97-1.97 3.938-1.97 7.877 0 5.908 1.97 7.877 3.939 9.846 3.938 3.938 9.846 5.908 17.723 9.846 7.877 1.97 15.754 5.908 25.6 7.877 9.846 3.939 19.692 7.877 27.57 11.815 9.845 5.908 15.753 13.785 21.66 21.662 5.908 9.846 9.847 21.662 9.847 37.415 0 11.816-1.97 23.631-7.877 33.477zm326.892 27.57c0 11.815-9.846 19.692-21.661 19.692h-19.693c-11.815 0-17.723-7.877-17.723-19.692V494.277c0-11.815-15.754-13.785-19.692-3.939L537.6 578.954c-1.97 7.877-9.846 11.815-17.723 11.815h-13.785c-7.877 0-15.754-5.907-17.723-11.815l-35.446-88.616c-3.938-9.846-19.692-7.876-19.692 3.939v116.185c0 11.815-9.846 19.692-21.662 19.692h-19.692c-11.815 0-17.723-7.877-17.723-19.692V393.846c0-11.815 7.877-19.692 17.723-19.692h51.2c7.877 0 15.754 5.908 17.723 11.815l39.385 102.4c3.938 7.877 15.753 7.877 17.723 0l39.384-102.4c1.97-7.877 9.846-11.815 17.723-11.815h53.17c11.815 0 21.661 7.877 21.661 19.692v216.616zm206.77-25.6c-5.908 9.846-11.816 19.692-21.662 25.6-7.877 5.907-17.723 11.815-29.539 15.753s-21.661 3.939-33.477 3.939c-15.753 0-29.538-1.97-43.323-7.877-13.784-5.908-27.569-13.785-37.415-25.6l-3.938-3.939c-1.97-1.969 0-5.907 3.938-9.846l31.508-29.538c3.938-3.939 7.877-3.939 9.846-1.97s3.938 5.908 3.938 5.908c3.939 5.908 9.846 9.846 15.754 13.785 9.846 5.908 21.662 5.908 31.508 3.938 3.938-1.969 7.877-1.969 9.846-3.938l5.908-5.908s1.969-5.907 1.969-7.877c0-7.877-1.97-9.846-3.939-11.815-3.938-3.939-9.846-7.877-17.723-9.846s-15.753-5.908-25.6-7.877c-9.846-3.939-19.692-7.877-27.569-11.816-9.846-5.907-17.723-13.784-23.63-21.661-5.908-9.846-9.847-21.662-9.847-37.415 0-13.785 1.97-25.6 7.877-35.447 5.908-9.846 11.816-17.723 21.662-23.63 7.877-5.908 19.692-11.816 29.538-13.785 23.63-5.908 47.262-5.908 70.892 1.97 11.816 3.938 23.631 11.815 29.539 17.722l5.908 5.908c3.938 1.97 1.969 7.877-1.97 11.815l-29.538 29.539c-3.939 3.938-9.846 3.938-13.785 0-3.938-1.97-5.907-5.908-7.877-5.908-9.846-5.908-23.63-7.877-35.446-5.908-3.938 0-5.907 1.97-7.877 3.939l-5.907 5.908c-1.97 1.969-1.97 5.907-1.97 7.877 0 5.907 1.97 7.876 3.939 9.846 3.938 3.938 9.846 5.907 17.723 9.846 7.877 1.97 15.754 5.908 25.6 7.877 9.846 3.938 19.692 7.877 27.57 11.815 9.845 5.908 15.753 13.785 23.63 21.662 5.908 9.846 9.846 21.661 9.846 37.415 1.97 5.908 0 19.692-5.908 29.539z"/></svg>