<svg class="icon" viewBox="0 0 1560 1024" xmlns="http://www.w3.org/2000/svg" width="304.688" height="200"><defs><style/></defs><path d="M141.41 0h1275.123c80.457 0 143.848 63.39 143.848 138.971V885.03c0 78.019-63.39 138.971-141.41 138.971H141.41C63.39 1024 0 960.61 0 885.029V138.97C0 63.391 63.39 0 141.41 0z"/><path d="M1560.381 129.219v755.81-755.81z"/><path d="M275.505 126.781l29.257 82.895h87.771l-73.143 53.638 29.258 82.896-73.143-51.2-70.705 51.2 26.819-82.896-70.705-53.638h87.772zM472.99 46.324l4.877 31.695 31.695 7.314-29.257 12.19 2.438 34.134-21.943-24.38-29.257 14.628 14.628-29.257-21.942-24.381 31.695 7.314zm70.705 104.838l17.067 26.819 31.695-4.876-21.943 24.38 17.067 26.82-29.257-12.19-21.943 24.38 2.438-34.133-29.257-12.19 31.695-7.315zm-9.752 117.028l9.752 31.696h31.695l-26.819 19.504 9.753 31.696-24.381-19.505-26.82 19.505 9.753-31.696-24.38-21.942 31.694 2.438zm-63.39 92.648l-4.877 31.695 31.695 12.19-31.695 9.753-2.438 34.134-17.067-29.258-31.695 9.753 21.943-26.82-17.067-26.818 29.258 9.752z"/></svg>