<?xml version="1.0" standalone="no"?><!DOCTYPE svg PUBLIC "-//W3C//DTD SVG 1.1//EN" "http://www.w3.org/Graphics/SVG/1.1/DTD/svg11.dtd"><svg t="1592032752756" class="icon" viewBox="0 0 1024 1024" version="1.1" xmlns="http://www.w3.org/2000/svg" p-id="8656" xmlns:xlink="http://www.w3.org/1999/xlink" width="200" height="200"><defs><style type="text/css"></style></defs><path d="M683.221333 671.786667a25.301333 25.301333 0 0 1-10.154666-2.090667l-177.493334-76.245333a25.429333 25.429333 0 0 1 0-46.634667l177.493334-76.245333a25.301333 25.301333 0 0 1 20.010666 0l177.493334 76.245333a25.429333 25.429333 0 0 1 0 46.634667l-177.493334 76.245333a25.258667 25.258667 0 0 1-9.813333 2.090667z m-113.066666-101.674667l113.066666 48.64 113.066667-48.64-113.066667-48.554667-113.066666 48.554667zM505.728 341.418667a25.301333 25.301333 0 0 1-10.154667-2.133334l-177.493333-76.202666a25.429333 25.429333 0 0 1 0-46.677334l177.493333-76.245333a25.301333 25.301333 0 0 1 19.968 0l177.493334 76.245333a25.429333 25.429333 0 0 1 0 46.677334l-177.493334 76.245333a25.258667 25.258667 0 0 1-9.813333 2.090667z m-113.066667-101.674667l113.066667 48.597333 113.066667-48.597333-113.066667-48.597333-113.066667 48.64zM328.234667 595.541333a24.448 24.448 0 0 1-10.154667-2.090666l-177.493333-76.245334a25.429333 25.429333 0 0 1 0-46.634666l177.493333-76.245334a25.344 25.344 0 0 1 35.498667 23.338667v152.448a25.386667 25.386667 0 0 1-25.344 25.429333z m-113.109334-101.674666l87.722667 37.717333v-75.392l-87.722667 37.674667z" p-id="8657"></path><path d="M505.728 875.093333a24.448 24.448 0 0 1-10.154667-2.090666l-177.493333-76.245334a25.429333 25.429333 0 0 1-15.232-23.338666V239.786667a25.429333 25.429333 0 0 1 35.498667-23.338667l177.493333 76.245333c9.258667 4.053333 15.232 13.226667 15.232 23.338667v533.674667a25.386667 25.386667 0 0 1-25.344 25.429333z m-152.149333-118.442666l126.762666 54.485333V332.8L353.578667 278.272v478.378667z" p-id="8658"></path><path d="M328.234667 798.848a24.448 24.448 0 0 1-10.154667-2.090667l-177.493333-76.245333a25.429333 25.429333 0 0 1-15.232-23.296v-203.349333a25.386667 25.386667 0 0 1 35.498666-23.296l177.493334 76.245333c9.258667 4.010667 15.232 13.226667 15.232 23.296v203.306667a25.386667 25.386667 0 0 1-25.344 25.429333z m-152.149334-118.442667l126.762667 54.528v-148.053333l-126.762667-54.485333v148.053333zM505.728 595.541333a25.386667 25.386667 0 0 1-25.386667-25.429333V315.989333c0-10.112 5.973333-19.285333 15.232-23.338666l177.493334-76.245334a25.344 25.344 0 0 1 35.498666 23.338667v254.122667c0 10.154667-5.973333 19.285333-15.189333 23.338666l-177.493333 76.245334a24.448 24.448 0 0 1-10.154667 2.090666z m25.344-262.784v198.826667l126.805333-54.485333v-198.826667L531.072 332.8zM683.221333 951.338667a25.386667 25.386667 0 0 1-25.344-25.429334V646.4c0-10.112 5.973333-19.285333 15.189334-23.296l177.493333-76.245333a25.344 25.344 0 0 1 35.541333 23.296v279.552c0 10.154667-5.973333 19.285333-15.232 23.338666l-177.493333 76.245334a24.448 24.448 0 0 1-10.154667 2.090666z m25.344-288.213334v224.256l126.805334-54.485333v-224.256l-126.805334 54.485333z" p-id="8659"></path><path d="M683.221333 951.338667a24.448 24.448 0 0 1-10.154666-2.090667l-177.493334-76.245333a25.429333 25.429333 0 0 1-15.232-23.338667v-279.552a25.386667 25.386667 0 0 1 35.541334-23.296l177.493333 76.245333c9.258667 4.010667 15.232 13.226667 15.189333 23.296v279.552a25.386667 25.386667 0 0 1-25.344 25.429334z m-152.149333-118.442667l126.805333 54.485333v-224.256l-126.805333-54.485333v224.256z" p-id="8660"></path></svg>