<?xml version="1.0" standalone="no"?><!DOCTYPE svg PUBLIC "-//W3C//DTD SVG 1.1//EN" "http://www.w3.org/Graphics/SVG/1.1/DTD/svg11.dtd"><svg t="1592032776035" class="icon" viewBox="0 0 1024 1024" version="1.1" xmlns="http://www.w3.org/2000/svg" p-id="9383" xmlns:xlink="http://www.w3.org/1999/xlink" width="200" height="200"><defs><style type="text/css"></style></defs><path d="M482.473 701.324m-40 0a40 40 0 1 0 80 0 40 40 0 1 0-80 0Z" p-id="9384"></path><path d="M319.473 512.324m-30 0a30 30 0 1 0 60 0 30 30 0 1 0-60 0Z" p-id="9385"></path><path d="M244.473 771.324m-30 0a30 30 0 1 0 60 0 30 30 0 1 0-60 0Z" p-id="9386"></path><path d="M494 512m-69.985 0a69.985 69.985 0 1 0 139.97 0 69.985 69.985 0 1 0-139.97 0Z" p-id="9387"></path><path d="M661.457 309.552m-30 0a30 30 0 1 0 60 0 30 30 0 1 0-60 0Z" p-id="9388"></path><path d="M641.457 471.552m-30 0a30 30 0 1 0 60 0 30 30 0 1 0-60 0Z" p-id="9389"></path><path d="M333.716 660.324m-45 0a45 45 0 1 0 90 0 45 45 0 1 0-90 0Z" p-id="9390"></path><path d="M743 616.586m-45 0a45 45 0 1 0 90 0 45 45 0 1 0-90 0Z" p-id="9391"></path><path d="M783 355m-40 0a40 40 0 1 0 80 0 40 40 0 1 0-80 0Z" p-id="9392"></path><path d="M494.473 354.552m-45 0a45 45 0 1 0 90 0 45 45 0 1 0-90 0Z" p-id="9393"></path><path d="M813.473 217.552m-45 0a45 45 0 1 0 90 0 45 45 0 1 0-90 0Z" p-id="9394"></path><path d="M930 900H124V94c0-16.568-13.432-30-30-30S64 77.432 64 94v806c0 33.137 26.863 60 60 60h806c16.568 0 30-13.432 30-30s-13.432-30-30-30z" p-id="9395"></path></svg>