<?xml version="1.0" standalone="no"?><!DOCTYPE svg PUBLIC "-//W3C//DTD SVG 1.1//EN" "http://www.w3.org/Graphics/SVG/1.1/DTD/svg11.dtd"><svg t="1592032632160" class="icon" viewBox="0 0 1024 1024" version="1.1" xmlns="http://www.w3.org/2000/svg" p-id="5674" xmlns:xlink="http://www.w3.org/1999/xlink" width="200" height="200"><defs><style type="text/css"></style></defs><path d="M65.052087 951.845657l185.79045 0L250.842537 487.36902 65.052087 487.36902 65.052087 951.845657zM99.49555 522.857279l114.813932 0 0 394.543891L99.49555 917.40117 99.49555 522.857279z" p-id="5675"></path><path d="M296.767496 951.851796l185.79045 0L482.557946 638.71396 296.767496 638.71396 296.767496 951.851796zM331.211982 674.203242l114.813932 0L446.025914 917.40731 331.211982 917.40731 331.211982 674.203242z" p-id="5676"></path><path d="M841.92364 668.636456c52.457746 0 94.982258-42.525536 94.982258-94.982258 0-52.457746-42.525536-94.982258-94.982258-94.982258-13.753235 0-26.820855 2.926656-38.621623 8.18645L683.163823 321.68756c13.750165-16.476253 22.026666-37.678134 22.026666-60.815087 0-52.458769-42.526559-94.982258-94.983281-94.982258s-94.983281 42.524512-94.983281 94.982258c0 18.995633 5.581112 36.687574 15.186887 51.531654l-86.011956 88.635713c-15.471366-10.92891-34.352389-17.35118-54.735625-17.35118-16.006556 0-31.083949 3.965312-44.316322 10.957563L226.656695 231.466746c16.276708-17.049305 26.272363-40.145325 26.272363-65.576531 0-52.457746-42.524512-94.983281-94.982258-94.983281-52.456722 0-94.982258 42.525536-94.982258 94.983281 0 52.456722 42.525536 94.982258 94.982258 94.982258 13.473873 0 26.287713-2.812045 37.898145-7.869225l120.353089 165.464519c-13.44522 16.387225-21.517059 37.352723-21.517059 60.204174 0 52.457746 42.524512 94.982258 94.982258 94.982258 52.456722 0 94.982258-42.525536 94.982258-94.982258 0-18.472723-5.279237-35.709293-14.402011-50.2955l86.415139-89.051175c15.244192 10.426467 33.683147 16.529465 53.54859 16.529465 15.728216 0 30.562063-3.826142 43.62559-10.594289l118.843712 163.389254c-15.957437 16.993023-25.734104 39.854707-25.734104 65.00348C746.942405 626.111944 789.465894 668.636456 841.92364 668.636456zM900.373867 573.654198c0 32.281217-26.169009 58.45125-58.450227 58.45125s-58.450227-26.170033-58.450227-58.45125 26.169009-58.45125 58.450227-58.45125S900.373867 541.372981 900.373867 573.654198zM99.49555 165.890214c0-32.282241 26.170033-58.452273 58.45125-58.452273 32.281217 0 58.45125 26.170033 58.45125 58.452273 0 32.281217-26.169009 58.45125-58.45125 58.45125C125.665583 224.340441 99.49555 198.170408 99.49555 165.890214zM389.663232 537.122167c-32.281217 0-58.45125-26.169009-58.45125-58.450227s26.169009-58.45125 58.45125-58.45125c32.281217 0 58.45125 26.170033 58.45125 58.45125S421.94445 537.122167 389.663232 537.122167zM551.755957 260.872472c0-32.281217 26.169009-58.45125 58.45125-58.45125s58.45125 26.170033 58.45125 58.45125-26.169009 58.450227-58.45125 58.450227S551.755957 293.15369 551.755957 260.872472z" p-id="5677"></path><path d="M540.276509 952.373683l185.79045 0L726.066959 719.607338 540.276509 719.607338 540.276509 952.373683zM574.719972 755.095597l114.813932 0 0 162.834622L574.719972 917.930219 574.719972 755.095597z" p-id="5678"></path><path d="M771.990894 800.499693 771.990894 952.373683l185.791473 0L957.782368 800.499693 771.990894 800.499693zM921.25136 917.930219 806.434358 917.930219l0-81.942267 114.815979 0L921.250336 917.930219z" p-id="5679"></path></svg>