<?xml version="1.0" standalone="no"?><!DOCTYPE svg PUBLIC "-//W3C//DTD SVG 1.1//EN" "http://www.w3.org/Graphics/SVG/1.1/DTD/svg11.dtd"><svg t="1592032792796" class="icon" viewBox="0 0 1027 1024" version="1.1" xmlns="http://www.w3.org/2000/svg" p-id="10159" xmlns:xlink="http://www.w3.org/1999/xlink" width="200.5859375" height="200"><defs><style type="text/css"></style></defs><path d="M655.36 750.933333c-6.826667-6.826667-17.066667-10.24-23.893333-3.413333-40.96 27.306667-88.746667 40.96-136.533334 40.96-139.946667 0-256-116.053333-256-256 0-116.053333 78.506667-218.453333 191.146667-249.173333 6.826667-3.413333 13.653333-10.24 13.653333-17.066667v-208.213333c0-10.24-6.826667-17.066667-17.066666-17.066667h-6.826667C180.906667 75.093333 0 286.72 0 529.066667 0 802.133333 221.866667 1024 494.933333 1024c98.986667 0 194.56-30.72 276.48-85.333333 3.413333-3.413333 6.826667-6.826667 6.826667-10.24 0-3.413333 0-10.24-3.413333-13.653334L655.36 750.933333zM529.066667 238.933333c139.946667 0 256 116.053333 256 256 0 10.24 6.826667 17.066667 17.066666 17.066667h204.8c10.24 0 17.066667-6.826667 17.066667-17.066667C1024 221.866667 802.133333 0 529.066667 0c-10.24 0-17.066667 6.826667-17.066667 17.066667v204.8c0 10.24 6.826667 17.066667 17.066667 17.066666z" fill="" p-id="10160"></path><path d="M1006.933333 546.133333h-204.8c-10.24 0-17.066667 6.826667-17.066666 17.066667 0 81.92-44.373333 139.946667-78.506667 174.08-6.826667 6.826667-6.826667 17.066667 0 23.893333l136.533333 153.6c3.413333 3.413333 6.826667 6.826667 13.653334 10.24h3.413333c3.413333 0 6.826667 0 10.24-3.413333 98.986667-92.16 157.013333-221.866667 157.013333-358.4-3.413333-10.24-10.24-17.066667-20.48-17.066667z" fill="" p-id="10161"></path></svg>