<svg width="128" height="128" viewBox="0 0 1024 1024" xmlns="http://www.w3.org/2000/svg"><path d="M515.2 767.104c4.48 3.2 9.728 4.864 14.976 4.864 5.376 0 10.624-1.664 15.104-4.992 8.704-6.272 210.432-156.416 210.432-323.072 0-124.288-101.248-225.408-225.536-225.408S304.64 319.616 304.64 443.904c0 170.112 201.984 317.056 210.56 323.2z m14.976-497.408c96.128 0 174.336 78.208 174.336 174.208 0 116.992-129.664 233.216-174.464 269.952C485.12 677.76 355.84 563.456 355.84 443.904c0-96 78.208-174.208 174.336-174.208zM720.64 738.944c-12.416 14.72-25.088 28.672-37.376 41.728 38.4 10.624 52.736 22.4 55.808 26.88-6.272 10.368-48.128 30.848-125.312 40.064-24.32 2.944-52.224 4.736-83.584 4.736-32 0-60.16-1.792-84.864-4.864-76.416-9.216-117.76-29.568-124.032-39.936 3.072-4.608 17.152-15.872 54.4-26.624-12.288-13.056-24.832-26.752-37.376-41.344-55.808 20.736-68.608 47.616-68.608 67.968 0 72.832 151.168 94.336 248.832 95.872h0.128c3.968 0.128 7.808 0.128 11.52 0.128 3.84 0 7.68 0 11.648-0.128h0.128c97.664-1.536 248.704-23.04 248.704-95.872 0-28.672-23.552-51.712-70.016-68.608z"></path></svg>