<svg width="128" height="128" viewBox="0 0 1024 1024" xmlns="http://www.w3.org/2000/svg"><path d="M512 734.72c-178.432 0-323.584-145.152-323.584-323.584C188.416 232.704 333.568 87.552 512 87.552c178.432 0 323.584 145.152 323.584 323.584C835.584 589.568 690.432 734.72 512 734.72z m0-595.968c-150.144 0-272.384 122.24-272.384 272.384S361.856 683.52 512 683.52s272.384-122.24 272.384-272.384S662.144 138.752 512 138.752zM645.632 758.4v128.768l-118.784-84.864c-8.96-6.4-20.864-6.4-29.824 0l-118.656 84.864V758.4c-17.792-7.296-34.944-15.872-51.2-25.856V936.96c0 9.6 5.376 18.432 13.824 22.784a25.9072 25.9072 0 0 0 26.624-1.92L512 854.784l144.384 103.168a25.6 25.6 0 0 0 40.448-20.864V732.672c-16.256 9.856-33.408 18.56-51.2 25.728z"></path></svg>