<svg width="128" height="128" viewBox="0 0 1024 1024" xmlns="http://www.w3.org/2000/svg"><path d="M503.936 870.784c-35.968 0-65.28-29.312-65.28-65.28h-51.2c0 64.256 52.224 116.48 116.48 116.48s116.48-52.224 116.48-116.48h-51.2c0 36.096-29.312 65.28-65.28 65.28zM772.736 584.832V423.296c0-125.696-84.864-232.192-204.928-260.992v-16.64c0-35.2-28.672-63.872-63.872-63.872s-63.872 28.672-63.872 63.872v16.64c-119.936 28.8-204.928 135.296-204.928 260.992v161.536c-50.56 5.76-89.984 48.896-89.984 100.992 0 55.936 45.568 101.504 101.504 101.504h514.432c55.936 0 101.504-45.568 101.504-101.504 0.128-52.096-39.296-95.232-89.856-100.992z m-11.52 151.296H246.784a50.304 50.304 0 0 1-50.304-50.304 50.432 50.432 0 0 1 50.304-50.432h14.08c14.08 0 25.6-11.52 25.6-25.6V423.296c0-107.776 77.056-198.144 183.296-214.656a25.536 25.536 0 0 0 21.632-26.24v-36.736c0-6.912 5.632-12.672 12.672-12.672 6.912 0 12.672 5.632 12.672 12.672v36.352c-0.768 13.056 8.576 24.704 21.632 26.624 106.24 16.64 183.296 106.88 183.296 214.656v186.496c0 14.08 11.52 25.6 25.6 25.6h14.08a50.432 50.432 0 0 1 50.304 50.432 50.5088 50.5088 0 0 1-50.432 50.304z"></path></svg>