<svg width="128" height="128" viewBox="0 0 1024 1024" xmlns="http://www.w3.org/2000/svg"><path d="M819.2 260.992h-99.584c-98.56 0-171.648 41.728-208.256 114.176-35.84-73.088-108.672-114.176-209.152-114.176h-97.664c-38.784 0-71.552 32.768-71.552 71.552v486.272c0 32.64 25.6 58.112 58.112 58.112H426.24a125.6576 125.6576 0 0 0 92.16 40.192c34.432 0 68.608-15.104 92.288-40.192h221.696c32.64 0 58.112-25.6 58.112-58.112V332.544c0.256-38.784-32.512-71.552-71.296-71.552z m20.352 557.824c0 5.504-4.608 6.912-6.912 6.912H599.168c-8.064 0-15.616 3.84-20.48 10.24-13.696 18.176-37.248 29.952-59.904 29.952-23.808 0-45.184-10.752-60.16-30.208-4.864-6.272-12.288-9.984-20.352-9.984H191.36c-5.504 0-6.912-4.48-6.912-6.912V332.544c0-10.88 9.472-20.352 20.352-20.352h97.664c159.232 0 183.04 114.688 183.04 183.04V632.32c0 14.08 11.52 25.6 25.6 25.6s25.6-11.52 25.6-25.6V495.36c0-55.04 17.792-183.04 183.04-183.04H819.2c10.88 0 20.352 9.472 20.352 20.352v486.144z"></path></svg>