<svg width="128" height="128" viewBox="0 0 1024 1024" xmlns="http://www.w3.org/2000/svg"><path d="M433.152 146.176L154.88 275.712a37.2224 37.2224 0 0 0-21.504 33.792v571.776h352.896V179.968c0-27.264-28.416-45.312-53.12-33.792z m-31.104 437.376H217.472v-62.464h184.704v62.464z m0-127.488H217.472v-62.464h184.704v62.464zM892.8 499.456L614.4 369.92c-24.704-11.52-52.992 6.528-52.992 33.792v477.568h352.896v-348.16a37.12 37.12 0 0 0-21.504-33.664z m-62.592 155.648H645.504V592.64h184.704v62.464z"></path></svg>