<svg width="128" height="128" viewBox="0 0 1024 1024" xmlns="http://www.w3.org/2000/svg"><path d="M542.464 123.648c-174.592 0-316.16 141.568-316.16 316.16 0 174.592 141.568 316.16 316.16 316.16 174.592 0 316.16-141.568 316.16-316.16 0-174.72-141.568-316.16-316.16-316.16z m-169.344 136.96c0-20.608 16.64-37.248 37.248-37.248s37.248 16.64 37.248 37.248-16.64 37.248-37.248 37.248-37.248-16.64-37.248-37.248z m169.344 311.424c-73.088 0-132.224-59.264-132.224-132.224 0-73.088 59.264-132.224 132.224-132.224 73.088 0 132.224 59.264 132.224 132.224s-59.264 132.224-132.224 132.224zM778.752 720.64c-57.856 65.28-142.208 106.752-236.416 106.752-92.544 0-175.488-39.936-233.216-103.296L251.008 857.6c-10.752 24.832 10.496 46.464 47.872 46.464h491.52c37.504 0 58.752-21.632 47.872-46.464l-59.52-136.96z"></path></svg>