<svg width="128" height="128" viewBox="0 0 1024 1024" xmlns="http://www.w3.org/2000/svg"><path d="M788.608 791.936H204.672c-49.152 0-89.088-39.936-89.088-89.088V372.864c0-49.152 39.936-89.088 89.088-89.088h126.464l16.512-61.696c7.168-27.136 31.872-46.08 59.904-46.08h178.176c28.032 0 52.736 18.944 59.904 46.08l16.512 61.696h126.464c49.152 0 89.088 39.936 89.088 89.088v329.984c0 49.152-39.936 89.088-89.088 89.088z m-583.936-456.96c-20.864 0-37.888 17.024-37.888 37.888v329.984c0 20.864 17.024 37.888 37.888 37.888h583.936c20.864 0 37.888-17.024 37.888-37.888V372.864c0-20.864-17.024-37.888-37.888-37.888H642.432c-11.648 0-21.76-7.808-24.704-18.944l-21.504-80.64a10.8288 10.8288 0 0 0-10.496-8.064H407.552c-4.864 0-9.216 3.328-10.496 8.064l-21.504 80.64a25.472 25.472 0 0 1-24.704 18.944H204.672zM496.64 681.472c-83.2 0-150.912-67.712-150.912-150.912S413.44 379.648 496.64 379.648s150.912 67.712 150.912 150.912S579.84 681.472 496.64 681.472z m0-250.624c-55.04 0-99.712 44.672-99.712 99.712s44.672 99.712 99.712 99.712 99.712-44.672 99.712-99.712-44.672-99.712-99.712-99.712z"></path></svg>