<svg width="128" height="128" viewBox="0 0 1024 1024" xmlns="http://www.w3.org/2000/svg"><path d="M753.28 852.608H300.544c-112.896 0-204.8-91.904-204.8-204.8 0-105.472 80.768-193.024 183.68-203.648a254.9888 254.9888 0 0 1 243.456-177.536c112 0 209.28 71.68 243.2 176.768 107.008 6.656 192 95.744 192 204.416 0 113.024-91.904 204.8-204.8 204.8z m-230.4-534.784c-94.848 0-176.64 64.512-198.912 156.8l-4.736 19.456-19.968 0.128c-83.968 0.64-152.32 69.504-152.32 153.6 0 84.736 68.864 153.6 153.6 153.6h452.736c84.736 0 153.6-68.864 153.6-153.6s-68.864-153.6-153.6-153.6c-0.768 0-1.408 0.128-2.176 0.128l-24.448 1.024-4.864-20.352c-22.144-92.544-103.936-157.184-198.912-157.184z"></path></svg>