<svg width="128" height="128" viewBox="0 0 1024 1024" xmlns="http://www.w3.org/2000/svg"><path d="M770.688 915.456c-1.152 0-2.176-0.128-3.328-0.256L231.68 845.44c-50.432-5.632-90.24-51.968-90.24-105.216V379.008c0-53.376 39.808-99.584 90.752-105.344l535.296-69.888c1.152-0.128 2.176-0.256 3.328-0.256 61.696 0 111.872 53.888 111.872 119.936v471.936c-0.128 66.304-50.304 120.064-112 120.064z m1.536-660.608l-533.888 69.632c-25.344 2.816-45.696 27.264-45.696 54.528v361.088c0 27.264 20.352 51.584 45.312 54.4l534.4 69.76c32.768-0.896 59.136-31.36 59.136-68.736V323.584c-0.128-37.376-26.496-67.84-59.264-68.736zM634.752 528.768l-143.872-92.8c-23.68-13.696-53.376 3.456-53.376 30.848v185.6c0 27.392 29.696 44.544 53.376 30.848l143.872-92.8c23.68-13.824 23.68-48 0-61.696z"></path></svg>