<svg width="128" height="128" viewBox="0 0 1024 1024" xmlns="http://www.w3.org/2000/svg"><path d="M383.616 456.96h134.912v51.2H383.616zM383.616 566.016h134.912v51.2H383.616zM868.736 854.912V525.312c0-37.632-30.592-68.352-68.352-68.352h-110.592v51.2h110.592c9.472 0 17.152 7.68 17.152 17.152v329.6H649.6V349.184c0-42.368-34.432-76.8-76.8-76.8H329.216c-42.368 0-76.8 34.432-76.8 76.8v505.728h-28.032v51.2H895.488v-51.2h-26.752z m-565.12 0V349.184c0-14.08 11.52-25.6 25.6-25.6h243.584c14.08 0 25.6 11.52 25.6 25.6v505.728H303.616z"></path></svg>