<svg width="128" height="128" viewBox="0 0 1024 1024" xmlns="http://www.w3.org/2000/svg"><path d="M389.504 73.856c-97.28 0-176.256 78.848-176.256 176.256S292.224 426.24 389.504 426.24 565.76 347.392 565.76 249.984 486.912 73.856 389.504 73.856z m108.16 141.568l-104.704 104.704c-1.536 1.536-3.456 2.304-5.248 3.456-0.384 0.512-0.512 1.024-1.024 1.536-5.888 5.888-13.696 8.832-21.504 8.832-7.808 0-15.488-2.944-21.504-8.832l-62.336-62.336a30.208 30.208 0 0 1 0-42.88 30.208 30.208 0 0 1 42.88 0l41.472 41.472 88.832-88.832c11.904-11.904 31.104-11.904 42.88 0s12.032 31.104 0.256 42.88zM804.608 871.68V212.224c0-45.312-37.12-82.432-82.432-82.432H568.448c10.24 15.616 18.432 32.512 24.32 50.56h125.184c16 0 29.056 13.056 29.056 29.056v545.024c0 16-13.056 29.056-29.056 29.056H328.064c-16 0-29.056-13.056-29.056-29.056V437.12c-21.376-10.368-40.96-24.064-57.6-40.576V871.68c0 45.312 37.12 82.432 82.432 82.432h398.464c45.184 0 82.304-37.12 82.304-82.432z m-324.48-6.784a42.752 42.752 0 1 1 85.504 0 42.752 42.752 0 0 1-85.504 0z"></path></svg>