<svg width="128" height="128" viewBox="0 0 1024 1024" xmlns="http://www.w3.org/2000/svg"><path d="M180.352 347.904l305.024 195.328a60.224 60.224 0 0 0 65.536 0l305.024-195.328c19.584-12.544 19.584-42.624 0-55.296L550.912 97.408a60.224 60.224 0 0 0-65.536 0L180.352 292.608c-19.584 12.544-19.584 42.752 0 55.296zM168.704 533.888l305.024 195.328c13.696 8.832 29.056 13.184 44.416 13.184 15.36 0 30.72-4.352 44.416-13.184l305.024-195.328c10.624-6.784 14.08-21.504 7.552-32.768s-20.352-14.848-30.976-8.064L539.264 688.384c-13.056 8.32-29.184 8.32-42.24 0L192.128 493.056c-10.624-6.784-24.576-3.2-30.976 8.064-6.528 11.264-3.072 25.984 7.552 32.768zM844.288 674.944L539.264 870.272c-13.056 8.32-29.184 8.32-42.24 0L192.128 674.944c-10.624-6.784-24.576-3.2-30.976 8.064s-3.072 25.984 7.552 32.768l305.024 195.328c13.696 8.832 29.056 13.184 44.416 13.184 15.36 0 30.72-4.352 44.416-13.184l305.024-195.328c10.624-6.784 14.08-21.504 7.552-32.768s-20.224-14.848-30.848-8.064z"></path></svg>