<svg width="128" height="128" viewBox="0 0 1024 1024" xmlns="http://www.w3.org/2000/svg"><path d="M337.152 276.736v69.504l2.944 3.2c2.816 3.072 5.76 6.016 8.704 8.832v34.432h0.128c2.816 78.208 76.032 141.184 165.76 141.184 89.6 0 162.816-62.848 165.76-141.184h0.128v-34.432c2.944-2.816 5.888-5.76 8.704-8.832l2.944-3.2v-69.504l84.096-40.576c9.344-5.76 9.344-21.632 0-27.392L527.744 88.832c-8.192-5.12-17.92-5.12-26.112 0l-248.576 119.936c-9.344 5.76-9.344 21.632 0 27.392l84.096 40.576z m308.224 111.104c0 61.056-58.624 110.72-130.688 110.72S384 448.896 384 387.84v-2.816c35.584 21.376 78.848 32.256 130.816 32.896 51.712-0.64 94.848-11.52 130.56-32.896v2.816z m-286.208-100.48l142.464 68.736c8.192 5.12 17.92 5.12 26.112 0l142.464-68.736v50.048c-6.912 7.168-14.336 13.568-22.272 19.328h-2.688v1.792c-34.304 24.32-77.44 36.608-130.56 37.248-53.376-0.64-96.512-12.928-130.816-37.248v-1.792h-2.432c-7.936-5.76-15.36-12.288-22.272-19.328v-50.048zM821.632 682.496l-44.928-54.144c-39.04-36.736-89.6-64.384-146.688-78.592l-35.328 0.128-80 132.48L435.072 550.4l-38.272 0.128c-131.584 33.792-227.456 138.624-227.456 262.656v50.816c0 24.96 23.552 45.184 52.48 45.184h75.264v-54.4c0-8.448 6.912-15.36 15.36-15.36 8.448 0 15.36 6.912 15.36 15.36v54.4h365.056v-58.88c0-8.448 6.912-15.36 15.36-15.36 8.448 0 15.36 6.912 15.36 15.36v58.88h83.84c29.056 0 52.48-20.224 52.48-45.184v-50.816c0.256-47.36-13.696-91.776-38.272-130.688z"></path></svg>