<svg width="128" height="128" viewBox="0 0 1024 1024" xmlns="http://www.w3.org/2000/svg"><path d="M339.2 441.728c9.472 37.632 28.288 72.192 54.912 100.48 23.552 25.088 54.912 40.832 89.472 45.568h6.4c34.56-6.272 67.456-23.552 92.544-48.64 25.088-28.288 42.368-61.184 51.84-98.816 11.008-6.272 18.816-17.28 23.552-28.288 6.272-17.28 9.472-36.096 7.808-54.912v-9.472l-7.808-4.736c-1.536 0-1.536-1.536-3.2-1.536-14.08-127.104-14.08-202.496-160.128-180.48-56.448-20.352-108.288-7.808-139.648 15.744-40.832 37.632-43.904 95.744-32.896 163.2-3.2 1.536-4.736 3.2-7.808 4.736l-7.808 4.736v9.472c-1.536 18.816 1.536 37.632 7.808 54.912 4.48 10.752 13.952 20.096 24.96 28.032z m23.552-70.656c0-1.536 1.536-3.2 1.536-4.736v-3.2c3.2-9.472 4.736-70.656 7.808-80 0-3.2 1.536-6.272 3.2-7.808 12.544 15.744 102.016 18.816 153.856-18.816L519.68 281.6l9.472 1.536 11.008-17.28-1.536 12.544 11.008 1.536 6.272-20.352c12.544 7.808 26.624 17.28 39.296 12.544 4.736 9.472 7.808 68.992 9.472 80l3.2 14.08h4.736l1.536 7.808c4.736 0 11.008-1.536 15.744-1.536 0 9.472-1.536 17.28-4.736 26.624-1.536 6.272-6.272 11.008-12.544 14.08l-7.808 3.2-1.536 7.808c-7.808 34.56-23.552 65.92-45.568 91.008-18.816 20.352-43.904 32.896-72.192 39.296-26.624-4.736-50.176-17.28-67.456-36.096-23.552-26.624-40.832-58.112-48.64-94.208l-1.536-9.472-9.472-3.2c-6.272-3.2-11.008-7.808-12.544-14.08-3.2-9.472-4.736-17.28-6.272-26.624 7.424-1.28 15.232-1.28 23.168 0.256zM483.584 612.736l-53.376 54.912 26.624 54.912-12.544 33.024 37.632 73.728 40.832-75.264-11.008-31.488 26.752-54.912zM626.304 582.912l-98.816 180.48-40.832 76.928 11.008 20.352h293.504c29.824 0 42.368-28.288 42.368-58.112 1.536-101.888-207.232-219.648-207.232-219.648zM439.552 768.128l-97.28-185.216s-207.104 111.488-207.104 219.776c0 29.824 12.544 58.112 42.368 58.112h310.784l-11.008-18.816-37.76-73.856z"></path></svg>