<svg width="128" height="128" viewBox="0 0 1024 1024" xmlns="http://www.w3.org/2000/svg"><path d="M854.784 728.576H659.584c-10.624 0-19.2 8.576-19.2 19.2s8.576 19.2 19.2 19.2h195.2c10.624 0 19.2-8.576 19.2-19.2s-8.576-19.2-19.2-19.2zM854.784 614.144H659.584c-10.624 0-19.2 8.576-19.2 19.2s8.576 19.2 19.2 19.2h195.2c10.624 0 19.2-8.576 19.2-19.2s-8.576-19.2-19.2-19.2zM640.384 518.912c0 10.624 8.576 19.2 19.2 19.2h195.2c10.624 0 19.2-8.576 19.2-19.2s-8.576-19.2-19.2-19.2H659.584c-10.624 0-19.2 8.576-19.2 19.2zM739.072 200.832H151.296c-27.648 0-42.496 32.256-24.704 53.376l215.936 254.848 16.896 17.792v248.192c0 19.84 11.776 37.632 30.08 45.312l102.4 43.392c20.864 8.832 43.904-6.4 43.904-29.056V525.056l228.096-271.104c17.792-20.992 2.816-53.12-24.832-53.12z"></path></svg>