<svg width="128" height="128" viewBox="0 0 1024 1024" xmlns="http://www.w3.org/2000/svg"><path d="M736 623.104c-23.168-3.2-32 9.6-32 9.6-3.328-12.16-13.952-32-39.168-32.768-32 0-42.368 19.2-42.368 19.2s-9.6-32.768-40.832-32.768-46.08 26.368-46.08 26.368 1.28-117.632 1.28-132.736c0-21.248-9.984-42.624-32-42.624-22.144 0-35.968 19.456-34.816 42.624v282.496l-56.576-46.464c-28.928-28.928-75.904-17.024-94.976-5.76-26.368 16.128-0.768 48.896 24.32 68.224l134.528 152.704h196.48s60.8-47.232 69.504-114.944l16.384-144.64c3.2-22.4-0.512-45.312-23.68-48.512zM618.624 403.84c0.768-4.864 1.152-9.856 1.152-14.848 0-52.736-42.88-95.744-95.744-95.744-52.736 0-95.744 42.88-95.744 95.744 0 11.904 2.176 23.552 6.4 34.56l31.232-12.032c-2.816-7.168-4.224-14.72-4.224-22.528a62.272 62.272 0 0 1 124.544 0c0 3.328-0.256 6.528-0.768 9.6l33.152 5.248zM369.536 608.896l27.648-37.76c-55.424-40.576-88.576-105.6-88.576-174.08 0-118.784 96.64-215.424 215.424-215.424 118.784 0 215.424 96.64 215.424 215.424 0 37.376-9.728 74.112-28.032 106.368l40.704 23.168c22.4-39.296 34.176-84.096 34.176-129.536 0-144.64-117.632-262.272-262.272-262.272-144.64 0-262.272 117.632-262.272 262.272 0 83.328 40.32 162.56 107.776 211.84z"></path></svg>