<svg width="128" height="128" viewBox="0 0 1024 1024" xmlns="http://www.w3.org/2000/svg"><path d="M828.288 705.28l-120.32-476.416a27.264 27.264 0 0 0-26.496-20.608H284.416c-12.544 0-23.424 8.448-26.496 20.608l-120.32 476.416v183.296c0 7.552 6.144 13.696 13.696 13.696h663.552c7.552 0 13.696-6.144 13.696-13.696l-0.256-183.296z m-239.36-48.256c-13.184 46.336-55.424 80.512-106.112 80.512-50.688 0-92.8-34.176-106.112-80.512H199.424l101.248-400.512h364.416l101.248 400.512H588.928zM559.36 406.016h70.272l-14.08-48.256h-257.28l-14.08 48.256h70.272zM632.576 461.696H328.576l-9.984 48.128h336.64l-9.984-48.128z"></path></svg>