<svg width="128" height="128" viewBox="0 0 1024 1024" xmlns="http://www.w3.org/2000/svg"><path d="M613.504 261.12c-85.376-85.376-209.792-107.648-315.648-67.2L445.44 341.632a34.9184 34.9184 0 0 1 0 49.28l-121.472 121.472a34.9184 34.9184 0 0 1-49.28 0L127.104 364.672c-40.448 105.856-18.176 230.4 67.2 315.648 85.376 85.376 209.792 107.648 315.648 67.2l124.8 124.8c47.104 47.104 123.648 47.104 170.752 0 47.104-47.104 47.104-123.648 0-170.752l-124.8-124.8c40.576-105.856 18.176-230.272-67.2-315.648z"></path></svg>