<svg width="128" height="128" viewBox="0 0 1024 1024" xmlns="http://www.w3.org/2000/svg"><path d="M578.944 900.352c-6.144 0-12.416-1.28-18.304-3.712l-156.032-66.304a67.3792 67.3792 0 0 1-41.088-62.208V500.864L127.488 222.464a44.288 44.288 0 0 1-6.4-47.744 44.1856 44.1856 0 0 1 40.576-25.856h665.728c17.664 0 33.152 9.984 40.576 25.856s4.992 34.304-6.4 47.744L625.664 500.864v352.64c0 15.744-7.808 30.336-20.992 39.04-7.68 5.12-16.768 7.808-25.728 7.808zM175.616 200.064l232.832 274.944c3.968 4.608 6.016 10.496 6.016 16.512v276.608c0 6.528 3.84 12.416 9.984 14.976l150.016 63.616V491.52c0-6.016 2.176-11.904 6.016-16.512l232.832-274.944H175.616zM718.208 756.48h197.376v51.2H718.208zM718.208 635.008h197.376v51.2H718.208zM720.768 513.536h197.376v51.2H720.768z"></path></svg>