<svg width="128" height="128" viewBox="0 0 1024 1024" xmlns="http://www.w3.org/2000/svg"><path d="M796.672 880.128H388.224c-17.92 0-32.512-14.592-32.512-32.512V419.84c0-6.144 0-17.792 98.688-245.12 0.256-0.512 0.512-1.024 0.64-1.408 19.84-38.912 56.704-55.424 98.432-44.416 48.384 12.8 100.736 65.664 98.176 121.088v143.232h215.808a63.5264 63.5264 0 0 1 62.72 73.088l-65.664 356.224c-4.736 33.024-33.408 57.6-67.84 57.6z m-389.76-51.2h389.888c8.832 0 16.256-6.4 17.536-15.104l65.536-356.224c0.64-4.096-1.664-7.424-2.944-9.088a11.904 11.904 0 0 0-9.344-4.224H626.176c-14.08 0-25.6-11.52-25.6-25.6V248.704c1.152-27.264-29.184-62.208-60.16-70.4-18.048-4.736-30.592 0.896-39.424 17.664-36.096 83.2-88.064 205.696-94.208 226.56v406.4z m-0.384-405.12zM381.312 880.128H216.576c-32.256 0-58.368-26.24-58.368-58.368V443.008c0-32.256 26.24-58.368 58.368-58.368h164.736c14.08 0 25.6 11.52 25.6 25.6v444.288a25.6 25.6 0 0 1-25.6 25.6zM216.576 435.84a7.168 7.168 0 0 0-7.168 7.168V821.76c0 3.968 3.2 7.168 7.168 7.168h139.136V435.84H216.576z"></path></svg>