<svg width="128" height="128" viewBox="0 0 1024 1024" xmlns="http://www.w3.org/2000/svg"><path d="M883.968 741.888l-107.52-432a57.3696 57.3696 0 0 0-55.808-43.648H304.128c-26.496 0-49.408 17.92-55.808 43.648L140.8 741.888c-4.352 17.536-0.512 35.84 10.624 50.048a58.0992 58.0992 0 0 0 45.952 22.4h629.888c18.048 0 34.816-8.192 45.952-22.4 11.264-14.208 15.104-32.512 10.752-50.048zM285.568 319.232c2.176-8.576 9.728-14.464 18.56-14.464h416.384c8.832 0 16.384 6.016 18.56 14.464l64.64 259.456H630.272l-53.376 76.8H434.304l-59.776-76.8h-153.6l64.64-259.456z"></path></svg>