<svg width="128" height="128" viewBox="0 0 1024 1024" xmlns="http://www.w3.org/2000/svg"><path d="M962.048 491.776L611.712 141.568C594.816 124.544 572.16 115.2 548.224 115.2s-46.592 9.344-63.488 26.368L134.4 491.776a47.5648 47.5648 0 0 0-10.368 51.84c7.424 17.792 24.704 29.44 43.904 29.44h63.744v247.808c0 30.72 24.96 55.808 55.808 55.808h194.432V663.296h132.608v213.376H808.96c30.72 0 55.808-24.96 55.808-55.808V573.056h63.744c19.328 0 36.608-11.52 43.904-29.44 7.296-17.792 3.2-38.144-10.368-51.84z"></path></svg>