<svg width="128" height="128" viewBox="0 0 1024 1024" xmlns="http://www.w3.org/2000/svg"><path d="M516.864 270.336c-119.04 0-215.424 96.512-215.424 215.424 0 119.04 96.512 215.424 215.424 215.424 119.04 0 215.424-96.512 215.424-215.424s-96.512-215.424-215.424-215.424zM638.464 748.288h-243.2c-14.08 0-25.6 11.52-25.6 25.6s11.52 25.6 25.6 25.6h243.2c14.08 0 25.6-11.52 25.6-25.6s-11.52-25.6-25.6-25.6zM593.664 831.488h-153.6c-14.08 0-25.6 11.52-25.6 25.6s11.52 25.6 25.6 25.6h153.6c14.08 0 25.6-11.52 25.6-25.6s-11.52-25.6-25.6-25.6zM516.864 201.984c14.08 0 25.6-11.52 25.6-25.6V106.24c0-14.08-11.52-25.6-25.6-25.6s-25.6 11.52-25.6 25.6v70.144c0 14.208 11.392 25.6 25.6 25.6zM321.536 282.88c9.984-9.984 9.984-26.24 0-36.224l-49.664-49.664c-9.984-9.984-26.24-9.984-36.224 0-9.984 9.984-9.984 26.24 0 36.224l49.664 49.664a25.5104 25.5104 0 0 0 36.224 0zM215.04 452.608h-70.144c-14.08 0-25.6 11.52-25.6 25.6s11.52 25.6 25.6 25.6h70.144c14.08 0 25.6-11.52 25.6-25.6s-11.52-25.6-25.6-25.6zM888.832 452.608h-70.144c-14.08 0-25.6 11.52-25.6 25.6s11.52 25.6 25.6 25.6h70.144c14.08 0 25.6-11.52 25.6-25.6s-11.52-25.6-25.6-25.6zM797.952 197.12c-9.984-9.984-26.24-9.984-36.224 0l-49.664 49.664a25.6512 25.6512 0 0 0 18.048 43.776c6.528 0 13.056-2.56 18.048-7.552l49.664-49.664c10.112-10.112 10.112-26.24 0.128-36.224z"></path></svg>