<svg width="128" height="128" viewBox="0 0 1024 1024" xmlns="http://www.w3.org/2000/svg"><path d="M450.176 418.688h-101.248l189.568 238.592 189.568-238.592h-100.352c-0.896-52.224-23.68-375.296-445.312-281.728 277.632 33.792 271.744 240.384 267.776 281.728zM809.984 244.608h-72.448v47.36h72.448a45.184 45.184 0 0 1 45.184 45.184V764.16a45.184 45.184 0 0 1-45.184 45.184H251.136a45.184 45.184 0 0 1-45.184-45.184V337.152h-47.36V764.16c0 51.072 41.472 92.544 92.544 92.544h558.848c51.072 0 92.544-41.472 92.544-92.544V337.152c0-51.072-41.472-92.544-92.544-92.544z"></path></svg>