<svg width="128" height="128" viewBox="0 0 1024 1024" xmlns="http://www.w3.org/2000/svg"><path d="M590.72 406.656c0-116.096-94.08-210.176-210.176-208.64-116.096 0-210.176 94.08-210.176 210.176 0 116.096 94.08 210.176 210.176 210.176s210.176-95.744 210.176-211.712z m-280.704-3.2c-36.096 0-64.256-28.288-64.256-64.256 0-36.096 28.288-64.256 64.256-64.256s64.256 28.288 64.256 64.256c0 36.096-28.16 64.256-64.256 64.256zM869.888 762.624L623.616 514.816c-14.08-14.08-18.816-1.536-23.552 4.736-4.736 7.808-6.272 11.008 1.536 17.28l217.984 217.984c7.808 7.808 7.808 15.744 4.736 20.352-4.736 4.736-12.544 4.736-20.352-4.736l-202.24-199.168a32.128 32.128 0 0 0-45.44 0s-31.36 23.552-37.632 43.904c-3.072 9.472 9.472 51.712 15.744 57.984 6.272 6.272 56.448 22.016 59.648 28.288 1.536 6.272-6.272 64.256 12.544 70.528 20.352 6.272 89.344 0 97.28 9.472 9.472 9.472-4.736 105.088-1.536 116.096 4.736 12.544 59.648 14.08 68.992 4.736l98.816-94.08c12.288-12.672 12.288-33.024-0.256-45.568z"></path></svg>