<svg width="128" height="128" viewBox="0 0 1024 1024" xmlns="http://www.w3.org/2000/svg"><path d="M832.256 888.32H191.744c-28.288 0-51.2-22.912-51.2-51.2V517.376c0-18.304 18.688-30.72 35.456-23.552L506.624 647.68c3.456 1.536 7.424 1.536 10.752 0l330.624-153.856c16.896-7.04 35.456 5.248 35.456 23.552V837.12c0 28.288-22.912 51.2-51.2 51.2zM247.552 540.416h-51.2V206.72c0-49.408 40.192-89.728 89.728-89.728h451.84c49.408 0 89.728 40.192 89.728 89.728V540.16h-51.2V206.72c0-21.248-17.28-38.528-38.528-38.528h-451.84c-21.248 0-38.528 17.28-38.528 38.528v333.696zM381.44 302.72h157.44v51.2H381.44zM381.44 407.808h261.12v51.2H381.44z"></path></svg>