<svg width="128" height="128" viewBox="0 0 1024 1024" xmlns="http://www.w3.org/2000/svg"><path d="M316.672 468.096H125.568l-0.384 0.384 1.28 1.792 327.552 419.456L317.568 471.04zM888.192 468.096H696.704l-0.896 2.944-137.216 420.224 328.576-420.992 1.28-1.792zM648.192 470.272l-0.64-2.176H363.776l-0.64 2.176-0.256 0.768 142.976 464L648.576 471.04zM419.072 235.648c-52.224-2.432-94.08-7.296-115.328-13.44-3.968 2.432-7.936 4.864-11.008 8.448L125.568 430.336h193.024l100.48-194.688zM647.552 430.336l-93.696-193.792c-15.488 0.384-31.488 0.768-48.128 0.768-16.768 0-32.768-0.256-48.384-0.768l-93.696 193.792h283.904zM888.192 430.336L721.024 230.784c-3.072-3.712-7.04-6.016-11.008-8.448-21.248 6.144-63.36 11.008-115.712 13.44l100.48 194.688h193.408z"></path></svg>