<svg width="128" height="128" viewBox="0 0 1024 1024" xmlns="http://www.w3.org/2000/svg"><path d="M680.064 409.856L458.368 631.552a25.6512 25.6512 0 0 0 18.048 43.776c6.528 0 13.056-2.56 18.048-7.552l221.696-221.696c9.984-9.984 9.984-26.24 0-36.224-9.984-9.984-26.112-9.984-36.096 0zM549.888 817.92c-66.688 66.688-175.104 66.56-241.664 0a169.9456 169.9456 0 0 1-50.048-120.832c0-45.696 17.792-88.576 50.048-120.832l121.728-121.728-36.224-36.224-121.728 121.728a220.4416 220.4416 0 0 0-65.024 157.056c0 59.392 23.04 115.072 65.024 157.056 43.264 43.264 100.224 64.896 157.056 64.896 56.832 0 113.792-21.632 157.056-64.896l121.728-121.728-36.224-36.224-121.728 121.728zM902.528 223.488c-86.656-86.656-227.456-86.656-314.112 0l-121.728 121.728 36.224 36.224 121.728-121.728c66.688-66.688 175.104-66.56 241.664 0 66.688 66.688 66.688 175.104 0 241.664l-121.728 121.728L780.8 659.328 902.528 537.6c86.656-86.656 86.656-227.584 0-314.112z"></path></svg>