<svg width="128" height="128" viewBox="0 0 1024 1024" xmlns="http://www.w3.org/2000/svg"><path d="M502.528 806.4c4.48 3.328 9.728 4.864 14.976 4.864 5.376 0 10.624-1.664 15.104-4.992 11.52-8.32 279.808-208 279.808-427.904 0-162.56-132.352-294.912-294.912-294.912S222.592 215.808 222.592 378.368c0 224.64 268.544 419.84 279.936 428.032z m14.976-671.744c134.4 0 243.712 109.312 243.712 243.712 0 166.4-188.672 330.496-243.84 374.912-55.424-43.648-243.584-204.672-243.584-374.912 0-134.4 109.312-243.712 243.712-243.712zM636.8 355.84c0-65.792-53.504-119.296-119.296-119.296s-119.296 53.504-119.296 119.296c0 65.792 53.504 119.296 119.296 119.296s119.296-53.504 119.296-119.296z m-187.392 0c0-37.504 30.592-68.096 68.096-68.096s68.096 30.592 68.096 68.096-30.592 68.096-68.096 68.096-68.096-30.464-68.096-68.096zM739.328 740.096c-11.904 13.952-23.936 27.392-35.84 40.064l-0.64 2.432c60.288 16.64 72.96 34.944 72.96 37.888 0 11.264-54.016 43.904-171.392 55.296-25.856 2.56-54.784 4.096-86.912 4.096-32.64 0-62.08-1.536-88.32-4.224-116.352-11.52-169.984-43.904-169.984-55.168 0-3.072 12.8-21.248 72.704-37.76a1123.072 1123.072 0 0 1-37.76-41.856c-70.272 24.32-86.144 55.936-86.144 79.616 0 72.832 146.944 107.52 290.304 110.336 6.4 0.128 12.8 0.256 19.2 0.256s12.672 0 19.072-0.256c143.488-2.816 290.432-37.504 290.432-110.336 0-23.552-15.872-55.68-87.68-80.384z"></path></svg>