<svg width="128" height="128" viewBox="0 0 1024 1024" xmlns="http://www.w3.org/2000/svg"><path d="M530.432 148.736c-226.176 0-409.6 151.808-409.6 339.2s183.424 339.2 409.6 339.2c36.224 0 34.816 100.224 26.112 152.192-1.152 7.296 7.808 11.776 12.928 6.4 44.288-45.824 151.808-157.696 254.848-261.632 71.552-61.056 115.712-144.384 115.712-236.288 0-187.264-183.424-339.072-409.6-339.072z m-192 409.6c-35.328 0-64-28.672-64-64s28.672-64 64-64 64 28.672 64 64-28.672 64-64 64z m192 0c-35.328 0-64-28.672-64-64s28.672-64 64-64 64 28.672 64 64-28.672 64-64 64z m192 0c-35.328 0-64-28.672-64-64s28.672-64 64-64 64 28.672 64 64-28.672 64-64 64z"></path></svg>