<svg width="128" height="128" viewBox="0 0 1024 1024" xmlns="http://www.w3.org/2000/svg"><path d="M347.264 520.064a63.616 63.616 0 1 1 0-127.232 63.616 63.616 0 0 1 63.616 63.616c0 35.2-28.416 63.616-63.616 63.616zM559.232 520.064a63.616 63.616 0 1 1 0-127.232 63.616 63.616 0 0 1 63.616 63.616c0 35.2-28.416 63.616-63.616 63.616zM655.872 933.76c-8.832 0-17.024-4.48-21.76-12.16L554.24 792.832c-26.752 4.736-53.504 7.168-79.744 7.168-212.864 0-386.048-144.64-386.048-322.432s173.184-322.432 386.048-322.432 386.048 144.64 386.048 322.432c0 83.2-37.888 162.048-106.624 222.208-10.24 18.944-44.928 122.88-73.6 215.808-2.944 9.6-11.264 16.512-21.248 17.792-1.024 0.256-2.176 0.384-3.2 0.384z m-89.216-195.072a25.6 25.6 0 0 1 21.76 12.16l59.648 96.256c53.888-169.984 64.64-179.328 70.016-183.936 58.752-50.56 91.136-116.352 91.136-185.472 0-149.504-150.144-271.232-334.848-271.232S139.52 328.064 139.52 477.696 289.92 748.8 474.496 748.8c28.288 0 57.472-3.2 86.656-9.6 1.792-0.256 3.712-0.512 5.504-0.512z"></path></svg>