<svg width="128" height="128" viewBox="0 0 1024 1024" xmlns="http://www.w3.org/2000/svg"><path d="M804.096 300.672c-14.08 0-25.6 11.52-25.6 25.6v446.336c-1.152 26.752-20.096 49.28-41.344 49.28-22.4 0-41.344-22.144-41.344-48.256V457.088h0.256V327.68c0-73.856-53.248-131.712-121.088-131.712H256.768c-66.816 0-121.088 59.136-121.088 131.712v413.824c0 73.856 53.248 131.712 121.088 131.712h480.384c48.768 0 90.24-44.16 92.544-99.456V326.272c0-14.208-11.392-25.6-25.6-25.6zM186.88 741.376V327.68c0-43.648 32-80.512 69.888-80.512h318.336c39.168 0 69.888 35.328 69.888 80.512v100.352h-0.256v345.728c0 17.536 4.224 33.92 11.648 48.256H256.768c-39.168-0.128-69.888-35.456-69.888-80.64zM291.968 376.96h225.536v51.2H291.968zM291.968 510.976h225.536v51.2H291.968z"></path></svg>