<svg width="128" height="128" viewBox="0 0 1024 1024" xmlns="http://www.w3.org/2000/svg"><path d="M270.72 594.56V436.352h-28.672v82.816c0 2.432 0.256 5.888 0.64 10.496l-53.888-93.312h-39.936v158.208h28.928v-94.72c0-1.92-0.128-4.096-0.512-6.784-0.128-0.896-0.128-2.688-0.256-5.376l61.952 106.88h31.744zM349.952 594.56h113.024v-31.232h-75.392v-34.56h59.264v-29.824h-59.264v-32.512h75.392v-30.08h-113.024zM595.328 594.56l25.088-104.704 25.984 104.704h36.48l39.68-158.208h-30.464l-22.4 96.512c-1.024 4.608-1.792 7.936-2.304 9.984l-26.624-106.496h-34.176l-25.856 106.496c-0.512-2.176-1.024-3.84-1.28-4.864-0.768-2.944-1.152-4.608-1.28-5.12l-21.76-96.512h-37.888l40.704 158.208h36.096zM861.056 562.56c-4.224 3.328-10.496 4.864-18.944 4.864-17.536 0-28.288-7.424-32.128-22.144l-34.304 7.808c3.584 14.592 11.136 25.472 22.528 32.896 11.392 7.424 25.216 11.136 41.472 11.136 21.632 0 37.888-5.248 48.896-15.616 11.008-10.496 16.512-22.784 16.512-37.12 0-9.088-2.56-17.408-7.68-24.704-5.12-7.424-11.392-12.672-18.944-16s-19.328-6.656-35.456-9.856c-9.6-1.92-15.872-4.224-18.56-6.912-2.688-2.56-4.096-5.888-4.096-9.6 0-9.472 7.296-14.208 22.016-14.208 13.696 0 22.656 6.272 27.008 18.816l31.488-10.496c-8.832-24.832-28.8-37.248-59.904-37.248-17.536 0-31.36 4.864-41.6 14.464-10.24 9.6-15.36 21.504-15.36 35.584 0 13.952 4.224 24.448 12.8 31.744 8.576 7.168 22.912 12.928 43.008 17.152 10.752 2.304 18.048 4.608 21.888 7.168 3.84 2.56 5.632 6.144 5.632 10.752-0.128 4.352-2.176 8.192-6.272 11.52zM510.464 393.856V109.568c-2.688 0.128-5.504 0.128-8.192 0.256-91.008 69.632-157.824 169.344-185.856 284.032h194.048zM278.4 637.568H119.552c45.952 147.968 172.928 260.224 329.344 284.16-83.712-73.344-144.512-172.16-170.496-284.16zM278.4 393.856c25.984-112 86.784-210.816 170.496-284.16-156.416 23.936-283.392 136.192-329.344 284.16h158.848zM744.832 393.856H903.68c-45.952-147.968-172.928-260.224-329.344-284.16 83.712 73.344 144.512 172.16 170.496 284.16zM505.344 637.568v288.64c2.688-0.128 5.504-0.128 8.32-0.256 92.416-70.784 160.128-171.904 188.544-288.512H505.344zM744.832 637.568c-25.984 112-86.784 210.816-170.496 284.16 156.416-23.936 283.392-136.192 329.344-284.16H744.832z"></path></svg>