<svg width="128" height="128" viewBox="0 0 1024 1024" xmlns="http://www.w3.org/2000/svg"><path d="M760.704 196.352H320.128c-44.416 0-80.384 35.968-80.384 80.384v59.776h36.864c9.6 0 17.28 7.68 17.28 17.28v40.192c0 9.6-7.68 17.28-17.28 17.28h-36.864v100.864h36.864c9.6 0 17.28 7.68 17.28 17.28v40.192c0 9.6-7.68 17.28-17.28 17.28h-36.864v100.864h36.864c9.6 0 17.28 7.68 17.28 17.28v40.192c0 9.6-7.68 17.28-17.28 17.28h-36.864v59.776c0 44.416 35.968 80.384 80.384 80.384h440.704c44.416 0 80.384-35.968 80.384-80.384V276.736c0-44.416-36.096-80.384-80.512-80.384z m4.352 302.208l-82.176-53.632-82.176 53.632V289.536c0-11.776 9.472-21.248 21.248-21.248h121.856c11.776 0 21.248 9.472 21.248 21.248v209.024z"></path></svg>