<svg width="128" height="128" viewBox="0 0 1024 1024" xmlns="http://www.w3.org/2000/svg"><path d="M765.824 378.496h-87.808v-80c0-95.232-77.568-172.8-172.8-172.8h-17.024c-95.232 0-172.8 77.568-172.8 172.8v80h-87.808c-45.952 0-83.328 37.376-83.328 83.328V801.28c0 45.952 37.376 83.328 83.328 83.328h538.24c45.952 0 83.328-37.376 83.328-83.328V461.696c0-45.824-37.376-83.2-83.328-83.2zM518.656 649.216v57.216a22.016 22.016 0 1 1-44.032 0v-57.216a60.1344 60.1344 0 0 1-38.272-55.936 60.16 60.16 0 0 1 120.32 0 59.4048 59.4048 0 0 1-38.016 55.936z m120.96-270.72H353.792v-80c0-74.112 60.288-134.4 134.4-134.4h17.024c74.112 0 134.4 60.288 134.4 134.4v80z"></path></svg>