<svg width="128" height="128" viewBox="0 0 1024 1024" xmlns="http://www.w3.org/2000/svg"><path d="M780.288 888.704H242.048c-49.408 0-89.728-40.192-89.728-89.728V459.52c0-49.408 40.192-89.728 89.728-89.728h538.24c49.408 0 89.728 40.192 89.728 89.728v339.456c0 49.536-40.192 89.728-89.728 89.728zM242.048 420.992c-21.248 0-38.528 17.28-38.528 38.528v339.456c0 21.248 17.28 38.528 38.528 38.528h538.24c21.248 0 38.528-17.28 38.528-38.528V459.52c0-21.248-17.28-38.528-38.528-38.528H242.048zM698.88 377.216h-51.2v-81.024c0-70.528-57.472-128-128-128h-17.024c-70.528 0-128 57.472-128 128v81.024h-51.2v-81.024c0-98.816 80.384-179.2 179.2-179.2h17.024c98.816 0 179.2 80.384 179.2 179.2v81.024zM511.232 591.104m-60.16 0a60.16 60.16 0 1 0 120.32 0 60.16 60.16 0 1 0-120.32 0ZM511.232 726.272c-12.16 0-22.016-9.856-22.016-22.016v-66.432a22.016 22.016 0 1 1 44.032 0v66.432c-0.128 12.16-9.856 22.016-22.016 22.016z"></path></svg>