<svg width="128" height="128" viewBox="0 0 1024 1024" xmlns="http://www.w3.org/2000/svg"><path d="M784.512 292.608H240.256c-45.952 0-83.328 37.376-83.328 83.328v352.256c0 45.952 37.376 83.328 83.328 83.328h120.064c10.624 0 19.2-8.576 19.2-19.2s-8.576-19.2-19.2-19.2h-120.064c-24.704 0-44.928-20.096-44.928-44.928V375.808c0-24.704 20.096-44.928 44.928-44.928h544.256c24.704 0 44.928 20.096 44.928 44.928v352.256c0 24.704-20.096 44.928-44.928 44.928H670.72c-10.624 0-19.2 8.576-19.2 19.2s8.576 19.2 19.2 19.2h113.792c45.952 0 83.328-37.376 83.328-83.328V375.808c0-45.952-37.376-83.2-83.328-83.2zM663.552 864L526.464 715.904c-7.296-7.808-20.864-7.808-28.16 0L361.216 864c-5.248 5.632-6.528 13.696-3.456 20.736s9.984 11.52 17.536 11.52h274.048c7.68 0 14.592-4.48 17.536-11.52s1.792-15.232-3.328-20.736z"></path></svg>