<svg width="128" height="128" viewBox="0 0 1024 1024" xmlns="http://www.w3.org/2000/svg"><path d="M396.032 530.176c93.184 0 168.96-75.008 168.96-167.296s-75.776-167.296-168.96-167.296-168.96 75.008-168.96 167.296 75.904 167.296 168.96 167.296z m0-283.392c64.896 0 117.76 52.096 117.76 116.096s-52.864 116.096-117.76 116.096-117.76-52.096-117.76-116.096 52.864-116.096 117.76-116.096zM556.928 564.736H235.264c-54.272 0-98.304 44.16-98.304 98.304v153.344h51.2V663.04c0-25.984 21.12-47.104 47.104-47.104h321.792c25.984 0 47.104 21.12 47.104 47.104v153.344h51.2V663.04c0-54.272-44.16-98.304-98.432-98.304zM717.824 476.416c63.104 0 114.56-50.944 114.56-113.536s-51.328-113.536-114.56-113.536c-63.104 0-114.56 50.944-114.56 113.536s51.328 113.536 114.56 113.536z m0-175.872c34.944 0 63.36 27.904 63.36 62.336s-28.416 62.336-63.36 62.336-63.36-27.904-63.36-62.336 28.416-62.336 63.36-62.336zM802.048 518.784h-102.528v51.2h102.528c25.984 0 47.104 21.12 47.104 47.104V747.52h51.2V617.088c0.128-54.272-44.032-98.304-98.304-98.304z"></path></svg>