<svg width="128" height="128" viewBox="0 0 1024 1024" xmlns="http://www.w3.org/2000/svg"><path d="M796.672 886.912c-14.08 0-25.6-11.52-25.6-25.6 0-153.344-124.8-278.144-278.144-278.144s-278.144 124.8-278.144 278.144c0 14.08-11.52 25.6-25.6 25.6s-25.6-11.52-25.6-25.6c0-181.632 147.712-329.344 329.344-329.344S822.272 679.68 822.272 861.312a25.6 25.6 0 0 1-25.6 25.6zM492.928 583.296c-125.312 0-227.328-102.016-227.328-227.328s102.016-227.328 227.328-227.328 227.328 102.016 227.328 227.328-102.016 227.328-227.328 227.328z m0-403.456c-97.152 0-176.128 78.976-176.128 176.128s78.976 176.128 176.128 176.128 176.128-78.976 176.128-176.128-79.104-176.128-176.128-176.128z"></path></svg>