<svg width="128" height="128" viewBox="0 0 1024 1024" xmlns="http://www.w3.org/2000/svg"><path d="M680.32 358.912c-45.568 0-82.56 36.992-82.56 82.56s36.992 82.56 82.56 82.56 82.56-36.992 82.56-82.56-36.992-82.56-82.56-82.56zM742.272 241.92H274.176c-75.904 0-137.6 61.696-137.6 137.6v385.408c0 4.224 0.256 8.448 0.64 12.672 0.128 0.768 0.128 1.536 0.256 2.304a113.5872 113.5872 0 0 0 2.432 14.336c0.768 3.584 1.664 7.168 2.688 10.624 0.256 0.896 0.64 1.92 0.896 2.816 0.896 2.816 1.92 5.632 3.072 8.32 0.512 1.28 1.024 2.688 1.664 3.968 1.28 2.816 2.56 5.632 4.096 8.448l2.688 4.992c0.896 1.408 1.664 2.816 2.56 4.352 1.792 2.944 3.84 5.76 5.76 8.576 0.512 0.768 1.152 1.536 1.792 2.304 7.68 10.112 16.768 19.072 27.008 26.624 22.912 17.152 51.328 27.52 82.176 27.52h467.968c50.304 0 94.336-27.264 118.272-67.712 0.512-0.896 1.152-1.792 1.664-2.688 1.28-2.304 2.432-4.608 3.584-6.912 0.64-1.408 1.28-2.688 1.92-4.096 1.024-2.304 1.92-4.608 2.816-6.912 0.64-1.536 1.152-3.072 1.664-4.48 0.768-2.304 1.536-4.736 2.304-7.168 0.384-1.536 0.768-3.072 1.152-4.736 0.64-2.432 1.28-4.992 1.664-7.424 0.256-1.408 0.384-2.944 0.64-4.352 1.024-6.912 1.792-13.952 1.792-21.12V379.648c0.128-75.904-61.568-137.728-137.472-137.728z m89.472 474.496l-66.816-50.432a71.744 71.744 0 0 0-81.664-3.328l-97.536 61.824c-16.128 10.24-37.504 6.4-49.024-8.832L382.592 512.384c-17.28-22.784-50.816-24.832-70.656-4.352l-127.232 131.072V379.648a89.472 89.472 0 0 1 89.472-89.472h467.968a89.472 89.472 0 0 1 89.472 89.472v336.768z"></path></svg>