<svg width="128" height="128" viewBox="0 0 1024 1024" xmlns="http://www.w3.org/2000/svg"><path d="M512 85.12c-240 0-435.2 195.2-435.2 435.2s195.2 435.2 435.2 435.2 435.2-195.2 435.2-435.2-195.2-435.2-435.2-435.2z m0 51.2c211.712 0 384 172.288 384 384 0 47.616-8.832 93.184-24.704 135.296l-30.976-32.768c-32.128-34.048-85.632-37.376-121.856-7.808L670.72 654.08c-14.464 11.776-35.2 11.52-49.28-0.512L462.08 516.864c-37.504-32.128-94.208-27.776-126.336 9.728L178.432 710.144C146.432 654.08 128 589.312 128 520.32c0-211.712 172.288-384 384-384z m0 768c-123.648 0-233.728-58.88-304.128-149.888l166.656-194.432a38.4768 38.4768 0 0 1 54.144-4.224l159.36 136.576a89.5616 89.5616 0 0 0 115.072 1.28l47.744-39.04c15.488-12.672 38.4-11.264 52.224 3.328l45.056 47.616C782.592 824.064 656.512 904.32 512 904.32zM588.8 456.32c56.448 0 102.4-45.952 102.4-102.4s-45.952-102.4-102.4-102.4-102.4 45.952-102.4 102.4 45.952 102.4 102.4 102.4z m0-153.6c28.288 0 51.2 22.912 51.2 51.2s-22.912 51.2-51.2 51.2-51.2-22.912-51.2-51.2 22.912-51.2 51.2-51.2z"></path></svg>