<svg width="128" height="128" viewBox="0 0 1024 1024" xmlns="http://www.w3.org/2000/svg"><path d="M952.32 437.248V770.56c0 10.88-12.928 16.768-21.248 9.6l-115.2-99.712-51.2-44.288v-64.512l51.2-44.288 115.2-99.712c8.32-7.168 21.248-1.28 21.248 9.6zM739.072 340.48H221.568c-42.368 0-76.8 34.432-76.8 76.8v373.248c0 42.368 34.432 76.8 76.8 76.8h517.504c42.368 0 76.8-34.432 76.8-76.8V417.28c0-42.368-34.432-76.8-76.8-76.8z m25.6 450.048a25.6 25.6 0 0 1-25.6 25.6H221.568a25.6 25.6 0 0 1-25.6-25.6V417.28a25.6 25.6 0 0 1 25.6-25.6h517.504a25.6 25.6 0 0 1 25.6 25.6v373.248zM325.76 207.36c-50.816 0-92.16 41.344-92.16 92.16 0 14.72 3.456 28.672 9.728 40.96 14.976 30.336 46.336 51.2 82.432 51.2 36.096 0 67.328-20.864 82.304-51.2 6.272-12.288 9.728-26.24 9.728-40.96 0-50.816-41.344-92.16-92.032-92.16z m-40.96 92.16a40.8832 40.8832 0 1 1 81.792 0 40.96 40.96 0 0 1-40.832 40.96c-22.656 0-40.96-18.432-40.96-40.96zM562.944 140.8c-69.12 0-125.44 56.32-125.44 125.44 0 27.776 9.088 53.376 24.448 74.24 22.784 30.976 59.648 51.2 100.992 51.2 41.344 0 78.208-20.224 100.992-51.2a124.672 124.672 0 0 0 24.448-74.24c0-69.12-56.32-125.44-125.44-125.44z m-74.24 125.44c0-40.96 33.28-74.24 74.24-74.24 40.96 0 74.24 33.28 74.24 74.24 0 40.832-33.28 74.24-74.24 74.24-40.96 0-74.24-33.408-74.24-74.24z"></path></svg>