<svg width="128" height="128" viewBox="0 0 1024 1024" xmlns="http://www.w3.org/2000/svg"><path d="M385.92 900.992a25.6 25.6 0 0 1-25.6-25.6V611.968c0-7.68 3.456-14.976 9.472-19.84l233.728-189.44 32.256 39.808-224.256 181.76v174.336l75.904-101.376c7.552-10.112 21.504-13.184 32.64-7.168l119.808 64.256 151.04-541.952-568.832 267.008 82.56 47.36-34.944 39.04-115.84-66.56a25.4848 25.4848 0 0 1-12.8-23.296c0.384-9.6 6.016-18.048 14.72-22.144l663.936-311.552c9.088-4.224 19.712-2.816 27.392 3.584 7.68 6.4 10.88 16.768 8.192 26.368L680.576 798.848a25.5616 25.5616 0 0 1-36.736 15.616l-128.64-68.992-108.8 145.28c-4.864 6.528-12.544 10.24-20.48 10.24z"></path></svg>