<svg width="128" height="128" viewBox="0 0 1024 1024" xmlns="http://www.w3.org/2000/svg"><path d="M177.92 556.032h60.16c11.392 44.032 51.456 76.8 99.072 76.8 56.448 0 102.4-45.952 102.4-102.4s-45.952-102.4-102.4-102.4c-47.616 0-87.68 32.768-99.072 76.8h-60.16a25.6 25.6 0 1 0 0 51.2z m159.232-76.8c28.288 0 51.2 22.912 51.2 51.2s-22.912 51.2-51.2 51.2-51.2-22.912-51.2-51.2 22.912-51.2 51.2-51.2zM845.696 504.832H533.632c-14.08 0-25.6 11.52-25.6 25.6s11.52 25.6 25.6 25.6h312.064a25.6 25.6 0 1 0 0-51.2zM632.064 368.128c47.616 0 87.68-32.768 99.072-76.8h114.56c14.08 0 25.6-11.52 25.6-25.6s-11.52-25.6-25.6-25.6h-114.56c-11.392-44.032-51.456-76.8-99.072-76.8-56.448 0-102.4 45.952-102.4 102.4s45.952 102.4 102.4 102.4z m0-153.6c28.288 0 51.2 22.912 51.2 51.2s-22.912 51.2-51.2 51.2-51.2-22.912-51.2-51.2 23.04-51.2 51.2-51.2zM435.584 240.128H177.92c-14.08 0-25.6 11.52-25.6 25.6s11.52 25.6 25.6 25.6h257.664c14.08 0 25.6-11.52 25.6-25.6s-11.52-25.6-25.6-25.6zM845.696 769.536h-114.56c-11.392-44.032-51.456-76.8-99.072-76.8-56.448 0-102.4 45.952-102.4 102.4s45.952 102.4 102.4 102.4c47.616 0 87.68-32.768 99.072-76.8h114.56a25.6 25.6 0 1 0 0-51.2z m-213.632 76.8c-28.288 0-51.2-22.912-51.2-51.2s22.912-51.2 51.2-51.2 51.2 22.912 51.2 51.2-22.912 51.2-51.2 51.2zM435.584 769.536H177.92c-14.08 0-25.6 11.52-25.6 25.6s11.52 25.6 25.6 25.6h257.664c14.08 0 25.6-11.52 25.6-25.6s-11.52-25.6-25.6-25.6z"></path></svg>