<svg width="128" height="128" viewBox="0 0 1024 1024" xmlns="http://www.w3.org/2000/svg"><path d="M227.584 375.168c-50.688 0-92.032 41.344-92.032 92.032 0 41.856 28.16 77.184 66.432 88.32v262.784h51.2V555.52c38.272-11.136 66.432-46.464 66.432-88.32 0-50.816-41.344-92.032-92.032-92.032z m0 132.864c-22.528 0-40.832-18.304-40.832-40.832s18.304-40.832 40.832-40.832 40.832 18.304 40.832 40.832-18.304 40.832-40.832 40.832zM201.984 220.416h51.2v99.968h-51.2zM885.76 464.64c0-50.688-41.344-92.032-92.032-92.032-50.688 0-92.032 41.344-92.032 92.032 0 41.856 28.16 77.184 66.432 88.32v265.344h51.2V552.96c38.272-11.136 66.432-46.464 66.432-88.32z m-92.032 40.832c-22.528 0-40.832-18.304-40.832-40.832s18.304-40.832 40.832-40.832 40.832 18.304 40.832 40.832-18.304 40.832-40.832 40.832zM768.128 220.416h51.2v97.408h-51.2zM536.192 500.864V220.416h-51.2v280.448c-38.272 11.136-66.432 46.464-66.432 88.32 0 50.688 41.344 92.032 92.032 92.032 50.688 0 92.032-41.344 92.032-92.032 0-41.856-28.032-77.184-66.432-88.32z m-25.6 129.152c-22.528 0-40.832-18.304-40.832-40.832s18.304-40.832 40.832-40.832 40.832 18.304 40.832 40.832-18.304 40.832-40.832 40.832zM484.992 736h51.2v82.304h-51.2z"></path></svg>