<svg width="128" height="128" viewBox="0 0 1024 1024" xmlns="http://www.w3.org/2000/svg"><path d="M848 214.528c-0.128-0.256-0.256-0.384-0.512-0.64l-0.256-0.256-2.56-2.944a59.2256 59.2256 0 0 0-60.416-14.336L202.88 386.944a59.648 59.648 0 0 0-39.808 43.264 59.776 59.776 0 0 0 16.256 56.576l176.64 174.592-0.128 276.352c0 10.368 6.144 19.584 15.744 23.552 3.2 1.28 6.528 2.048 9.856 2.048 6.528 0 13.056-2.56 17.92-7.296l124.032-121.984 48.128 49.92c11.392 11.904 26.752 18.304 42.624 18.304 4.48 0 9.088-0.512 13.696-1.536a59.0464 59.0464 0 0 0 43.136-39.808l188.16-588.672c6.912-20.352 2.304-41.856-11.136-57.728zM212.992 441.984c0.384-1.792 1.792-5.12 5.888-6.4l546.688-179.072-380.416 361.472-169.728-167.68a8.1664 8.1664 0 0 1-2.432-8.32zM487.808 797.44l-80.512 79.104V713.216l80.896 83.84c-0.128 0.256-0.256 0.256-0.384 0.384z m134.784 47.744c-1.28 3.968-4.352 5.12-6.016 5.632-1.792 0.384-4.992 0.64-7.936-2.304L421.376 654.208l376.704-358.016-175.488 548.992z"></path></svg>