<svg width="128" height="128" viewBox="0 0 1024 1024" xmlns="http://www.w3.org/2000/svg"><path d="M887.168 205.312c-1.28-30.464-26.112-55.424-56.704-56.704l-270.72-11.392c-19.584-0.768-39.04 6.656-52.992 20.736l-377.6 377.6a75.1744 75.1744 0 0 0 0 106.24l264.832 264.832c14.208 14.208 33.024 22.016 53.12 22.016s38.912-7.808 53.12-22.016l377.6-377.6a71.2448 71.2448 0 0 0 20.736-52.992l-11.392-270.72zM742.272 427.392a96.8064 96.8064 0 0 1-68.992 28.544c-26.112 0-50.56-10.112-68.992-28.544-38.016-38.016-38.016-99.968 0-137.984a96.8064 96.8064 0 0 1 68.992-28.544c26.112 0 50.56 10.112 68.992 28.544 38.016 38.016 38.016 99.968 0 137.984z"></path></svg>