<svg width="128" height="128" viewBox="0 0 1024 1024" xmlns="http://www.w3.org/2000/svg"><path d="M818.56 860.544H247.168c-31.616 0-57.344-25.728-57.344-57.344V194.048c0-31.616 25.728-57.344 57.344-57.344h446.976c6.656 0 13.056 2.56 17.792 7.168l156.16 151.04c4.992 4.864 7.808 11.52 7.808 18.432v489.856c0 31.616-25.728 57.344-57.344 57.344zM247.168 187.904a6.144 6.144 0 0 0-6.144 6.144v609.152c0 3.456 2.816 6.144 6.144 6.144h571.264c3.456 0 6.144-2.816 6.144-6.144V324.096l-140.8-136.192H247.168zM545.28 353.152l45.056 91.136 100.608 14.592c11.392 1.664 15.872 15.616 7.68 23.68l-72.832 70.912 17.152 100.224c1.92 11.264-9.984 19.968-20.096 14.592l-89.984-47.36-89.984 47.36c-10.112 5.376-22.016-3.328-20.096-14.592l17.152-100.224-72.832-70.912c-8.192-8.064-3.712-22.016 7.68-23.68l100.608-14.592 45.056-91.136c5.12-10.368 19.712-10.368 24.832 0z"></path></svg>