<svg width="128" height="128" viewBox="0 0 1024 1024" xmlns="http://www.w3.org/2000/svg"><path d="M794.112 144.384H319.488c-36.352 0-66.048 32.512-66.048 72.576v617.472a25.6 25.6 0 0 0 36.992 22.912l129.792-64.64 124.8 64.384c6.656 3.456 14.336 3.84 21.248 1.024l136.32-54.656 121.344 54.272a26.0608 26.0608 0 0 0 24.448-1.92c7.296-4.736 11.648-12.8 11.648-21.504V216.96c0.128-39.936-29.568-72.576-65.92-72.576zM808.96 794.88l-95.232-42.496a25.728 25.728 0 0 0-19.968-0.384l-135.552 54.272-125.952-65.024a25.664 25.664 0 0 0-23.168-0.128l-104.32 51.968V216.96c0-12.544 7.808-21.376 14.848-21.376h474.624c7.04 0 14.848 8.704 14.848 21.376V794.88zM410.368 332.032h292.864v51.2H410.368zM410.368 472.832h292.864v51.2H410.368z"></path></svg>