<svg width="128" height="128" viewBox="0 0 1024 1024" xmlns="http://www.w3.org/2000/svg"><path d="M626.432 545.92a100.992 100.992 0 0 1-71.552-29.568c-39.424-39.424-39.424-103.552 0-142.976s103.552-39.424 142.976 0 39.424 103.552 0 142.976a100.2624 100.2624 0 0 1-71.424 29.568z m0-150.912c-12.8 0-25.6 4.864-35.328 14.592-19.456 19.456-19.456 51.2 0 70.656 19.456 19.456 51.2 19.456 70.656 0 19.456-19.456 19.456-51.2 0-70.656a49.8048 49.8048 0 0 0-35.328-14.592zM463.744 959.488c-15.104 0-29.44-5.888-40.064-16.64l-293.12-293.12a56.7808 56.7808 0 0 1 0-80.256l398.72-398.72c5.504-5.504 13.312-8.192 20.992-7.296l295.424 33.792a49.408 49.408 0 0 1 43.52 45.184l20.864 281.728-51.072 3.84-20.736-280.064-281.472-32.128-390.016 390.016c-2.176 2.176-2.176 5.632 0 7.808l293.12 293.12c2.688 2.688 5.12 2.688 7.808 0l332.672-332.672 36.224 36.224-332.8 332.672a56.448 56.448 0 0 1-40.064 16.512zM306.5472 615.8848l36.1984-36.2112 159.6672 159.6672-36.2112 36.1984z"></path></svg>