<svg width="128" height="128" viewBox="0 0 1024 1024" xmlns="http://www.w3.org/2000/svg"><path d="M510.464 94.208C265.728 94.208 66.56 293.376 66.56 538.112s199.168 443.904 443.904 443.904 443.904-199.168 443.904-443.904S755.2 94.208 510.464 94.208z m0 836.608C293.888 930.816 117.76 754.688 117.76 538.112s176.128-392.704 392.704-392.704 392.704 176.128 392.704 392.704S727.04 930.816 510.464 930.816zM677.12 630.528c-11.264-8.448-27.392-6.144-35.84 5.12-31.104 41.6-78.848 65.536-130.688 65.536-52.096 0-99.84-24.064-130.944-65.92a25.5616 25.5616 0 0 0-35.84-5.248c-11.392 8.448-13.696 24.448-5.248 35.84 40.32 54.144 104.576 86.528 172.032 86.528 68.224 0 130.816-31.36 171.776-86.016 8.448-11.264 6.144-27.392-5.248-35.84zM367.104 527.232c14.08 0 25.6-11.52 25.6-25.6V441.6c0-14.08-11.52-25.6-25.6-25.6s-25.6 11.52-25.6 25.6v60.032a25.6 25.6 0 0 0 25.6 25.6zM626.944 527.232c14.08 0 25.6-11.52 25.6-25.6V441.6c0-14.08-11.52-25.6-25.6-25.6s-25.6 11.52-25.6 25.6v60.032a25.6 25.6 0 0 0 25.6 25.6z"></path></svg>