<svg width="128" height="128" viewBox="0 0 1024 1024" xmlns="http://www.w3.org/2000/svg"><path d="M896 273.664H148.992c-14.08 0-25.6 11.52-25.6 25.6V568.32c0 6.784 2.688 13.312 7.552 18.048 30.848 30.848 56.32 55.168 81.024 78.72 24.448 23.296 49.664 47.488 80 77.696 4.864 4.864 11.264 7.552 18.048 7.552H729.6c6.784 0 13.312-2.688 18.048-7.552 30.08-30.08 56.576-54.144 82.304-77.312 26.112-23.68 53.12-48.128 84.096-79.104 4.864-4.864 7.552-11.264 7.552-18.048V299.264a25.6 25.6 0 0 0-25.6-25.6z m-25.6 283.904c-27.008 26.624-51.328 48.64-74.752 69.888-23.936 21.76-48.64 44.032-76.544 71.552H320.64c-27.392-27.264-50.688-49.536-73.344-71.04-22.4-21.376-45.568-43.52-72.704-70.4V324.864H870.4v232.704zM286.336 408.32h51.2v118.912h-51.2zM426.624 408.32h51.2v118.912h-51.2zM566.912 408.32h51.2v118.912h-51.2zM707.072 408.32h51.2v118.912h-51.2z"></path></svg>