<svg width="128" height="128" viewBox="0 0 1024 1024" xmlns="http://www.w3.org/2000/svg"><path d="M361.472 896c-12.288 0-24.576-3.84-35.072-11.52a59.4304 59.4304 0 0 1-23.808-58.496l31.232-182.4-132.48-129.152a59.3024 59.3024 0 0 1-15.104-61.312c7.04-21.76 25.6-37.376 48.256-40.704l183.168-26.624 81.92-166.016c10.112-20.608 30.72-33.28 53.632-33.28 22.912 0 43.52 12.8 53.632 33.28l81.92 166.016 183.168 26.624a59.52 59.52 0 0 1 48.256 40.704c7.04 21.76 1.28 45.312-15.104 61.312L772.352 643.584l31.232 182.4c3.84 22.656-5.248 45.056-23.808 58.496a59.5968 59.5968 0 0 1-62.976 4.608l-163.84-86.144-163.84 86.144c-8.704 4.608-18.176 6.912-27.648 6.912z m191.616-147.584c4.096 0 8.192 1.024 11.904 2.944l175.744 92.416c4.096 2.176 7.424 0.512 9.088-0.64s4.224-3.84 3.456-8.448l-33.536-195.712c-1.408-8.32 1.28-16.768 7.424-22.656l142.208-138.624c3.328-3.2 2.816-6.912 2.176-8.832a8.3712 8.3712 0 0 0-6.912-5.888L668.16 434.432c-8.32-1.152-15.488-6.4-19.328-13.952l-87.808-178.048a8.1152 8.1152 0 0 0-7.68-4.736c-2.048 0-5.632 0.64-7.68 4.736l-87.808 178.048c-3.712 7.552-10.88 12.8-19.328 13.952l-196.48 28.544c-4.608 0.64-6.4 3.968-6.912 5.888s-1.152 5.504 2.176 8.832l142.208 138.624c6.016 5.888 8.832 14.336 7.424 22.656l-33.536 195.712c-0.768 4.608 1.792 7.168 3.456 8.448 1.664 1.152 4.992 2.816 9.088 0.64l175.744-92.416c3.2-2.048 7.296-2.944 11.392-2.944z"></path></svg>