<svg width="128" height="128" viewBox="0 0 1024 1024" xmlns="http://www.w3.org/2000/svg"><path d="M524.672 268.16c-134.4 0-243.84 109.44-243.84 243.84s109.44 243.84 243.84 243.84S768.64 646.4 768.64 512 659.2 268.16 524.672 268.16z m0 436.48c-106.24 0-192.64-86.4-192.64-192.64s86.4-192.64 192.64-192.64S717.312 405.76 717.312 512c0.128 106.24-86.4 192.64-192.64 192.64zM515.456 180.096c14.08 0 25.6-11.52 25.6-25.6V89.472c0-14.08-11.52-25.6-25.6-25.6s-25.6 11.52-25.6 25.6v65.024a25.6 25.6 0 0 0 25.6 25.6zM515.456 843.904c-14.08 0-25.6 11.52-25.6 25.6v65.024c0 14.08 11.52 25.6 25.6 25.6s25.6-11.52 25.6-25.6v-65.024c0-14.08-11.52-25.6-25.6-25.6zM168.704 486.4H103.68c-14.08 0-25.6 11.52-25.6 25.6s11.52 25.6 25.6 25.6h65.024c14.08 0 25.6-11.52 25.6-25.6s-11.52-25.6-25.6-25.6zM948.864 486.4h-65.024c-14.08 0-25.6 11.52-25.6 25.6s11.52 25.6 25.6 25.6h65.024c14.08 0 25.6-11.52 25.6-25.6s-11.52-25.6-25.6-25.6zM244.48 277.248c4.992 4.992 11.52 7.552 18.048 7.552s13.056-2.56 18.048-7.552c9.984-9.984 9.984-26.24 0-36.224l-45.952-45.952c-9.984-9.984-26.24-9.984-36.224 0-9.984 9.984-9.984 26.24 0 36.224l46.08 45.952zM786.432 746.752c-9.984-9.984-26.24-9.984-36.224 0s-9.984 26.24 0 36.224l45.952 45.952c4.992 4.992 11.52 7.552 18.048 7.552a25.6512 25.6512 0 0 0 18.048-43.776l-45.824-45.952zM244.48 746.752l-45.952 45.952a25.6512 25.6512 0 0 0 18.048 43.776c6.528 0 13.056-2.56 18.048-7.552l45.952-45.952c9.984-9.984 9.984-26.24 0-36.224s-26.112-9.984-36.096 0zM796.16 195.072l-45.952 45.952a25.6512 25.6512 0 0 0 18.048 43.776c6.528 0 13.056-2.56 18.048-7.552l45.952-45.952c9.984-9.984 9.984-26.24 0-36.224-9.856-9.984-26.112-9.984-36.096 0z"></path></svg>