<svg width="128" height="128" viewBox="0 0 1024 1024" xmlns="http://www.w3.org/2000/svg"><path d="M498.048 511.36m-254.976 0a254.976 254.976 0 1 0 509.952 0 254.976 254.976 0 1 0-509.952 0ZM526.336 193.92V124.16c0-15.488-12.672-28.288-28.288-28.288-15.744 0-28.288 12.672-28.288 28.288v71.168c12.16-1.536 24.704-2.304 37.248-2.304 6.528 0.128 12.928 0.256 19.328 0.896zM469.76 827.264v71.168c0 15.488 12.544 28.288 28.288 28.288 15.488 0 28.288-12.672 28.288-28.288v-69.632c-6.4 0.512-12.672 0.768-19.2 0.768-12.672 0-25.216-0.768-37.376-2.304zM255.872 309.248c1.024 1.024 2.176 1.92 3.2 2.688 11.776-14.592 24.704-28.032 38.784-40.32-0.512-0.896-1.28-1.664-1.92-2.432L244.224 217.6c-11.008-11.008-28.928-11.008-39.936 0-11.008 11.008-11.008 28.928 0 39.936l51.584 51.712zM746.88 720.256c-12.288 14.336-25.984 27.392-40.704 39.168l45.696 45.696c5.504 5.504 12.672 8.192 19.968 8.192s14.464-2.688 19.968-8.192c11.008-11.008 11.008-28.928 0-39.936l-44.928-44.928zM183.808 483.072h-72.96c-15.744 0-28.288 12.672-28.288 28.288 0 15.744 12.544 28.288 28.288 28.288h72.96c2.304 0 4.352-0.256 6.4-0.768-0.896-9.088-1.28-18.176-1.28-27.52s0.384-18.56 1.28-27.52c-1.92-0.512-4.096-0.768-6.4-0.768zM885.12 483.072h-61.312c1.024 9.344 1.408 18.816 1.408 28.288 0 9.6-0.384 18.944-1.408 28.288h61.312c15.744 0 28.288-12.544 28.288-28.288 0-15.616-12.672-28.288-28.288-28.288zM259.2 710.912c-1.152 0.768-2.304 1.664-3.2 2.688l-51.712 51.584c-11.008 11.008-11.008 28.928 0 39.936 5.504 5.504 12.8 8.192 20.096 8.192s14.464-2.688 19.968-8.192l51.712-51.712c0.768-0.768 1.408-1.536 1.92-2.432-14.08-12.16-27.136-25.6-38.784-40.064zM751.872 217.6l-45.696 45.696c14.72 11.776 28.416 24.832 40.704 39.168l44.8-44.8c11.008-11.008 11.008-28.928 0-39.936-11.008-11.136-28.8-11.136-39.808-0.128z"></path></svg>