<svg width="128" height="128" viewBox="0 0 1024 1024" xmlns="http://www.w3.org/2000/svg"><path d="M907.264 415.104a56.8576 56.8576 0 0 0-43.264-19.84H641.792V245.248c2.304-52.352-47.36-102.4-93.44-114.56-38.528-10.24-72.576 5.12-91.52 42.24-54.528 125.44-78.72 184.96-89.472 213.888H212.864c-28.672 0-51.968 23.296-51.968 51.968v378.752c0 28.672 23.296 51.968 51.968 51.968h580.224c31.232 0 57.216-22.4 61.824-52.608L920.448 460.8c2.432-16.384-2.304-33.024-13.184-45.696zM199.296 817.536V438.784c0-7.552 6.144-13.568 13.568-13.568H358.4v405.888H212.864c-7.424 0-13.568-6.016-13.568-13.568z"></path></svg>