<svg width="128" height="128" viewBox="0 0 1024 1024" xmlns="http://www.w3.org/2000/svg"><path d="M826.368 833.28H197.632c-42.368 0-76.8-34.432-76.8-76.8V614.016l25.088-0.512c49.408-0.896 89.728-41.856 89.728-91.264s-40.192-90.368-89.728-91.264l-25.088-0.512V288c0-42.368 34.432-76.8 76.8-76.8h628.736c42.368 0 76.8 34.432 76.8 76.8v142.592l-25.216 0.384c-49.536 0.768-89.728 41.728-89.728 91.264s40.32 90.496 89.728 91.264l25.216 0.384V756.48c0 42.368-34.432 76.8-76.8 76.8zM172.032 662.016v94.464c0 14.08 11.52 25.6 25.6 25.6h628.736c14.08 0 25.6-11.52 25.6-25.6v-94.464c-65.28-12.928-114.944-71.04-114.944-139.776s49.664-126.848 114.944-139.776V288c0-14.08-11.52-25.6-25.6-25.6H197.632c-14.08 0-25.6 11.52-25.6 25.6v94.464c65.152 13.056 114.816 71.168 114.816 139.776s-49.536 126.72-114.816 139.776zM583.552 389.12c-14.08 0-25.6-11.52-25.6-25.6v-25.6c0-14.08 11.52-25.6 25.6-25.6s25.6 11.52 25.6 25.6v25.6c0 14.208-11.392 25.6-25.6 25.6zM583.552 503.168c-14.08 0-25.6-11.52-25.6-25.6v-25.6c0-14.08 11.52-25.6 25.6-25.6s25.6 11.52 25.6 25.6v25.6a25.6 25.6 0 0 1-25.6 25.6zM583.552 620.16c-14.08 0-25.6-11.52-25.6-25.6v-25.6c0-14.08 11.52-25.6 25.6-25.6s25.6 11.52 25.6 25.6v25.6c0 14.208-11.392 25.6-25.6 25.6zM583.552 732.16c-14.08 0-25.6-11.52-25.6-25.6v-25.6c0-14.08 11.52-25.6 25.6-25.6s25.6 11.52 25.6 25.6v25.6c0 14.208-11.392 25.6-25.6 25.6z"></path></svg>