<svg width="128" height="128" viewBox="0 0 1024 1024" xmlns="http://www.w3.org/2000/svg"><path d="M854.016 451.328h30.464L797.696 220.16l-86.784 231.168h30.592l-30.592 81.28h30.592l-30.592 81.408h69.632v196.864H148.352v68.48h718.976v-68.48h-52.48V614.016h69.632l-30.464-81.408h30.464zM185.344 789.632h461.696V515.84h40.192c13.312 0 20.096-16 10.752-25.6L428.8 216.192a17.536 17.536 0 0 0-25.088 0L134.528 490.24c-9.344 9.472-2.56 25.6 10.752 25.6h40.192v273.792zM430.208 515.84h92.672v92.672h-92.672V515.84z m0 121.216h92.672v92.672h-92.672v-92.672zM276.992 515.84h92.672v92.672h-92.672V515.84z m0 121.216h92.672v92.672h-92.672v-92.672z"></path></svg>