<svg width="128" height="128" viewBox="0 0 1024 1024" xmlns="http://www.w3.org/2000/svg"><path d="M488.32 142.848L219.136 399.872v1.536h-87.168c-21.248 0-38.4 17.152-38.4 38.4v182.784c0 21.248 17.152 38.4 38.4 38.4h87.168v1.536l269.056 257.024c8.192 7.808 21.632 2.048 21.632-9.216V152.192c0.128-11.264-13.44-17.152-21.504-9.344zM595.072 230.528v51.2c134.784 0 244.352 109.696 244.352 244.352s-109.568 244.352-244.352 244.352v51.2c162.944 0 295.552-132.608 295.552-295.552 0.128-163.072-132.48-295.552-295.552-295.552zM755.712 526.08c0-88.576-72.064-160.64-160.64-160.64v51.2c60.288 0 109.44 49.024 109.44 109.44s-49.024 109.44-109.44 109.44v51.2c88.576-0.128 160.64-72.064 160.64-160.64z"></path></svg>