<svg width="128" height="128" viewBox="0 0 1024 1024" xmlns="http://www.w3.org/2000/svg"><path d="M878.208 821.76l-88.704-195.2c41.088-55.424 65.536-123.904 65.536-198.016 0-183.552-149.376-332.8-332.8-332.8-183.552 0-332.8 149.376-332.8 332.8 0 74.112 24.32 142.592 65.536 198.016L166.016 821.76c-5.504 12.16-3.456 26.24 5.248 35.584 8.32 8.96 20.736 11.904 32.384 7.68l104.448-37.504c3.712-1.408 6.912 0 8.32 3.712l40.96 103.168c4.608 11.52 14.976 18.944 27.264 19.2h0.768c12.544 0 24.064-7.68 29.44-19.456l81.024-173.952c8.704 0.64 17.408 1.152 26.24 1.152s17.536-0.512 26.24-1.152l80.896 173.824c5.376 12.032 16.896 19.584 29.44 19.584h0.768c12.288-0.256 22.656-7.68 27.264-19.2l40.96-103.168c1.536-3.712 4.608-5.12 8.32-3.712l104.448 37.504c11.648 4.224 24.064 1.28 32.384-7.808 8.832-9.216 11.008-23.168 5.376-35.456z m-474.112-123.52l-51.712-29.312c-75.264-53.376-124.672-141.184-124.672-240.384 0-162.304 132.096-294.4 294.4-294.4 162.432 0 294.4 132.096 294.4 294.4 0 99.2-49.28 186.88-124.672 240.384l-51.712 29.312c-36.224 15.872-76.16 24.832-118.144 24.832s-81.792-8.96-117.888-24.832z"></path></svg>