<svg width="128" height="128" viewBox="0 0 1024 1024" xmlns="http://www.w3.org/2000/svg"><path d="M711.424 237.184c15.488-15.488-0.384-56.576-35.584-91.648-35.2-35.2-76.16-51.072-91.648-35.584-0.384 0.384-0.384 0.768-0.768 1.152l-0.256-0.256-445.696 445.824 11.392 115.84 115.84 11.392L710.528 238.08l-0.256-0.256c0.384-0.128 0.896-0.256 1.152-0.64zM636.032 875.904c-51.584 0-93.568-20.48-136.704-41.472-76.032-37.12-154.752-75.52-320.128-1.92-14.848 6.656-32.256 0-38.784-14.848-6.656-14.848 0.128-32.256 14.848-38.784 190.336-84.864 289.92-36.224 369.792 2.688 89.856 43.776 154.752 75.52 338.304-90.752a29.3504 29.3504 0 1 1 39.424 43.52c-119.296 108.288-200.96 141.568-266.752 141.568z"></path></svg>