<svg width="128" height="128" viewBox="0 0 1024 1024" xmlns="http://www.w3.org/2000/svg"><path d="M517.632 511.232h-0.256l-226.432-1.92c-6.784 0-13.312-2.816-18.048-7.68-4.736-4.864-7.424-11.392-7.296-18.176l1.92-226.432c0.128-14.08 11.52-25.344 25.6-25.344h0.256l226.432 1.92c6.784 0 13.312 2.816 18.048 7.68 4.736 4.864 7.424 11.392 7.296 18.176l-1.92 226.432c-0.128 13.952-11.52 25.344-25.6 25.344z m-200.576-52.864l175.232 1.408 1.408-175.232-175.232-1.408-1.408 175.232zM514.688 873.472h-0.256l-226.432-1.92c-6.784 0-13.312-2.816-18.048-7.68-4.736-4.864-7.424-11.392-7.296-18.176l1.92-226.432c0.128-14.08 11.52-25.344 25.6-25.344h0.256l226.432 1.92c6.784 0 13.312 2.816 18.048 7.68 4.736 4.864 7.424 11.392 7.296 18.176l-1.92 226.432c-0.128 14.08-11.52 25.344-25.6 25.344z m-200.576-52.864l175.232 1.408 1.408-175.232-175.232-1.408-1.408 175.232zM773.12 747.52l-51.2-0.384 0.768-98.944-98.944-0.768 0.384-51.2 124.544 1.024c6.784 0 13.312 2.816 18.048 7.68 4.736 4.864 7.424 11.392 7.296 18.176l-0.896 124.416zM602.048 856.128l0.5632-67.968 51.2 0.4224-0.5632 67.968zM822.08 646.9888l0.4224-51.2 67.968 0.5632-0.4224 51.2zM854.272 876.288h-0.256L729.6 875.264l0.384-51.2 98.944 0.768 0.768-98.944 51.2 0.384-1.024 124.544c0 14.208-11.52 25.472-25.6 25.472zM857.344 514.048h-0.256l-226.432-1.92c-6.784 0-13.312-2.816-18.048-7.68-4.736-4.864-7.424-11.392-7.296-18.176l1.92-226.432c0.128-14.08 11.52-25.344 25.6-25.344h0.256l226.432 1.92c6.784 0 13.312 2.816 18.048 7.68 4.736 4.864 7.424 11.392 7.296 18.176l-1.92 226.432a25.7024 25.7024 0 0 1-25.6 25.344zM656.64 461.184l175.232 1.408 1.408-175.232-175.232-1.408-1.408 175.232z"></path></svg>