<svg width="128" height="128" viewBox="0 0 1024 1024" xmlns="http://www.w3.org/2000/svg"><path d="M738.944 617.6h-16.64V426.24c0-94.208-61.824-173.824-147.072-200.832a64.4352 64.4352 0 0 0-63.616-74.24 64.512 64.512 0 0 0-64.384 64.384c0 3.328 0.384 6.656 0.768 9.856-85.248 27.008-147.072 106.624-147.072 200.832v191.36h-16.64a74.752 74.752 0 0 0 0 149.504h454.656a74.752 74.752 0 0 0 0-149.504z m-259.072-401.92a31.744 31.744 0 1 1 63.488 0c0 0.896-0.128 1.792-0.256 2.56-10.24-1.536-20.736-2.56-31.488-2.56-10.752 0-21.248 1.024-31.488 2.56-0.128-0.896-0.256-1.664-0.256-2.56zM511.616 840.96c-28.544 0-51.712-23.168-51.712-51.712h-32.64c0 46.464 37.888 84.352 84.352 84.352s84.352-37.888 84.352-84.352h-32.64c0 28.416-23.168 51.712-51.712 51.712z"></path></svg>