<svg width="128" height="128" viewBox="0 0 1024 1024" xmlns="http://www.w3.org/2000/svg"><path d="M781.952 203.776h-234.24v309.376c0 11.776 9.6 21.376 21.376 21.376h309.376V300.16c0-53.248-43.264-96.384-96.512-96.384z m0.512 183.04H644.736c-9.6 0-18.176-7.168-18.688-16.768-0.512-10.24 7.552-18.688 17.792-18.688h137.728c9.6 0 18.176 7.168 18.688 16.768 0.384 10.24-7.68 18.688-17.792 18.688zM272.256 203.776a96.64 96.64 0 0 0-96.64 96.64v233.984c0 0.128 0.128 0.128 0.128 0.128h309.248c11.776 0 21.376-9.6 21.376-21.376V203.904c0-0.128-0.128-0.128-0.128-0.128H272.256z m142.976 189.056h-50.304l-0.128 0.128v50.432c0 8.832-5.888 17.024-14.592 18.432-11.264 1.92-20.992-6.656-20.992-17.536V392.96c0-0.128-0.128-0.128-0.128-0.128h-50.944c-7.808 0-15.232-4.736-17.536-12.16-3.712-12.16 5.248-23.424 16.896-23.424h51.456l0.128-0.128v-50.304c0-9.728 7.296-18.432 16.896-18.944 10.112-0.384 18.56 7.68 18.56 17.792v51.456c0 0.128 0.128 0.128 0.128 0.128h51.456c10.112 0 18.176 8.448 17.792 18.56-0.256 9.728-9.088 17.024-18.688 17.024zM547.712 595.84v309.376H782.08c53.248 0 96.384-43.136 96.384-96.384V574.336H569.088c-11.904 0-21.376 9.6-21.376 21.504z m177.152 198.912c0 10.112-8.192 18.176-18.176 18.176h-1.28c-10.112 0-18.176-8.192-18.176-18.176v-1.28c0-10.112 8.192-18.176 18.176-18.176h1.28c10.112 0 18.176 8.192 18.176 18.176v1.28z m-37.76-121.856c0-10.112 8.192-18.176 18.176-18.176h1.28c10.112 0 18.176 8.192 18.176 18.176v1.28c0 10.112-8.192 18.176-18.176 18.176h-1.28c-10.112 0-18.176-8.192-18.176-18.176v-1.28z m-49.28 43.136h137.728c9.6 0 18.176 7.168 18.688 16.768 0.512 10.24-7.552 18.688-17.792 18.688H638.72c-9.6 0-18.176-7.168-18.688-16.768a17.792 17.792 0 0 1 17.792-18.688zM175.744 574.336v234.368c0 53.248 43.136 96.384 96.384 96.384h234.368V595.84c0-11.776-9.6-21.376-21.376-21.376H175.744z m232.832 195.968c7.168 7.168 6.912 18.944-0.64 25.728-7.168 6.4-18.304 5.376-25.088-1.408l-35.84-35.84-35.84 35.84c-6.784 6.784-17.92 7.808-25.088 1.408-7.68-6.912-7.808-18.56-0.64-25.728l36.48-36.48-35.968-35.968c-6.016-6.016-7.552-15.744-2.688-22.912 6.528-9.6 19.584-10.496 27.392-2.688l36.48 36.48 35.84-35.84c6.784-6.784 17.92-7.808 25.088-1.408 7.68 6.912 7.808 18.56 0.64 25.728l-36.48 36.48 36.352 36.608z"></path></svg>