<svg width="128" height="128" viewBox="0 0 1024 1024" xmlns="http://www.w3.org/2000/svg"><path d="M807.296 653.312H382.72V228.736h450.176v-51.2H357.12c-14.08 0-25.6 11.52-25.6 25.6v475.776c0 14.08 11.52 25.6 25.6 25.6h475.776c14.08 0 25.6-11.52 25.6-25.6V542.08h-51.2v111.232zM257.792 393.472h-51.2v413.312c0 14.08 11.52 25.6 25.6 25.6h413.312v-51.2H257.792V393.472zM487.168 385.28l-36.224 36.224L600.448 570.88a25.3824 25.3824 0 0 0 36.096 0l263.936-263.936-36.224-36.224-245.76 245.76L487.168 385.28z"></path></svg>