<svg width="128" height="128" viewBox="0 0 1024 1024" xmlns="http://www.w3.org/2000/svg"><path d="M1017.216 610.304c-4.096-103.296-87.04-188.416-190.336-194.816-93.056-5.888-173.696 50.816-203.904 132.096a14.528 14.528 0 0 1-27.136-10.368c32.256-86.144 113.92-147.968 210.56-150.912-28.544-115.2-132.48-200.704-256.512-200.704-124.16 0-228.352 85.632-256.64 201.088-4.992-0.384-9.984-0.64-15.104-0.64-120.448 0-218.112 97.664-218.112 218.112 0 116.096 90.752 211.072 205.184 217.728v0.384h557.184v-0.256c111.232-4.608 199.296-98.432 194.816-211.712z"></path></svg>