<svg width="128" height="128" viewBox="0 0 1024 1024" xmlns="http://www.w3.org/2000/svg"><path d="M663.168 781.312L526.08 633.216c-7.296-7.808-20.864-7.808-28.16 0L360.832 781.312c-5.248 5.632-6.528 13.696-3.456 20.736s9.984 11.52 17.536 11.52H648.96c7.68 0 14.592-4.48 17.536-11.52s1.792-15.232-3.328-20.736zM830.976 745.984h-96.128l-40.96-51.2h137.088c14.08 0 25.6-11.52 25.6-25.6v-401.92c0-14.08-11.52-25.6-25.6-25.6H193.024c-14.08 0-25.6 11.52-25.6 25.6v401.92c0 14.08 11.52 25.6 25.6 25.6h143.488l-40.448 51.2h-103.04c-42.368 0-76.8-34.432-76.8-76.8v-401.92c0-42.368 34.432-76.8 76.8-76.8h637.952c42.368 0 76.8 34.432 76.8 76.8v401.92c0 42.368-34.432 76.8-76.8 76.8z"></path></svg>