<svg width="128" height="128" viewBox="0 0 1024 1024" xmlns="http://www.w3.org/2000/svg"><path d="M815.232 445.696H228.736v51.2h27.136v373.248c0 40.448 32.896 73.472 73.472 73.472h385.408c40.448 0 73.472-32.896 73.472-73.472V496.896h27.136v-51.2z m-78.336 424.448c0 12.288-9.984 22.272-22.272 22.272h-385.28c-12.288 0-22.272-9.984-22.272-22.272V496.896h429.824v373.248zM496.384 608.768h51.2v206.08h-51.2zM375.808 312.192c0-11.776 9.6-21.376 21.376-21.376h249.472c11.776 0 21.376 9.6 21.376 21.376v90.368h51.2v-90.368c0-40.064-32.64-72.576-72.576-72.576H397.184c-40.064 0-72.576 32.64-72.576 72.576v90.368h51.2v-90.368z"></path></svg>