<svg width="128" height="128" viewBox="0 0 1024 1024" xmlns="http://www.w3.org/2000/svg"><path d="M484.48 656.384L203.904 513.536v220.288l277.248 141.184c17.28 8.576 36.096 8.576 51.712 0l244.48-123.904V530.688l-247.936 125.696c-13.952 6.912-31.104 6.912-44.928 0zM890.88 386.176l-353.024-184.32c-18.944-12.032-43.008-12.032-61.952-1.664L129.92 380.928c-6.912 3.456-6.912 15.488 0 18.944l351.232 184.192c17.28 8.576 36.096 8.576 53.376 0l230.656-120.576c5.12-3.456 5.12-12.032 0-13.824l-180.736-98.176c-8.576 3.456-17.28 5.12-27.52 1.664-13.824-3.456-25.856-15.488-29.312-30.976-5.12-25.856 13.824-48.256 39.552-48.256 18.944 0 34.432 13.824 39.552 30.976l220.416 118.784c3.456 1.664 5.12 5.12 5.12 8.576v273.792c0 19.072 15.36 34.432 34.432 34.432a36.224 36.224 0 0 0 36.096-36.096v-299.52c0.128-8.448-5.12-15.232-11.904-18.688z"></path></svg>