<svg width="128" height="128" viewBox="0 0 1024 1024" xmlns="http://www.w3.org/2000/svg"><path d="M890.112 683.904l-107.52-432a63.936 63.936 0 0 0-62.08-48.512H304.128c-29.44 0-54.912 19.968-62.08 48.512l-107.52 432c-4.864 19.456-0.512 39.68 11.776 55.552s30.976 24.832 51.072 24.832h629.888c20.096 0 38.656-9.088 51.072-24.832s16.64-35.968 11.776-55.552zM291.84 264.448c1.408-5.632 6.528-9.6 12.416-9.6H720.64c5.888 0 10.88 3.968 12.416 9.6l62.592 251.52H640.384c-8.448 0-16.256 4.096-20.992 11.008l-45.696 65.792H437.376l-52.096-66.944a25.472 25.472 0 0 0-20.224-9.856H229.248l62.592-251.52z m546.176 443.52c-1.536 1.92-4.992 5.248-10.752 5.248H197.376a13.5936 13.5936 0 0 1-13.184-16.896l32.128-129.28h136.192l52.096 66.944c4.864 6.272 12.288 9.856 20.224 9.856h162.176c8.448 0 16.256-4.096 20.992-11.008l45.696-65.792h154.496l32.128 129.28c1.536 5.632-0.768 9.728-2.304 11.648z"></path></svg>