<svg width="128" height="128" viewBox="0 0 1024 1024" xmlns="http://www.w3.org/2000/svg"><path d="M802.432 860.8V201.344c0-45.312-37.12-82.432-82.432-82.432H566.144c10.24 15.616 18.432 32.512 24.32 50.56h125.184c16 0 29.056 13.056 29.056 29.056v545.024c0 16-13.056 29.056-29.056 29.056H325.76c-16 0-29.056-13.056-29.056-29.056V426.24c-21.376-10.368-40.96-24.064-57.6-40.576v475.136c0 45.312 37.12 82.432 82.432 82.432h398.464c45.312 0 82.432-37.12 82.432-82.432z m-324.48-6.784a42.752 42.752 0 1 1 85.504 0 42.752 42.752 0 0 1-85.504 0zM388.352 62.976c-97.152 0-176 78.848-176 176s78.848 176 176 176 176-78.848 176-176S485.632 62.976 388.352 62.976z m73.728 205.568c11.904 11.904 11.904 30.976 0 42.88-5.888 5.888-13.696 8.832-21.504 8.832-7.808 0-15.488-2.944-21.504-8.832l-30.848-30.848-30.848 30.848c-5.888 5.888-13.696 8.832-21.504 8.832s-15.488-2.944-21.504-8.832a30.208 30.208 0 0 1 0-42.88l30.848-30.848-30.848-30.848a30.208 30.208 0 0 1 0-42.88 30.208 30.208 0 0 1 42.88 0l30.848 30.848 30.848-30.848a30.208 30.208 0 0 1 42.88 0c11.904 11.904 11.904 30.976 0 42.88l-30.848 30.848 31.104 30.848z"></path></svg>