<svg width="128" height="128" viewBox="0 0 1024 1024" xmlns="http://www.w3.org/2000/svg"><path d="M238.848 747.904l108.928-0.128c6.784 0 13.312-2.688 18.048-7.552l266.88-266.88c9.984-9.984 9.984-26.24 0-36.224l-108.8-108.8c-9.984-9.984-26.24-9.984-36.224 0L220.8 595.328c-4.864 4.736-7.552 11.264-7.552 18.048l-0.128 108.928c0 6.784 2.688 13.312 7.552 18.176 4.864 4.736 11.392 7.424 18.176 7.424z m25.6-123.776L505.856 382.72l72.576 72.576-241.408 241.408h-72.704l0.128-72.576zM619.776 268.8a51.456 51.456 0 0 1 72.576 0 51.456 51.456 0 0 1 0 72.576l-40.192 40.064 36.224 36.224 40.192-40.192c39.936-39.936 39.936-104.96 0-145.024-39.936-39.936-105.088-39.936-145.024 0l-40.064 40.064 36.224 36.224L619.776 268.8zM215.936 833.664h606.208v51.2H215.936z"></path></svg>