<svg width="128" height="128" viewBox="0 0 1024 1024" xmlns="http://www.w3.org/2000/svg"><path d="M804.352 788.608l-104.192-104.192c41.472-52.352 66.304-118.528 66.304-190.336 0-169.6-137.984-307.456-307.456-307.456S151.552 324.48 151.552 494.08s137.984 307.456 307.456 307.456c79.232 0 151.68-30.208 206.208-79.616l102.912 102.912c9.984 9.984 26.24 9.984 36.224 0s9.984-26.24 0-36.224z m-345.344-38.272c-141.312 0-256.256-114.944-256.256-256.256s114.944-256.256 256.256-256.256 256.256 114.944 256.256 256.256-114.944 256.256-256.256 256.256z"></path></svg>