<svg width="128" height="128" viewBox="0 0 1024 1024" xmlns="http://www.w3.org/2000/svg"><path d="M458.88 673.152c-6.528 0-13.056-2.56-18.048-7.552l-100.608-100.608 36.224-36.224 82.432 82.432 168.832-168.704 36.224 36.224L477.056 665.6c-4.992 4.992-11.648 7.552-18.176 7.552zM743.04 886.656H270.592c-42.368 0-76.8-34.432-76.8-76.8V278.4c0-42.368 34.432-76.8 76.8-76.8h124.8c14.08 0 25.6 11.52 25.6 25.6v51.968c0 4.608 3.712 8.32 8.32 8.32h155.008c4.608 0 8.32-3.712 8.32-8.32v-51.968c0-14.08 11.52-25.6 25.6-25.6h124.8c42.368 0 76.8 34.432 76.8 76.8v531.456c0 42.368-34.432 76.8-76.8 76.8zM270.592 252.8c-14.08 0-25.6 11.52-25.6 25.6v531.456c0 14.08 11.52 25.6 25.6 25.6h472.448c14.08 0 25.6-11.52 25.6-25.6V278.4c0-14.08-11.52-25.6-25.6-25.6H643.84v26.368a59.648 59.648 0 0 1-59.52 59.52H429.312a59.648 59.648 0 0 1-59.52-59.52v-26.368h-99.2z"></path></svg>