<svg width="128" height="128" viewBox="0 0 1024 1024" xmlns="http://www.w3.org/2000/svg"><path d="M512 491.264c-62.592 0-113.536-50.944-113.536-113.664s50.944-113.664 113.536-113.664c62.592 0 113.664 50.944 113.664 113.664s-51.072 113.664-113.664 113.664z m0-176c-34.432 0-62.464 28.032-62.464 62.464s28.032 62.464 62.464 62.464 62.464-28.032 62.464-62.464-28.032-62.464-62.464-62.464zM512 849.536c-5.76 0-11.52-1.92-16.256-5.888-11.392-9.344-278.528-232.832-278.528-466.048C217.216 215.04 349.44 82.816 512 82.816S806.784 215.04 806.784 377.6c0 233.216-267.136 456.576-278.528 466.048-4.736 3.84-10.496 5.888-16.256 5.888z m0-715.52c-134.4 0-243.584 109.312-243.584 243.584 0 178.304 186.624 360.704 243.584 412.288 56.96-51.584 243.712-234.24 243.712-412.288C755.584 243.328 646.4 134.016 512 134.016zM512 956.416c-163.072 0-338.56-38.528-338.56-123.136 0-28.8 21.376-68.992 122.88-97.28l24.704-6.912 13.824 49.28-24.704 6.912c-69.76 19.456-85.504 41.728-85.504 48 0 21.504 97.792 71.936 287.36 71.936 189.568 0 287.36-50.432 287.36-71.936 0-8.448-20.48-28.16-75.392-45.056L699.392 780.8l14.976-48.896 24.448 7.552c92.288 28.288 111.616 66.688 111.616 93.952 0.128 84.48-175.36 123.008-338.432 123.008z"></path></svg>