<svg width="128" height="128" viewBox="0 0 1024 1024" xmlns="http://www.w3.org/2000/svg"><path d="M812.032 604.032c-2.944-51.072-36.096-230.144-116.992-278.912 1.92 16.64-0.512 86.4-16.64 98.432-30.592-108.8-107.008-205.696-293.76-239.36 47.104 87.424-10.496 298.624-92.416 335.36-12.416 5.888-9.984-100.608-75.648-121.472 12.032 93.568-33.664 168.064-33.664 238.464 0 132.352 76.672 246.272 186.624 296.96-11.136-83.072 50.56-142.848 57.088-223.232 0 0 41.984 17.408 50.432 78.08 41.984-8.704 67.2-156.16 50.432-225.536 148.096 96.128 182.784 216.832 174.464 319.36 73.6-66.816 117.376-168.704 110.08-278.144z"></path></svg>