<svg width="128" height="128" viewBox="0 0 1024 1024" xmlns="http://www.w3.org/2000/svg"><path d="M901.12 481.408L551.168 131.456a76.3904 76.3904 0 0 0-54.4-22.528c-20.608 0-39.936 8.064-54.4 22.528L92.288 481.536c-9.984 9.984-12.928 24.832-7.552 37.888s18.048 21.504 32.128 21.504h76.416V801.28c0 23.68 19.328 43.008 43.008 43.008h169.344c14.08 0 25.6-11.52 25.6-25.6v-129.28h131.072v129.28c0 14.08 11.52 25.6 25.6 25.6h169.344c23.68 0 43.008-19.328 43.008-43.008V540.8h76.416a34.688 34.688 0 0 0 24.448-59.392z m-126.592 8.192c-14.08 0-25.6 11.52-25.6 25.6v277.76H613.376v-112.64c0-23.296-18.944-42.24-42.24-42.24H422.144c-23.296 0-42.24 18.944-42.24 42.24v112.64H244.48v-277.76c0-14.08-11.52-25.6-25.6-25.6h-62.336L478.464 167.68c9.728-9.728 26.752-9.728 36.48 0l321.92 321.92h-62.336z"></path></svg>