<svg width="128" height="128" viewBox="0 0 1024 1024" xmlns="http://www.w3.org/2000/svg"><path d="M826.368 272.128h-136.96v51.2h136.96c15.488 0 28.032 12.544 28.032 28.032v406.144c0 15.36-12.544 27.904-27.904 27.904h-592.64c-15.36 0-27.904-12.544-27.904-27.904v-348.16h-51.2v348.16c0 43.648 35.456 79.104 79.104 79.104h592.512c43.648 0 79.104-35.456 79.104-79.104V351.36c0-43.648-35.456-79.232-79.104-79.232zM445.952 470.4v57.088h-95.616L519.936 680.96l169.472-153.472h-95.616v-57.088s-23.296-257.408-335.104-257.408c0 0 187.264 59.136 187.264 257.408z"></path></svg>