<svg width="128" height="128" viewBox="0 0 1024 1024" xmlns="http://www.w3.org/2000/svg"><path d="M693.12 466.56c9.984-6.272 6.784-21.504-4.864-23.424l-266.496-42.752c-8.576-1.408-16 6.016-14.72 14.72l43.136 266.112c1.92 11.648 17.152 14.72 23.424 4.864l71.424-111.872 200.704 200.704 36.224-36.224-200.704-200.704 111.872-71.424zM526.464 123.264c-218.368 0-396.032 177.664-396.032 396.032S308.096 915.2 526.464 915.2v-51.2c-190.08 0-344.832-154.624-344.832-344.832s154.624-344.832 344.832-344.832S871.296 328.96 871.296 519.168h51.2C922.368 300.928 744.832 123.264 526.464 123.264z"></path></svg>