<svg width="128" height="128" viewBox="0 0 1024 1024" xmlns="http://www.w3.org/2000/svg"><path d="M512.128 888.32c-19.712 0-39.296-7.424-54.272-22.4L165.76 573.952c-95.232-95.36-96.64-251.648-3.328-348.672 45.568-47.232 107.648-73.6 174.976-74.24 64.768-0.512 127.104 23.168 174.464 65.536 97.408-91.392 251.136-89.6 346.24 5.632 97.024 97.024 97.024 254.976 0 352L566.4 865.92a76.3392 76.3392 0 0 1-54.272 22.4zM339.84 202.112h-1.92c-53.504 0.512-102.656 21.376-138.624 58.624-74.24 77.056-72.96 201.216 2.688 276.864L494.08 829.696c9.984 9.984 26.24 9.984 36.224 0l291.712-291.712c77.056-77.056 77.056-202.496 0-279.68-77.056-77.056-202.496-77.056-279.68 0l-12.16 12.16c-9.984 9.984-26.24 9.984-36.224 0l-8.32-8.32c-38.144-38.144-91.136-60.032-145.792-60.032zM248.704 495.232c-51.84-51.968-56.704-136.96-6.528-190.464 25.728-27.392 60.672-42.496 98.048-42.496h3.072c12.416 0 22.528 10.112 22.528 22.528v6.016c0 12.416-10.112 22.528-22.528 22.528-19.968 0-39.808 5.888-55.296 18.432-38.912 31.616-41.216 89.088-6.656 123.648 9.984 9.984 9.984 26.24 0 36.224l-3.456 3.456c-8.064 8.192-21.12 8.192-29.184 0.128z"></path></svg>