<svg width="128" height="128" viewBox="0 0 1024 1024" xmlns="http://www.w3.org/2000/svg"><path d="M517.504 851.328S813.824 633.6 813.824 403.072c0-163.584-132.608-296.32-296.32-296.32S221.312 239.488 221.312 403.072c0 235.52 296.192 448.256 296.192 448.256z m0-583.936c62.208 0 112.896 50.688 112.896 112.896s-50.688 112.896-112.896 112.896-112.896-50.688-112.896-112.896 50.688-112.896 112.896-112.896zM682.368 783.36c-10.24-2.816-20.736 3.2-23.552 13.44-2.816 10.24 3.2 20.736 13.44 23.552 51.584 14.208 62.208 30.08 62.208 33.536 0 15.36-73.728 51.456-216.832 51.456S300.8 869.248 300.8 853.888c0-3.712 11.52-20.608 68.096-35.072a19.2128 19.2128 0 1 0-9.6-37.248c-63.488 16.256-97.024 41.216-97.024 72.32 0 61.696 132.224 89.856 255.232 89.856s255.232-28.16 255.232-89.856c0-20.864-15.744-49.92-90.368-70.528z"></path></svg>