<svg width="128" height="128" viewBox="0 0 1024 1024" xmlns="http://www.w3.org/2000/svg"><path d="M658.816 142.464H275.328a64.896 64.896 0 0 0-64.896 64.896v577.024c0 35.84 29.056 64.896 64.896 64.896h474.24c35.84 0 64.896-29.056 64.896-64.896V340.736L658.816 142.464zM340.224 426.752h183.68c10.624 0 19.2 8.576 19.2 19.2s-8.576 19.2-19.2 19.2H340.224c-10.624 0-19.2-8.576-19.2-19.2s8.576-19.2 19.2-19.2z m330.112 321.28H340.224c-10.624 0-19.2-8.576-19.2-19.2s8.576-19.2 19.2-19.2h330.112c10.624 0 19.2 8.576 19.2 19.2s-8.704 19.2-19.2 19.2z m0-141.44H340.224c-10.624 0-19.2-8.576-19.2-19.2s8.576-19.2 19.2-19.2h330.112c10.624 0 19.2 8.576 19.2 19.2s-8.704 19.2-19.2 19.2z m-26.496-264.96V198.784l115.2 142.848h-115.2z"></path></svg>