<svg width="128" height="128" viewBox="0 0 1024 1024" xmlns="http://www.w3.org/2000/svg"><path d="M794.752 322.944L659.712 150.784c-4.864-6.144-12.288-9.856-20.096-9.856H292.48c-37.504 0-67.968 30.464-67.968 67.968v535.168c0 37.504 30.464 67.968 67.968 67.968h439.808c37.504 0 67.968-30.464 67.968-67.968V338.816c0-5.76-1.92-11.264-5.504-15.872z m-66.432-1.792h-95.104v-121.088l95.104 121.088z m3.968 439.808H292.48c-9.216 0-16.768-7.552-16.768-16.768V209.024c0-9.216 7.552-16.768 16.768-16.768h289.536V346.88c0 14.08 11.52 25.6 25.6 25.6h141.44v371.712c0 9.216-7.552 16.768-16.768 16.768zM375.936 623.104h272.768v51.2H375.936zM375.936 520.704h272.768v51.2H375.936z"></path></svg>