<svg width="128" height="128" viewBox="0 0 1024 1024" xmlns="http://www.w3.org/2000/svg"><path d="M351.232 266.88c-141.056 0-255.488 114.304-255.488 255.488 0 201.728 255.488 393.216 255.488 393.216S606.72 724.096 606.72 522.368c0-141.056-114.432-255.488-255.488-255.488z m0 393.6c-83.712 0-151.552-67.84-151.552-151.552s67.84-151.552 151.552-151.552 151.552 67.84 151.552 151.552c-0.128 83.712-67.84 151.552-151.552 151.552zM855.552 64c-48.128 0-87.168 39.04-87.168 87.168 0 68.864 87.168 134.144 87.168 134.144s87.168-65.408 87.168-134.144C942.72 103.04 903.68 64 855.552 64z m0 134.272c-28.544 0-51.712-23.168-51.712-51.712s23.168-51.712 51.712-51.712 51.712 23.168 51.712 51.712-23.168 51.712-51.712 51.712zM374.784 940.16c0.384 0.128 8.32 3.2 22.016 6.784l8.32-30.976c-11.776-3.2-18.688-5.76-18.816-5.76l-11.52 29.952zM643.2 447.872c-4.48-10.112-6.656-20.096-6.656-30.464v-2.944l-32-1.152c0 1.408-0.128 2.688-0.128 4.096 0 15.104 3.072 29.312 9.344 43.52l29.44-13.056zM697.6 560.128c10.496 11.008 18.56 20.608 25.472 30.336l25.984-18.688c-7.808-10.752-16.768-21.504-28.16-33.536l-23.296 21.888zM784 654.592c-2.304-15.104-6.528-29.824-12.544-43.776l-29.44 12.672c4.992 11.648 8.448 23.424 10.368 35.968l31.616-4.864zM663.296 348.928l-23.808-21.376c-11.136 12.416-19.584 25.856-25.088 40.064l29.824 11.52c4.224-10.624 10.496-20.736 19.072-30.208zM726.144 305.024l-13.696-28.928c-14.08 6.656-27.008 14.08-38.4 21.76l18.048 26.496c9.984-6.912 21.376-13.44 34.048-19.328zM668.544 530.816L691.2 508.032c-8.96-8.832-19.072-19.072-27.648-29.184l-24.448 20.608c9.344 11.264 20.096 22.016 29.44 31.36zM439.424 955.776c14.464 2.048 29.056 3.328 43.392 3.712l0.768-32c-13.056-0.384-26.496-1.536-39.68-3.328l-4.48 31.616zM723.456 801.408c-1.408 2.176-2.816 4.224-4.352 6.4l26.368 18.304c1.792-2.56 3.584-5.248 5.376-7.936l1.152-2.048c4.864-10.496 9.216-20.864 13.184-30.976l-29.952-11.392c-3.456 8.96-7.424 18.304-11.776 27.648zM747.264 735.744l31.104 7.68c3.712-15.104 6.144-29.824 7.168-43.776l-32-2.432c-0.768 12.288-2.944 25.216-6.272 38.528zM752.64 259.584l10.624 30.208c12.16-4.224 25.216-8.192 38.656-11.776l-8.064-30.976c-14.336 3.84-28.16 8.064-41.216 12.544zM666.368 866.432l20.608 24.576c11.008-9.216 21.632-19.584 31.488-30.592l-23.808-21.376c-8.96 9.856-18.56 19.072-28.288 27.392zM523.392 925.952l3.2 31.872c14.72-1.536 29.312-3.968 43.264-7.424l-7.68-31.104c-12.416 3.072-25.6 5.248-38.784 6.656zM599.552 907.008l12.288 29.568c13.568-5.632 26.88-12.288 39.424-19.968l-16.64-27.392c-11.264 6.912-23.04 12.928-35.072 17.792z"></path></svg>