<svg width="128" height="128" viewBox="0 0 1024 1024" xmlns="http://www.w3.org/2000/svg"><path d="M747.648 880.768H319.104c-42.368 0-76.8-34.432-76.8-76.8V220.032c0-42.368 34.432-76.8 76.8-76.8h428.544c42.368 0 76.8 34.432 76.8 76.8v583.936c0 42.368-34.432 76.8-76.8 76.8zM319.104 194.432c-14.08 0-25.6 11.52-25.6 25.6v583.936c0 14.08 11.52 25.6 25.6 25.6h428.544c14.08 0 25.6-11.52 25.6-25.6V220.032c0-14.08-11.52-25.6-25.6-25.6H319.104zM585.984 723.584h-105.216c-14.08 0-25.6-11.52-25.6-25.6s11.52-25.6 25.6-25.6h105.216c14.08 0 25.6 11.52 25.6 25.6s-11.52 25.6-25.6 25.6z"></path></svg>