<svg width="128" height="128" viewBox="0 0 1024 1024" xmlns="http://www.w3.org/2000/svg"><path d="M895.616 536.064c0-200.576-162.56-363.264-363.264-363.264S169.088 335.36 169.088 536.064c0 106.496 45.824 202.24 118.784 268.672l-68.096 68.096a51.3024 51.3024 0 0 0 0 72.448c9.984 9.984 23.04 14.976 36.224 14.976s26.24-4.992 36.224-14.976l70.016-70.016c3.968-3.968 7.04-8.576 9.344-13.44 48.384 23.936 102.912 37.504 160.64 37.504s112.256-13.568 160.64-37.504c2.432 4.864 5.504 9.472 9.472 13.568 15.872 15.744 31.616 31.488 47.36 47.36l22.528 22.528c9.984 9.984 23.04 14.976 36.224 14.976a51.1744 51.1744 0 0 0 36.224-87.424l-22.528-22.528c-15.232-15.232-30.336-30.464-45.568-45.568 73.216-66.432 119.04-162.176 119.04-268.672z m-675.2 0c0-172.032 139.904-312.064 312.064-312.064s312.064 139.904 312.064 312.064S704.512 848 532.48 848 220.416 708.096 220.416 536.064zM545.408 541.824V388.992c0-14.08-11.52-25.6-25.6-25.6s-25.6 11.52-25.6 25.6v176l126.72 112.256c4.864 4.352 10.88 6.4 17.024 6.4 7.04 0 14.08-2.944 19.2-8.576 9.344-10.624 8.448-26.752-2.176-36.096l-109.568-97.152zM830.08 151.808a126.72 126.72 0 0 0-92.288 39.68 401.9584 401.9584 0 0 1 165.632 192.128 127.1936 127.1936 0 0 0 54.144-104.192c0.128-70.528-57.088-127.616-127.488-127.616zM323.968 193.28a126.8864 126.8864 0 0 0-93.952-41.472c-70.4 0-127.616 57.088-127.616 127.616 0 44.672 23.04 83.968 57.856 106.752A403.072 403.072 0 0 1 323.968 193.28z"></path></svg>