<svg width="128" height="128" viewBox="0 0 1024 1024" xmlns="http://www.w3.org/2000/svg"><path d="M813.952 521.088c0-8.448-0.384-16.64-1.024-24.832-0.768-9.472 4.096-18.432 12.288-23.168l26.752-15.36c9.728-5.632 14.336-17.152 11.52-28.032-16.64-63.872-50.304-120.832-95.872-165.76a24.832 24.832 0 0 0-29.952-3.968l-26.752 15.488c-8.448 4.864-18.688 4.096-26.624-1.536-13.056-9.088-27.008-17.152-41.472-24.064-8.832-4.224-14.72-12.8-14.72-22.656v-30.72c0-11.264-7.68-20.992-18.56-23.936-30.464-8.32-62.464-12.8-95.616-12.8s-65.28 4.48-95.744 12.928c-10.88 2.944-18.432 12.672-18.432 23.936v30.72c0 9.728-5.888 18.432-14.72 22.656-14.464 6.912-28.416 14.976-41.472 24.064-7.936 5.504-18.304 6.272-26.624 1.408l-26.752-15.488a24.832 24.832 0 0 0-29.952 4.096c-49.92 49.28-85.504 113.024-100.096 184.448v0.128l42.496 24.576c8.192 4.736 13.056 13.696 12.288 23.04-0.768 8.192-1.024 16.512-1.024 24.832 0 8.448 0.384 16.64 1.024 24.832a24.32 24.32 0 0 1-12.288 23.04l-42.496 24.576v0.128a360.5504 360.5504 0 0 0 100.096 184.448c8.064 7.936 20.224 9.728 29.952 4.096l26.752-15.488c8.448-4.864 18.688-4.096 26.624 1.408 13.056 9.088 27.008 17.152 41.472 24.064 8.832 4.224 14.72 12.8 14.72 22.656v30.72c0 11.264 7.68 20.992 18.432 23.936 30.464 8.448 62.592 12.928 95.744 12.928 33.152 0 65.152-4.48 95.616-12.8 10.88-2.944 18.56-12.672 18.56-23.936v-30.72c0-9.728 5.888-18.432 14.72-22.656 14.464-6.912 28.416-14.976 41.472-24.064 7.936-5.504 18.304-6.272 26.624-1.536l26.752 15.488c9.728 5.632 22.016 3.84 29.952-3.968 45.568-44.928 79.232-101.888 95.872-165.76 2.816-10.88-1.792-22.4-11.52-28.032l-26.752-15.36a24.5248 24.5248 0 0 1-12.288-23.168c0.768-8.192 1.024-16.512 1.024-24.832z m-185.984 166.4c-8.576 5.888-17.664 11.136-27.136 15.616-26.368 12.672-55.808 19.712-87.04 19.712-31.104 0-60.672-7.04-87.04-19.712-9.6-4.48-18.56-9.728-27.264-15.616-48.896-33.664-82.176-88.192-86.912-150.784a160.0896 160.0896 0 0 1 0-31.488c4.736-62.464 38.016-117.12 86.912-150.784 8.576-5.888 17.664-11.136 27.264-15.616 26.368-12.672 55.808-19.712 87.04-19.712 31.104 0 60.672 7.04 87.04 19.712 9.472 4.48 18.56 9.728 27.136 15.616 48.896 33.664 82.176 88.064 86.912 150.656a162.7136 162.7136 0 0 1 0 31.744c-4.864 62.592-38.144 116.992-86.912 150.656z"></path></svg>