<svg width="128" height="128" viewBox="0 0 1024 1024" xmlns="http://www.w3.org/2000/svg"><path d="M931.072 410.752c0-2.048-0.256-3.968-0.64-5.888l-32.512-136.96a51.2512 51.2512 0 0 0-50.176-39.68H294.4c-24.064 0-44.672 16.256-50.176 39.68l-32.512 136.96c-0.512 1.92-0.64 3.968-0.64 5.888 0 40.704 17.92 77.312 46.336 102.4v287.872c0 43.136 39.04 78.208 87.168 78.208h453.376c48 0 87.168-35.072 87.168-78.208V513.152c27.904-25.216 45.952-61.696 45.952-102.4z m-662.144-136.96l25.344 5.632 553.728 0.256 31.872 133.888a86.016 86.016 0 0 1-85.888 83.072c-39.68 0-73.984-26.88-83.456-65.408-5.76-23.424-21.504-25.984-28.032-25.984s-22.272 2.56-28.032 25.856a85.4912 85.4912 0 0 1-83.456 65.536c-39.296 0-73.472-26.496-83.2-64.512-6.016-23.424-21.76-25.984-28.288-25.984s-22.272 2.56-28.16 25.856a85.76 85.76 0 0 1-83.328 64.768 86.016 86.016 0 0 1-85.888-83.072l31.872-133.888-25.088-6.016z m564.608 527.232c0 14.592-16.512 27.008-35.968 27.008H344.192c-19.456 0-35.968-12.416-35.968-27.008V541.952a136.9728 136.9728 0 0 0 151.168-51.456c25.216 35.2 66.304 57.344 111.488 57.344 45.312 0 86.272-21.888 111.488-57.216 25.088 35.2 66.176 57.216 111.616 57.216 13.824 0 27.136-2.048 39.68-5.888v259.072z"></path></svg>