<svg width="128" height="128" viewBox="0 0 1024 1024" xmlns="http://www.w3.org/2000/svg"><path d="M818.176 620.16a34.304 34.304 0 0 0-34.304 34.304v74.88c0 29.44-16 51.456-30.336 51.456H185.984c-14.336 0-30.336-22.016-30.336-51.456V298.624c0-29.44 16-51.456 30.336-51.456h266.624a34.304 34.304 0 0 0 0-68.608H185.984c-55.424 0-98.816 52.736-98.816 119.936v430.592c0 67.2 43.392 119.936 98.816 119.936h567.552c55.424 0 98.944-52.608 98.944-119.936v-74.88c0-18.816-15.36-34.048-34.304-34.048zM1002.112 354.176L736.64 147.328a7.424 7.424 0 0 0-12.032 5.888v111.36c-325.888 36.48-307.072 239.104-308.352 416.64 0 8.448 11.648 10.752 14.72 2.816 36.736-95.232 106.112-253.44 293.632-249.216v131.968c0 6.144 7.168 9.6 12.032 5.888l265.472-206.72c3.712-3.072 3.712-8.832 0-11.776z"></path></svg>