<svg width="128" height="128" viewBox="0 0 1024 1024" xmlns="http://www.w3.org/2000/svg"><path d="M461.824 904.832c-21.76 0-42.24-8.448-57.6-23.808L139.392 616.192c-31.744-31.744-31.744-83.456 0-115.328l377.6-377.6a76.6336 76.6336 0 0 1 57.856-22.528l270.72 11.392c33.792 1.408 61.312 29.056 62.72 62.848l11.392 270.72c0.896 21.504-7.296 42.624-22.528 57.856l-377.6 377.6a81.8688 81.8688 0 0 1-57.728 23.68zM440.448 844.8c11.392 11.392 31.36 11.52 42.88 0l377.6-377.6c5.12-5.12 7.936-12.288 7.552-19.456l-11.392-270.72c-0.256-7.552-6.272-13.44-13.824-13.824l-270.72-11.392c-7.168-0.384-14.336 2.432-19.456 7.552l-377.6 377.6c-11.776 11.776-11.776 31.104 0 42.88L440.448 844.8zM669.056 455.168a103.68 103.68 0 0 1-73.6-30.464c-40.576-40.576-40.576-106.496 0-147.072a103.8336 103.8336 0 0 1 73.6-30.464c27.776 0 53.888 10.88 73.6 30.464 19.712 19.584 30.464 45.696 30.464 73.6s-10.752 53.888-30.464 73.6a103.6544 103.6544 0 0 1-73.6 30.336z m0-156.672c-14.08 0-27.392 5.504-37.376 15.488-20.608 20.608-20.608 54.144 0 74.624 20.608 20.608 54.144 20.608 74.624 0 9.984-9.984 15.488-23.168 15.488-37.376s-5.504-27.392-15.488-37.376c-9.856-9.856-23.04-15.36-37.248-15.36z"></path></svg>