<svg width="128" height="128" viewBox="0 0 1024 1024" xmlns="http://www.w3.org/2000/svg"><path d="M366.72 743.68l-22.656 52.864h55.68L422.4 743.68h191.872l22.656 52.864h55.68l-22.656-52.864h79.616a52.736 52.736 0 0 0 50.816-38.912L857.6 494.976a101.12 101.12 0 0 0-17.28-88.704 101.3376 101.3376 0 0 0-64.256-38.528v-68.864c0-55.552-45.184-100.736-100.736-100.736H361.216c-55.552 0-100.736 45.184-100.736 100.736v68.864a101.12 101.12 0 0 0-64.256 38.528 101.0432 101.0432 0 0 0-17.28 88.704l57.216 209.792a52.8512 52.8512 0 0 0 50.816 38.912h79.744z m-55.04-444.544a49.664 49.664 0 0 1 49.536-49.536h314.24a49.664 49.664 0 0 1 49.536 49.536v73.472a102.1696 102.1696 0 0 0-63.872 68.864l-25.344 92.928H400.896l-25.344-92.928c-8.832-32.64-33.28-57.856-63.872-68.864v-73.472z m-83.328 182.4c-4.224-15.36-1.024-31.488 8.576-44.032 9.728-12.672 24.32-19.968 40.32-19.968 22.784 0 42.88 15.36 48.896 37.376l30.464 111.872c3.072 11.136 13.184 18.816 24.704 18.816H655.36c11.52 0 21.632-7.68 24.704-18.816l30.464-111.872a50.816 50.816 0 0 1 48.896-37.376c15.872 0 30.592 7.296 40.32 19.968 9.6 12.672 12.8 28.8 8.576 44.16l-57.216 209.792c-0.128 0.64-0.768 1.152-1.408 1.152H286.976c-0.64 0-1.28-0.512-1.408-1.152l-57.216-209.92z"></path></svg>