<svg width="128" height="128" viewBox="0 0 1024 1024" xmlns="http://www.w3.org/2000/svg"><path d="M182.912 263.168l-35.456 149.376c0 67.072 54.4 121.472 121.472 121.472 56.832 0 104.448-38.912 117.888-91.648 2.432-9.6 4.992-9.344 7.424 0.256a121.5744 121.5744 0 0 0 117.76 91.264c57.216 0 105.216-39.552 118.144-92.8 2.176-9.216 4.608-9.088 6.912 0.256a121.5232 121.5232 0 0 0 118.016 92.544c67.072 0 121.472-54.4 121.472-121.472l-35.456-149.376c-3.072-12.8-14.464-21.76-27.52-21.76H210.432c-13.056 0-24.448 9.088-27.52 21.888zM738.048 884.608H285.952c-48 0-86.912-35.072-86.912-78.08V488.064h51.2v318.464c0 14.592 16.384 26.88 35.712 26.88h452.096c19.456 0 35.84-12.288 35.84-26.88V488.064h51.2v318.464c-0.128 43.136-39.04 78.08-87.04 78.08zM612.864 628.224h51.2v148.992h-51.2z"></path></svg>