<svg width="128" height="128" viewBox="0 0 1024 1024" xmlns="http://www.w3.org/2000/svg"><path d="M886.272 455.936c4.608 4.608 10.752 7.04 16.896 7.04 6.144 0 12.288-2.304 16.896-7.04 0.256-0.256 0.256-0.512 0.512-0.768 0.896-0.64 1.92-1.024 2.688-1.792l54.912-54.912c9.344-9.344 9.344-24.448 0-33.792s-24.448-9.344-33.792 0l-40.96 40.96-16.128-16.128c-9.344-9.344-24.448-9.344-33.792 0-9.344 9.344-9.344 24.448 0 33.792l32.768 32.64zM944.384 502.656l-40.96 40.96-16.128-16.128c-9.344-9.344-24.448-9.344-33.792 0-9.344 9.344-9.344 24.448 0 33.792l32.64 32.768c4.608 4.608 10.752 7.04 16.896 7.04 6.144 0 12.288-2.304 16.896-7.04 0.256-0.256 0.256-0.512 0.512-0.768 0.896-0.64 1.92-1.024 2.816-1.792l54.912-54.912c9.344-9.344 9.344-24.448 0-33.792s-24.448-9.472-33.792-0.128zM620.288 438.144h165.376c15.36 0 27.904-12.544 27.904-27.904 0-15.36-12.544-27.904-27.904-27.904H620.288c-15.36 0-27.904 12.544-27.904 27.904 0 15.36 12.544 27.904 27.904 27.904zM813.568 548.352c0-15.36-12.544-27.904-27.904-27.904H620.288c-15.36 0-27.904 12.544-27.904 27.904 0 15.36 12.544 27.904 27.904 27.904h165.376c15.36-0.128 27.904-12.672 27.904-27.904zM737.92 655.872h-117.632c-15.36 0-27.904 12.544-27.904 27.904 0 15.36 12.544 27.904 27.904 27.904h117.632c15.36 0 27.904-12.544 27.904-27.904 0-15.36-12.544-27.904-27.904-27.904zM957.312 655.872H823.808c-15.36 0-27.904 12.544-27.904 27.904 0 15.36 12.544 27.904 27.904 27.904h133.504c15.36 0 27.904-12.544 27.904-27.904 0-15.36-12.544-27.904-27.904-27.904zM323.2 361.728m-138.624 0a138.624 138.624 0 1 0 277.248 0 138.624 138.624 0 1 0-277.248 0ZM408.064 520.832a158.208 158.208 0 0 1-92.16 29.568c-34.432 0-66.176-11.008-92.16-29.568-112.512 38.4-193.408 144.64-193.408 270.208h428.672c0-72.32 27.008-138.112 71.296-188.288-32.768-37.12-74.624-65.664-122.24-81.92z"></path></svg>