<svg width="128" height="128" viewBox="0 0 1024 1024" xmlns="http://www.w3.org/2000/svg"><path d="M800.896 532.48h-125.184V370.304l-158.848-111.616v-70.912c45.312 8.192 127.488 30.976 163.968 2.176 0-30.208 1.152-80.768 0-99.456-54.016 22.784-195.456 0-195.456 0v168.192l-158.848 111.616V532.48h-125.184c-16 0-28.928 12.928-28.928 28.928v330.112h220.16v-33.536c0-57.216 41.728-108.672 98.688-113.664 64.256-5.632 118.144 44.928 118.144 108.032v39.168h220.16V561.408c0.256-15.872-12.672-28.928-28.672-28.928z m-299.648-7.296a75.904 75.904 0 1 1 75.904-75.904c0 41.856-34.048 75.904-75.904 75.904z"></path></svg>