<svg width="128" height="128" viewBox="0 0 1024 1024" xmlns="http://www.w3.org/2000/svg"><path d="M682.752 881.024H498.688c-38.528 0-69.888-31.36-69.888-69.888V557.312h-92.16c-28.672 0-54.016-16.128-66.048-42.24-12.032-25.984-8.064-55.808 10.496-77.696l254.848-278.016c13.184-15.616 33.536-25.088 54.912-25.088 21.504 0 41.728 9.344 55.68 25.856l253.44 276.48c19.2 22.656 23.168 52.48 11.136 78.464a72.192 72.192 0 0 1-66.048 42.24h-92.16v253.824c-0.256 38.528-31.616 69.888-70.144 69.888zM590.72 185.6c-3.712 0-10.88 1.024-16.512 7.68L319.36 471.296c-7.552 9.088-3.84 19.456-2.432 22.4 1.408 2.944 6.784 12.544 19.712 12.544h117.76c14.08 0 25.6 11.52 25.6 25.6v279.424c0 10.368 8.448 18.688 18.688 18.688h184.064c10.368 0 18.688-8.448 18.688-18.688V531.712c0-14.08 11.52-25.6 25.6-25.6H844.8c12.8 0 18.304-9.6 19.712-12.544s5.12-13.312-3.072-23.04l-253.44-276.48c-6.4-7.424-13.568-8.448-17.28-8.448z"></path></svg>