<svg width="128" height="128" viewBox="0 0 1024 1024" xmlns="http://www.w3.org/2000/svg"><path d="M789.632 276.096c0-17.28-22.144-29.44-39.68-9.6v579.2c0 26.752-21.76 48.512-48.512 48.512H195.2c-7.936 0-14.464-6.528-14.464-14.464v-28.928c0-16.512 13.44-29.952 29.952-29.952l444.544 0.128c19.456 0 35.2-15.744 35.2-35.2V252.544c0-22.784-18.56-41.344-41.344-41.344H182.4c-22.784 0-41.344 18.56-41.344 41.344V886.4a47.616 47.616 0 0 0 47.616 47.616H718.08c39.552 0 71.68-32.128 71.68-71.68v-586.24zM335.616 412.416c0-16.128 17.408-26.112 31.36-18.048l140.8 103.168c13.952 8.064 13.952 28.16 0 36.224l-140.8 103.168c-13.952 8.064-31.36-2.048-31.36-18.048V412.416z"></path></svg>