<svg width="128" height="128" viewBox="0 0 1024 1024" xmlns="http://www.w3.org/2000/svg"><path d="M833.92 302.208c-97.152 0-176 78.848-176 176s78.848 176 176 176S1009.92 575.36 1009.92 478.208s-78.848-176-176-176z m73.728 205.568c11.904 11.904 11.904 30.976 0 42.88-5.888 5.888-13.696 8.832-21.504 8.832-7.808 0-15.488-2.944-21.504-8.832l-30.848-30.848-30.848 30.848c-5.888 5.888-13.696 8.832-21.504 8.832-7.808 0-15.488-2.944-21.504-8.832a30.208 30.208 0 0 1 0-42.88l30.848-30.848-30.848-30.848c-11.904-11.904-11.904-30.976 0-42.88s30.976-11.904 42.88 0l30.848 30.848 30.848-30.848a30.208 30.208 0 0 1 42.88 0c11.904 11.904 11.904 30.976 0 42.88l-30.848 30.848 31.104 30.848zM440.064 484.48c-77.568 0-147.968 31.232-199.296 81.792-1.28 1.152-2.432 2.432-3.584 3.584l43.392 43.392c1.152-1.28 2.432-2.432 3.584-3.584 40.32-39.424 95.232-63.744 155.904-63.744s115.584 24.32 155.904 63.744c1.28 1.152 2.432 2.432 3.584 3.584l43.392-43.392c-1.152-1.28-2.432-2.432-3.584-3.584-51.328-50.56-121.728-81.792-199.296-81.792zM356.864 682.24l83.2 83.2 83.2-83.2c-21.632-20.736-50.816-33.536-83.2-33.536s-61.568 12.8-83.2 33.536zM440.064 185.344c-160 0-305.152 64.768-410.624 169.344-1.28 1.28-2.432 2.56-3.712 3.712l43.392 43.392 3.584-3.584c94.464-93.44 224.128-151.424 367.232-151.424 86.272 0 167.552 21.12 239.36 58.368a188.032 188.032 0 0 1 64-34.56 579.9936 579.9936 0 0 0-303.232-85.248zM611.968 438.144c1.28-21.632 6.016-42.24 14.08-61.312-56.448-26.88-119.296-42.496-185.984-42.496-118.912 0-226.688 48.128-305.28 125.696l-3.584 3.584 43.392 43.392c1.152-1.28 2.432-2.432 3.584-3.584 67.456-66.56 159.872-107.648 261.888-107.648 61.952 0.128 120.448 15.488 171.904 42.368z"></path></svg>