<svg width="128" height="128" viewBox="0 0 1024 1024" xmlns="http://www.w3.org/2000/svg"><path d="M815.232 364.544c-97.28 0-176.256 78.848-176.256 176.256s78.848 176.256 176.256 176.256c97.28 0 176.256-78.848 176.256-176.256s-78.976-176.256-176.256-176.256z m108.032 141.696l-104.704 104.704c-1.536 1.536-3.456 2.304-5.248 3.456-0.384 0.512-0.512 1.024-1.024 1.536-5.888 5.888-13.696 8.832-21.504 8.832-7.808 0-15.488-2.944-21.504-8.832l-62.336-62.336a30.208 30.208 0 0 1 0-42.88 30.208 30.208 0 0 1 42.88 0l41.472 41.472 88.832-88.832c11.904-11.904 31.104-11.904 42.88 0s12.16 30.976 0.256 42.88zM10.624 415.488l43.392 43.392 3.584-3.584-43.392-43.392c-1.28 1.152-2.432 2.432-3.584 3.584zM225.536 623.232c-1.28 1.152-2.432 2.432-3.584 3.584l43.392 43.392c1.152-1.28 2.432-2.432 3.584-3.584 40.32-39.424 95.232-63.744 155.904-63.744s115.584 24.32 155.904 63.744l43.392-43.392c-51.456-50.432-121.728-81.792-199.296-81.792s-147.84 31.36-199.296 81.792zM341.76 739.328l83.2 83.2 83.2-83.2a120.0128 120.0128 0 0 0-166.4 0zM115.968 520.96l43.392 43.392c1.152-1.28 2.432-2.432 3.584-3.584l-43.392-43.392c-1.152 1.152-2.432 2.304-3.584 3.584zM424.832 242.56c-160 0-305.152 64.768-410.624 169.344l43.392 43.392c94.464-93.44 224.128-151.424 367.232-151.424 86.272 0 167.552 21.12 239.36 58.368a188.032 188.032 0 0 1 64-34.56 580.0064 580.0064 0 0 0-303.36-85.12zM596.736 495.36c1.28-21.632 6.016-42.24 14.08-61.312-56.448-26.88-119.296-42.496-185.984-42.496-118.912 0-226.688 48.128-305.28 125.696l43.392 43.392c67.456-66.56 159.872-107.648 261.888-107.648 62.08 0 120.448 15.36 171.904 42.368z"></path></svg>