<svg width="128" height="128" viewBox="0 0 1024 1024" xmlns="http://www.w3.org/2000/svg"><path d="M384.128 238.08l-191.872 33.152c-12.288 2.176-21.248 12.8-21.248 25.216v177.92a25.5744 25.5744 0 0 0 25.6 25.6h0.256l191.872-2.304c14.08-0.128 25.344-11.52 25.344-25.6V263.296c0-7.552-3.328-14.72-9.088-19.584-5.888-4.864-13.44-6.912-20.864-5.632z m-21.248 208.64l-140.672 1.664V317.952l140.672-24.32V446.72zM820.224 187.776c-5.76-4.864-13.44-6.912-20.864-5.632l-288.768 49.92c-12.288 2.176-21.248 12.8-21.248 25.216v214.272a25.5744 25.5744 0 0 0 25.6 25.6h0.256l288.768-3.456c14.08-0.128 25.344-11.52 25.344-25.6V207.36c0-7.552-3.328-14.72-9.088-19.584zM778.112 442.88l-237.568 2.816V278.784l237.568-41.088V442.88zM388.736 568.96l-191.872-2.304c-7.04-0.128-13.44 2.56-18.304 7.424-4.864 4.864-7.552 11.392-7.552 18.176v177.92c0 12.416 8.96 23.04 21.248 25.216l191.872 33.152a25.4848 25.4848 0 0 0 20.864-5.632c5.76-4.864 9.088-12.032 9.088-19.584V594.56c0-13.952-11.264-25.344-25.344-25.6z m-25.856 204.032l-140.672-24.32V618.24l140.672 1.664v153.088zM804.096 572.928l-288.768-3.456c-6.912 0.128-13.44 2.56-18.304 7.424-4.864 4.864-7.552 11.392-7.552 18.176v214.272c0 12.416 8.96 23.04 21.248 25.216l288.768 49.92a25.4848 25.4848 0 0 0 20.864-5.632c5.76-4.864 9.088-12.032 9.088-19.584V598.528c-0.128-14.08-11.392-25.472-25.344-25.6z m-25.984 255.872l-237.568-41.088V620.928l237.568 2.816v205.056z"></path></svg>