<svg width="128" height="128" viewBox="0 0 1024 1024" xmlns="http://www.w3.org/2000/svg"><path d="M830.208 816.768h-51.2c0-81.536-32.256-157.696-90.752-214.528a297.2288 297.2288 0 0 0-208.128-84.352c-80 0-155.136 31.232-211.584 87.808-56.32 56.448-87.296 131.328-87.296 211.072h-51.2c0-93.312 36.352-181.12 102.272-247.168 66.176-66.304 154.112-102.784 247.808-102.784 91.52 0 178.048 35.072 243.712 98.816 68.608 66.432 106.368 155.648 106.368 251.136zM480.128 517.888c-122.112 0-221.44-98.304-221.44-219.136s99.328-219.136 221.44-219.136 221.44 98.304 221.44 219.136-99.328 219.136-221.44 219.136z m0-386.944c-93.824 0-170.24 75.264-170.24 167.936s76.288 167.936 170.24 167.936 170.24-75.264 170.24-167.936-76.416-167.936-170.24-167.936zM480.128 890.496c-6.528 0-13.056-2.56-18.048-7.552l-73.472-73.472c-6.912-6.912-9.216-17.024-6.144-26.24l73.472-220.544a25.6 25.6 0 0 1 24.32-17.536 25.6 25.6 0 0 1 24.32 17.536l73.472 220.544c3.072 9.216 0.64 19.328-6.144 26.24l-73.472 73.472c-5.12 5.12-11.776 7.552-18.304 7.552z m-44.16-105.984l44.16 44.16 44.16-44.16-44.16-132.608-44.16 132.608z"></path></svg>