<svg width="128" height="128" viewBox="0 0 1024 1024" xmlns="http://www.w3.org/2000/svg"><path d="M638.464 393.088l-127.36 127.488-127.488-127.488-36.096 36.224 127.36 127.36-127.36 127.488 36.096 36.224 127.488-127.488 127.36 127.488 36.224-36.224-127.36-127.488 127.36-127.36zM554.24 165.632C306.432 139.392 98.56 347.136 124.8 594.944c19.072 180.608 164.224 325.76 344.832 344.832 247.808 26.24 455.68-181.632 429.44-429.44-19.072-180.48-164.224-325.632-344.832-344.704z m-14.592 724.224c-208.128 16.64-381.312-156.544-364.672-364.672 13.056-163.84 145.792-296.448 309.504-309.504 208.128-16.512 381.184 156.544 364.672 364.672-13.056 163.712-145.792 296.448-309.504 309.504z"></path></svg>