<?xml version="1.0" standalone="no"?><!DOCTYPE svg PUBLIC "-//W3C//DTD SVG 1.1//EN" "http://www.w3.org/Graphics/SVG/1.1/DTD/svg11.dtd"><svg t="1592032708357" class="icon" viewBox="0 0 1024 1024" version="1.1" xmlns="http://www.w3.org/2000/svg" p-id="7882" xmlns:xlink="http://www.w3.org/1999/xlink" width="200" height="200"><defs><style type="text/css"></style></defs><path d="M284.434286 971.52h455.131428c88.722286 0 132.864-45.001143 132.864-134.144V448.237714c0-55.296-5.997714-79.286857-40.283428-114.432L595.565714 93.385143c-32.548571-33.444571-59.136-40.722286-107.556571-40.722286H284.434286c-88.283429 0-132.864 45.421714-132.864 134.582857v650.130286c0 89.581714 44.580571 134.144 132.864 134.144z m3.419428-69.010286c-44.141714 0-67.291429-23.552-67.291428-66.413714V188.525714c0-42.422857 23.149714-66.870857 67.730285-66.870857h190.281143v249.014857c0 53.997714 27.428571 80.566857 80.566857 80.566857h244.297143v384.859429c0 42.861714-22.729143 66.432-67.291428 66.432H287.853714zM566.857143 386.523429c-16.713143 0-23.588571-6.857143-23.588572-24.009143V134.948571l246.857143 251.574858H566.857143z" p-id="7883"></path><path d="M302.866286 602.24h28.580571c15.780571 0 28.562286 12.8 28.562286 28.580571v200.045715c0 15.762286-12.8 28.562286-28.562286 28.562285h-28.580571C287.085714 859.428571 274.285714 846.628571 274.285714 830.848v-200.045714c0-15.762286 12.8-28.562286 28.580572-28.562286z m128.585143-85.723429h28.580571c15.780571 0 28.580571 12.8 28.580571 28.562286v285.769143c0 15.780571-12.8 28.580571-28.580571 28.580571h-28.580571c-15.780571 0-28.562286-12.8-28.562286-28.580571V545.097143c0-15.780571 12.8-28.562286 28.562286-28.562286z m128.603428 171.446858h28.580572c15.780571 0 28.562286 12.8 28.562285 28.580571v114.304c0 15.780571-12.8 28.580571-28.562285 28.580571h-28.580572c-15.780571 0-28.580571-12.8-28.580571-28.580571v-114.285714c0-15.798857 12.8-28.598857 28.580571-28.598857z" p-id="7884"></path></svg>