<?xml version="1.0" standalone="no"?><!DOCTYPE svg PUBLIC "-//W3C//DTD SVG 1.1//EN" "http://www.w3.org/Graphics/SVG/1.1/DTD/svg11.dtd"><svg t="1592032855786" class="icon" viewBox="0 0 1024 1024" version="1.1" xmlns="http://www.w3.org/2000/svg" p-id="11024" xmlns:xlink="http://www.w3.org/1999/xlink" width="200" height="200"><defs><style type="text/css"></style></defs><path d="M539.569231 263.876923c-3.938462-3.938462-7.876923-3.938462-15.753846-3.938461s-11.815385 7.876923-15.753847 11.815384L279.630769 756.184615l-192.984615 153.6c-7.876923 7.876923-11.815385 19.692308-3.938462 27.569231 3.938462 3.938462 11.815385 7.876923 15.753846 7.876923s7.876923 0 15.753847-3.938461l196.923077-157.538462c0-3.938462 3.938462-3.938462 3.938461-7.876923l216.615385-468.676923 224.492307 236.307692c3.938462 7.876923 11.815385 7.876923 15.753847 7.876923s11.815385 0 19.692307-7.876923l153.6-196.923077c7.876923-7.876923 3.938462-19.692308-3.938461-27.56923-7.876923-7.876923-19.692308-3.938462-27.569231 3.938461l-141.784615 181.169231-232.369231-240.246154zM905.846154 0H118.153846C51.2 0 0 51.2 0 118.153846v787.692308c0 66.953846 51.2 118.153846 118.153846 118.153846h787.692308c66.953846 0 118.153846-51.2 118.153846-118.153846V118.153846c0-66.953846-51.2-118.153846-118.153846-118.153846zM39.384615 118.153846c0-43.323077 35.446154-78.769231 78.769231-78.769231h118.153846v196.923077H39.384615V118.153846z m0 157.538462h196.923077v236.307692H39.384615V275.692308z m708.923077 708.923077h-196.923077v-196.923077h196.923077v196.923077z m236.307693-78.769231c0 43.323077-35.446154 78.769231-78.769231 78.769231h-118.153846v-196.923077h196.923077v118.153846z m0-393.846154h-137.846154c-11.815385 0-19.692308 7.876923-19.692308 19.692308s7.876923 19.692308 19.692308 19.692307H984.615385v196.923077h-196.923077v-137.846154c0-11.815385-7.876923-19.692308-19.692308-19.692307s-19.692308 7.876923-19.692308 19.692307V748.307692h-196.923077v-196.923077h98.461539c11.815385 0 19.692308-7.876923 19.692308-19.692307s-7.876923-19.692308-19.692308-19.692308H551.384615v-98.461538c0-11.815385-7.876923-19.692308-19.692307-19.692308s-19.692308 7.876923-19.692308 19.692308V748.307692H374.153846c-11.815385 0-19.692308 7.876923-19.692308 19.692308s7.876923 19.692308 19.692308 19.692308H512v196.923077H275.692308v-98.461539c0-11.815385-7.876923-19.692308-19.692308-19.692308s-19.692308 7.876923-19.692308 19.692308V984.615385H118.153846c-43.323077 0-78.769231-35.446154-78.769231-78.769231v-118.153846h137.846154c11.815385 0 19.692308-7.876923 19.692308-19.692308s-7.876923-19.692308-19.692308-19.692308H39.384615v-196.923077h196.923077v98.461539c0 11.815385 7.876923 19.692308 19.692308 19.692308s19.692308-7.876923 19.692308-19.692308V551.384615h19.692307c11.815385 0 19.692308-7.876923 19.692308-19.692307s-7.876923-19.692308-19.692308-19.692308H275.692308V275.692308h137.846154c11.815385 0 19.692308-7.876923 19.692307-19.692308s-7.876923-19.692308-19.692307-19.692308H275.692308V39.384615h236.307692v137.846154c0 11.815385 7.876923 19.692308 19.692308 19.692308s19.692308-7.876923 19.692307-19.692308V39.384615h196.923077v196.923077h-137.846154c-11.815385 0-19.692308 7.876923-19.692307 19.692308s7.876923 19.692308 19.692307 19.692308H748.307692v137.846154c0 11.815385 7.876923 19.692308 19.692308 19.692307s19.692308-7.876923 19.692308-19.692307V275.692308h196.923077v236.307692z m0-275.692308h-196.923077V39.384615h118.153846c43.323077 0 78.769231 35.446154 78.769231 78.769231v118.153846z" fill="" p-id="11025"></path></svg>