<?xml version="1.0" standalone="no"?><!DOCTYPE svg PUBLIC "-//W3C//DTD SVG 1.1//EN" "http://www.w3.org/Graphics/SVG/1.1/DTD/svg11.dtd"><svg t="1592032580830" class="icon" viewBox="0 0 1024 1024" version="1.1" xmlns="http://www.w3.org/2000/svg" p-id="5179" xmlns:xlink="http://www.w3.org/1999/xlink" width="200" height="200"><defs><style type="text/css"></style></defs><path d="M887.47008 648.52992h-34.14016v-102.4a68.2496 68.2496 0 0 0-68.25984-68.25984H546.12992v-102.4h34.14016A34.24256 34.24256 0 0 0 614.4 341.32992v-204.8A34.24256 34.24256 0 0 0 580.27008 102.4H443.72992A34.24256 34.24256 0 0 0 409.6 136.52992v204.8a34.24256 34.24256 0 0 0 34.12992 34.14016h34.14016v102.4H238.92992a68.2496 68.2496 0 0 0-68.25984 68.25984v102.4h-34.14016A34.24256 34.24256 0 0 0 102.4 682.67008v204.8A34.24256 34.24256 0 0 0 136.52992 921.6h136.54016A34.24256 34.24256 0 0 0 307.2 887.47008v-204.8a34.24256 34.24256 0 0 0-34.12992-34.14016h-34.14016v-102.4h238.94016v102.4h-34.14016A34.24256 34.24256 0 0 0 409.6 682.67008v204.8A34.24256 34.24256 0 0 0 443.72992 921.6h136.54016A34.24256 34.24256 0 0 0 614.4 887.47008v-204.8a34.24256 34.24256 0 0 0-34.12992-34.14016h-34.14016v-102.4h238.94016v102.4h-34.14016A34.24256 34.24256 0 0 0 716.8 682.67008v204.8A34.24256 34.24256 0 0 0 750.92992 921.6h136.54016A34.24256 34.24256 0 0 0 921.6 887.47008v-204.8a34.24256 34.24256 0 0 0-34.12992-34.14016z" p-id="5180"></path></svg>