<?xml version="1.0" standalone="no"?><!DOCTYPE svg PUBLIC "-//W3C//DTD SVG 1.1//EN" "http://www.w3.org/Graphics/SVG/1.1/DTD/svg11.dtd"><svg t="1592032824172" class="icon" viewBox="0 0 1171 1024" version="1.1" xmlns="http://www.w3.org/2000/svg" p-id="10283" xmlns:xlink="http://www.w3.org/1999/xlink" width="228.7109375" height="200"><defs><style type="text/css"></style></defs><path d="M1170.285714 877.714286l0 73.142857-1170.285714 0 0-877.714286 73.142857 0 0 804.571429 1097.142857 0zM1097.142857 164.571429l0 248.539429q0 11.995429-11.117714 16.822857t-20.260571-4.315429l-69.12-69.12-361.691429 361.691429q-5.705143 5.705143-13.165714 5.705143t-13.165714-5.705143l-133.12-133.12-237.714286 237.714286-109.714286-109.714286 334.262857-334.262857q5.705143-5.705143 13.165714-5.705143t13.165714 5.705143l133.12 133.12 265.142857-265.142857-69.12-69.12q-9.142857-9.142857-4.315429-20.260571t16.822857-11.117714l248.539429 0q7.972571 0 13.165714 5.12t5.12 13.165714z" p-id="10284"></path></svg>