<svg width="128" height="128" viewBox="0 0 1024 1024" xmlns="http://www.w3.org/2000/svg"><path d="M512 64C265.6 64 64 265.6 64 512s201.6 448 448 448 448-201.6 448-448S758.4 64 512 64z m-19.2 630.4H233.6v-48h259.2v48z m0-80H233.6v-48h259.2v48z m0-80H233.6v-48h259.2v48z m0-80H233.6v-48h259.2v48z m0-80H233.6v-48h259.2v48z m140.8 320h-105.6v-48h105.6v48z m0-80h-105.6v-48h105.6v48z m0-80h-105.6v-48h105.6v48z m0-80h-105.6v-48h105.6v48z m0-80h-105.6v-48h105.6v48z m144 320H672v-48h105.6v48z m0-80H672v-48h105.6v48z m0-80H672v-48h105.6v48z m0-80H672v-48h105.6v48z m0-80H672v-48h105.6v48z" fill="#181818"></path></svg>