<svg width="128" height="128" viewBox="0 0 1024 1024" xmlns="http://www.w3.org/2000/svg"><path d="M512 149.333333c200.298667 0 362.666667 162.368 362.666667 362.666667s-162.368 362.666667-362.666667 362.666667S149.333333 712.298667 149.333333 512 311.701333 149.333333 512 149.333333z m0 64c-164.949333 0-298.666667 133.717333-298.666667 298.666667s133.717333 298.666667 298.666667 298.666667 298.666667-133.717333 298.666667-298.666667-133.717333-298.666667-298.666667-298.666667z m84.053333 105.386667l45.226667 45.226667L557.269333 448H672v64h-128v53.333333h128v64h-128v85.333334h-64v-85.333334h-128v-64h128V512h-128v-64h114.752l-84.053333-84.053333 45.269333-45.226667L512 402.730667l84.053333-84.053334z"></path></svg>