<svg width="128" height="128" viewBox="0 0 1024 1024" xmlns="http://www.w3.org/2000/svg"><path d="M148.010667 605.290667c50.069333 0 90.666667-40.874667 90.666666-91.285334 0-49.962667-39.893333-90.538667-89.344-91.264V277.333333a64 64 0 0 1 64-64h597.333334a64 64 0 0 1 64 64l-0.021334 145.450667-3.050666 0.064c-48.021333 2.304-86.272 42.24-86.272 91.157333 0 49.962667 39.872 90.56 89.322666 91.285334V746.666667a64 64 0 0 1-64 64H213.333333a64 64 0 0 1-64-64v-141.397334l-1.322666 0.021334zM384 597.333333v85.333334h68.010667v-85.333334H384z m0-128v85.333334h68.010667v-85.333334H384z m0-128v85.333334h68.010667v-85.333334H384z"></path></svg>