<svg width="128" height="128" viewBox="0 0 1024 1024" xmlns="http://www.w3.org/2000/svg"><path d="M277.333333 298.666667v490.666666h437.333334v64h-405.333334a96 96 0 0 1-95.893333-91.477333L213.333333 757.333333V298.666667h64z m472.789334-127.786667a64 64 0 0 1 64 64v451.242667a64 64 0 0 1-64 64H319.786667V234.88a64 64 0 0 1 64-64h366.336z m0 64H383.786667v451.242667h366.336V234.88z m-89.962667 126.378667l45.013333 45.482666-170.112 168.405334-88.341333-88.32 45.226667-45.248 43.328 43.306666 124.885333-123.626666z"></path></svg>