<svg width="128" height="128" viewBox="0 0 1024 1024" xmlns="http://www.w3.org/2000/svg"><path d="M695.466667 576a119.466667 119.466667 0 0 1 102.933333 180.16l71.146667 71.146667-42.24 42.24-71.146667-71.146667A119.466667 119.466667 0 1 1 695.466667 576z m-364.8 170.666667a53.333333 53.333333 0 1 1 0 106.666666 53.333333 53.333333 0 0 1 0-106.666666z m364.8-106.666667a55.466667 55.466667 0 1 0 0 110.933333 55.466667 55.466667 0 0 0 0-110.933333zM94.762667 138.666667h54.741333a96 96 0 0 1 92.906667 71.786666l1.024 4.394667L256.64 277.333333l0.213333 0.021334 43.221334 206.954666L332.224 640l210.858667-0.021333a161.834667 161.834667 0 0 0-9.536 64.042666L332.224 704a64 64 0 0 1-62.677333-51.050667l-60.586667-293.418666-0.405333 0.085333-27.733334-131.562667a32 32 0 0 0-28.309333-25.237333l-2.986667-0.149333H94.741333v-64h54.741334zM796.096 277.333333a64 64 0 0 1 62.677333 76.949334L811.669333 582.4a162.346667 162.346667 0 0 0-57.450666-38.101333L796.096 341.333333l-482.304-0.021333L300.416 277.333333h495.68zM682.666667 448v64H384v-64h298.666667z"></path></svg>