<svg width="128" height="128" viewBox="0 0 1024 1024" xmlns="http://www.w3.org/2000/svg"><path d="M512 128c212.074667 0 384 171.925333 384 384s-171.925333 384-384 384S128 724.074667 128 512 299.925333 128 512 128z m0 64C335.274667 192 192 335.274667 192 512c0 176.725333 143.274667 320 320 320 176.725333 0 320-143.274667 320-320 0-176.725333-143.274667-320-320-320z m54.442667 152.149333V685.44c0 27.264-33.664 40.490667-52.522667 20.629333l-87.701333-80.064h-83.093334a64 64 0 0 1-64-64V477.013333a64 64 0 0 1 64-64l84.437334 1.408 86.357333-90.922666c18.858667-19.84 52.522667-6.613333 52.522667 20.650666z m80.917333 5.546667A193.28 193.28 0 0 1 746.666667 518.656a193.28 193.28 0 0 1-99.157334 168.896l-29.589333-56.810667A129.28 129.28 0 0 0 682.666667 518.677333a129.28 129.28 0 0 0-64.810667-112.128l29.504-56.853333z m-39.744 76.586667a106.602667 106.602667 0 0 1 51.050667 91.050666 106.602667 106.602667 0 0 1-52.053334 91.648l-29.653333-57.024a42.602667 42.602667 0 0 0 1.002667-68.48l29.653333-57.173333z m-105.173333 2.24l-47.850667 50.346666-111.466667-1.856v85.013334h107.904l51.413334 46.933333v-180.437333z"></path></svg>